SplineFontDB: 3.0
FontName: KisStM-Bold
FullName: Sorts Mill Kis Bold
FamilyName: Sorts Mill Kis
Weight: Bold
Copyright: Copyright (C) 2010 Barry Schwartz
UComments: "Cut 3200-dpi samples to 640 pixels high. Scale by a factor of 1.1.+AAoACgAA-Cut 6400-dpi samples to 1280 pixels high. Scale by a factor of 1.1." 
Version: 001.000
ItalicAngle: 0
UnderlinePosition: -100
UnderlineWidth: 49
Ascent: 700
Descent: 300
Descent: 300
LayerCount: 3
Layer: 0 0 "Back"  1
Layer: 1 0 "Fore"  0
Layer: 2 0 "backup"  0
NeedsXUIDChange: 1
XUID: [1021 658 797806517 2478896]
FSType: 0
OS2Version: 0
OS2_WeightWidthSlopeOnly: 0
OS2_UseTypoMetrics: 1
CreationTime: 1263111985
ModificationTime: 1268643446
OS2TypoAscent: 0
OS2TypoAOffset: 1
OS2TypoDescent: 0
OS2TypoDOffset: 1
OS2TypoLinegap: 90
OS2WinAscent: 0
OS2WinAOffset: 1
OS2WinDescent: 0
OS2WinDOffset: 1
HheadAscent: 0
HheadAOffset: 1
HheadDescent: 0
HheadDOffset: 1
OS2Vendor: 'PfEd'
Lookup: 3 0 0 "'aalt' Access All Alternates lookup 0"  {"'aalt' Access All Alternates lookup 0 subtable"  } ['aalt' ('DFLT' <'dflt' > ) ]
Lookup: 3 0 0 "'aalt' Access All Alternates in Latin lookup 0"  {"'aalt' Access All Alternates in Latin lookup 0 subtable"  } ['aalt' ('latn' <'TRK ' 'AZE ' 'CRT ' 'dflt' > ) ]
Lookup: 1 0 0 "turkish"  {"turkish subtable"  } ['locl' ('latn' <'TRK ' 'AZE ' 'CRT ' > ) ]
Lookup: 1 0 0 "'ss01' Style Set 1 in Latin lookup 1"  {"'ss01' Style Set 1 in Latin lookup 1 subtable"  } ['ss01' ('latn' <'dflt' > 'DFLT' <'dflt' > ) ]
Lookup: 260 0 0 "spacing anchors"  {"spacing anchors-1"  } []
Lookup: 260 0 0 "accent anchors"  {"accent anchors-1"  } []
Lookup: 258 0 0 "'kern' Horizontal Kerning in Latin lookup 2"  {"'kern' Horizontal Kerning in Latin lookup 2 per glyph data 0"  "'kern' Horizontal Kerning in Latin lookup 2 kerning class 1"  } ['kern' ('latn' <'dflt' > 'DFLT' <'dflt' > ) ]
MarkAttachClasses: 1
DEI: 91125
KernClass2: 83 70 "'kern' Horizontal Kerning in Latin lookup 2 kerning class 1" 

StartChar: a
Encoding: 97 97 0
Width: 447
VWidth: 0
Flags: W
HStem: -15 48<108 216.414> -9 62<321.5 393.121> 369 37<145.933 312>
VStem: 29 102<251.382 338.049> 37 119<39.0412 121.278> 263 108<56.4328 195 213.332 353.693>
AnchorPoint: "top" 218 542 basechar 0
AnchorPoint: "l;bl" 0 13 basechar 0
AnchorPoint: "l;x" 8 383 basechar 0
AnchorPoint: "l;o" 0 202 basechar 0
AnchorPoint: "r;bl" 446 13 basechar 0
AnchorPoint: "r;x" 434 383 basechar 0
AnchorPoint: "r;o" 447 202 basechar 0
LayerCount: 3
Back
SplineSet
32 70 m 4xac
 32 125 95 169 263 211 c 5
 263 281 l 6
 263 324 258 364 196 364 c 4
 154 364 129 346 129 330 c 4
 129 325 136 311 136 294 c 4
 136 264 112 250 84 250 c 4
 55 250 24 267 24 298 c 4
 24 343 139 406 253 406 c 4
 371 406 371 360 371 236 c 6
 371 132 l 6
 371 83 372 53 389 53 c 4
 410 53 407 73 420 73 c 4
 425 73 427 66 427 58 c 4
 427 19 368 -9 336 -9 c 4x74
 307 -9 279 1 268 57 c 5
 245 20 197 -15 130 -15 c 4
 76 -15 32 14 32 70 c 4xac
263 190 m 5
 255 187 236 181 214 170 c 4
 183 154 151 137 151 86 c 4
 151 57 168 33 191 33 c 4xac
 200 33 263 46 263 103 c 6
 263 190 l 5
EndSplineSet
Fore
SplineSet
389 53 m 0x74
 410 53 407 73 421 73 c 0
 425 73 427 68 427 60 c 0
 427 50 422 34 408 21 c 0
 388 3 356 -9 336 -9 c 0x74
 307 -9 277 0 268 57 c 1
 245 20 202 -15 135 -15 c 0
 81 -15 37 14 37 70 c 0xac
 37 125 95 168 263 218 c 1
 263 281 l 2
 263 324 258 369 196 369 c 0
 153 369 131 348 131 325 c 0
 131 322 135 311 135 291 c 0
 135 266 124 241 83 241 c 0
 52 241 29 264 29 295 c 0
 29 362 174 406 253 406 c 0
 371 406 371 360 371 236 c 2
 371 132 l 2
 371 83 372 53 389 53 c 0x74
263 195 m 1
 202 172 156 148 156 86 c 0
 156 57 173 33 196 33 c 0xac
 205 33 263 51 263 108 c 2
 263 195 l 1
EndSplineSet
EndChar

StartChar: M
Encoding: 77 77 1
Width: 927
VWidth: 0
Flags: W
HStem: 0 21G<29.5 193.5 396 417.5 606.5 898.5> 616 20G<82.5 276 695 878.5>
VStem: 81 89<431 626> 88 45<28.5387 206.313> 697 129<30.6046 384.11>
DStem2: 295 620 212 476 0.335446 -0.94206<34.7986 497.845> 462 151 438 10 0.416392 0.909185<0 448.429>
AnchorPoint: "l;bl" 0 10 basechar 0
AnchorPoint: "l;o" 18 200 basechar 0
AnchorPoint: "l;hi" 54 610 basechar 0
AnchorPoint: "l;x" 27 385 basechar 0
AnchorPoint: "r;hi2" 891 670 basechar 0
AnchorPoint: "r;bl" 927 10 basechar 0
AnchorPoint: "r;o" 909 200 basechar 0
AnchorPoint: "r;hi" 900 610 basechar 0
AnchorPoint: "r;x" 909 385 basechar 0
LayerCount: 3
Back
SplineSet
843 636 m 5
 844 634 846 630 846 626 c 4
 846 604 790 625 773 599 c 4
 765 587 764 563 764 520 c 4
 764 493 781 113 782 104 c 6
 785 75 l 6
 792 3 867 35 867 10 c 4
 867 6 866 2 865 0 c 5
 604 0 l 5
 603 2 601 6 601 10 c 4
 601 28 645 17 672 30 c 4
 691 40 693 56 693 77 c 6
 693 96 l 6
 693 133 676 545 673 545 c 4
 668 545 641 479 607 402 c 6
 433 10 l 6
 428 -2 426 -4 417 -4 c 6
 415 -4 l 6
 405 -4 405 -3 400 12 c 6
 232 476 l 6
 217 518 204 545 203 545 c 4
 202 545 191 493 182 431 c 4
 160 290 137 118 137 60 c 4
 137 31 148 29 167 24 c 4
 180 21 193 19 193 10 c 4
 193 6 192 2 191 0 c 5
 45 0 l 5
 44 2 42 6 42 10 c 4
 42 28 78 16 94 39 c 4
 99 47 103 60 105 75 c 4
 129 274 183 582 183 588 c 4
 183 595 181 599 178 603 c 4
 162 620 97 605 97 626 c 4
 97 630 98 634 99 636 c 5
 257 636 l 6
 269 636 274 634 279 620 c 6
 454 123 l 5
 601 451 l 5
 681 627 l 6
 684 634 690 636 698 636 c 6
 843 636 l 5
EndSplineSet
Fore
SplineSet
878 636 m 1xe8
 879 634 881 630 881 626 c 0
 881 604 824 625 806 599 c 0
 798 587 797 563 797 520 c 0
 797 493 821 113 822 104 c 2
 826 75 l 2
 832 -11 900 35 900 10 c 0
 900 6 899 2 898 0 c 1
 607 0 l 1
 606 2 604 6 604 10 c 0
 604 28 649 17 676 30 c 0
 695 40 697 56 697 77 c 2
 697 96 l 2
 697 133 682 545 679 545 c 0
 674 545 649 479 618 402 c 2
 438 10 l 2
 429 -3 426 -5 409 -5 c 2
 405 -5 l 2
 387 -5 386 -4 377 12 c 2
 212 476 l 2
 200 518 189 545 188 545 c 0
 187 545 177 493 170 431 c 0xe8
 152 290 133 118 133 60 c 4
 133 31 144 29 163 24 c 4
 176 21 195 19 195 10 c 4
 195 6 194 2 193 0 c 5
 30 0 l 5
 29 2 27 6 27 10 c 4
 27 27 65 17 78 39 c 4
 82 47 86 60 88 75 c 4xd8
 116 274 180 582 180 588 c 0
 180 595 177 599 174 603 c 0
 156 620 81 605 81 626 c 0
 81 630 82 634 83 636 c 1
 269 636 l 2
 283 636 289 634 295 620 c 2
 462 151 l 1
 599 451 l 1
 680 627 l 2
 684 634 690 636 700 636 c 2
 878 636 l 1xe8
EndSplineSet
EndChar

StartChar: b
Encoding: 98 98 2
Width: 505
VWidth: 0
Flags: W
HStem: -15 29<209.496 294.714> 369 37<215.519 300> 645 20G<101 160>
VStem: 60 108<49.6987 336.453 358 594.632> 352 122<101.557 310.658>
AnchorPoint: "l;hi2" 0 671 basechar 0
AnchorPoint: "l;bl" 0 13 basechar 0
AnchorPoint: "l;x" 0 383 basechar 0
AnchorPoint: "l;o" 0 199 basechar 0
AnchorPoint: "r;bl" 487 13 basechar 0
AnchorPoint: "r;x" 487 383 basechar 0
AnchorPoint: "r;o" 505 199 basechar 0
LayerCount: 3
Fore
SplineSet
60 538 m 2
 60 625 4 584 4 613 c 0
 4 639 44 612 158 665 c 1
 162 665 169 663 170 659 c 0
 170 657 168 599 168 595 c 2
 168 358 l 1
 192 374 l 2
 213 388 247 406 291 406 c 0
 440 406 474 303 474 199 c 0
 474 93 403 -15 255 -15 c 0
 158 -15 129 26 112 26 c 0
 100 26 85 8 70 6 c 0
 59 4 55 6 55 15 c 0
 55 23 60 73 60 91 c 2
 60 538 l 2
165 257 m 2
 165 177 l 2
 165 68 193 14 254 14 c 0
 320 14 352 108 352 200 c 0
 352 287 321 369 254 369 c 0
 214 369 165 334 165 257 c 2
EndSplineSet
EndChar

StartChar: c
Encoding: 99 99 3
Width: 403
VWidth: 0
Flags: W
HStem: -15 70<185.768 285.416> 376 30<192.332 268.406>
VStem: 22 112<115.437 294.132>
AnchorPoint: "cedilla" 231 -82 basechar 0
AnchorPoint: "top" 237 542 basechar 0
AnchorPoint: "l;bl" 30 13 basechar 0
AnchorPoint: "l;x" 30 383 basechar 0
AnchorPoint: "l;o" 0 204 basechar 0
AnchorPoint: "r;bl" 385 13 basechar 0
AnchorPoint: "r;x" 403 383 basechar 0
AnchorPoint: "r;o" 403 204 basechar 0
LayerCount: 3
Fore
SplineSet
375 103 m 5
 328 7 247 -15 208 -15 c 4
 147 -15 22 16 22 197 c 4
 22 317 104 406 233 406 c 4
 321 406 372 361 372 326 c 4
 372 311 359 290 339 290 c 4
 278 290 292 376 237 376 c 4
 185 376 134 321 134 220 c 4
 134 84 203 55 250 55 c 4
 292 55 325 74 357 116 c 5
 365 112 372 109 375 103 c 5
EndSplineSet
EndChar

StartChar: d
Encoding: 100 100 4
Width: 507
VWidth: 0
Flags: HMW
HStem: -15 48<144.315 284.591> 377 29<201.876 294.652>
VStem: 22 120<107.729 285.94> 330 108<54.1967 349.095 390 594.632>
AnchorPoint: "commaright" 485 541 basechar 0
AnchorPoint: "l;bl" 18 13 basechar 0
AnchorPoint: "l;x" 18 383 basechar 0
AnchorPoint: "l;o" 0 202 basechar 0
AnchorPoint: "r;bl" 507 13 basechar 0
AnchorPoint: "r;x" 498 383 basechar 0
AnchorPoint: "r;hi" 498 611 basechar 0
AnchorPoint: "r;o" 507 202 basechar 0
LayerCount: 3
Fore
SplineSet
438 105 m 2
 438 11 492 56 492 28 c 0
 492 1 463 26 351 -15 c 1
 338 -15 l 1
 338 48 l 1
 305 18 268 -15 205 -15 c 0
 88 -15 22 85 22 188 c 0
 22 296 93 406 254 406 c 0
 284 406 330 390 330 390 c 1
 330 538 l 2
 330 625 274 584 274 613 c 0
 274 639 314 612 428 665 c 1
 432 665 439 663 440 659 c 0
 440 657 438 599 438 595 c 2
 438 105 l 2
332 130 m 2
 332 256 l 2
 332 338 304 377 245 377 c 0
 175 377 142 297 142 215 c 0
 142 125 182 33 260 33 c 0
 299 33 332 65 332 130 c 2
EndSplineSet
EndChar

StartChar: e
Encoding: 101 101 5
Width: 426
VWidth: 0
Flags: W
HStem: -15 69<187.408 309.313> 249 27<140 280.939> 376 30<176.675 255.558>
VStem: 22 111<114.432 249> 281 114<260 342.817>
AnchorPoint: "top" 217 542 basechar 0
AnchorPoint: "l;bl" 30 13 basechar 0
AnchorPoint: "l;x" 30 383 basechar 0
AnchorPoint: "l;o" 0 201 basechar 0
AnchorPoint: "r;bl" 413 13 basechar 0
AnchorPoint: "r;x" 413 383 basechar 0
AnchorPoint: "r;o" 426 201 basechar 0
LayerCount: 3
Fore
SplineSet
223 406 m 0
 326 406 395 356 395 271 c 0
 395 249 386 249 303 249 c 2
 136 249 l 1
 135 235 133 221 133 207 c 0
 133 132 161 54 262 54 c 0
 334 54 366 91 382 113 c 1
 390 111 397 105 400 100 c 1
 365 31 305 -15 213 -15 c 0
 123 -15 22 36 22 191 c 0
 22 347 124 406 223 406 c 0
140 276 m 1
 234 276 l 2
 281 276 281 279 281 294 c 0
 281 346 254 376 215 376 c 0
 178 376 151 345 140 276 c 1
EndSplineSet
EndChar

StartChar: f
Encoding: 102 102 6
Width: 301
VWidth: 0
Flags: W
HStem: 0 21G<19.5 246.5> 342 51<183 281.941> 625 40<207.022 316.5>
VStem: 75 108<24.6674 342>
AnchorPoint: "l;bl" 0 10 basechar 0
AnchorPoint: "l;x" 0 383 basechar 0
AnchorPoint: "l;o" 0 195 basechar 0
AnchorPoint: "r;bl" 269 10 basechar 0
AnchorPoint: "r;x" 301 383 basechar 0
AnchorPoint: "r;k;hi" 398 603 basechar 0
AnchorPoint: "r;o" 292 195 basechar 0
LayerCount: 3
Fore
SplineSet
183 493 m 2
 183 393 l 1
 271 393 l 2
 281 393 282 388 282 364 c 0
 282 344 273 342 258 342 c 2
 183 342 l 1
 183 75 l 2
 183 -3 247 30 247 8 c 0
 247 5 247 2 246 0 c 1
 20 0 l 1
 19 2 19 5 19 8 c 0
 19 29 75 -2 75 75 c 2
 75 342 l 1
 75 342 50 343 37 343 c 0
 30 343 24 345 24 355 c 0
 24 370 68 371 75 399 c 0
 88 454 100 665 282 665 c 0
 351 665 379 632 379 603 c 0
 379 579 361 558 331 558 c 0
 311 558 290 569 274 594 c 0
 261 615 247 625 234 625 c 0
 206 625 183 579 183 493 c 2
EndSplineSet
Layer: 2
SplineSet
183 493 m 6
 183 393 l 5
 271 393 l 6
 281 393 282 388 282 364 c 4
 282 344 273 342 258 342 c 6
 183 342 l 5
 183 75 l 6
 183 -3 247 30 247 8 c 4
 247 5 247 2 246 0 c 5
 20 0 l 5
 19 2 19 5 19 8 c 4
 19 29 75 -2 75 75 c 6
 75 342 l 5
 75 342 50 343 37 343 c 4
 30 343 24 345 24 355 c 4
 24 370 65 366 73 394 c 4
 89 446 96 665 284 665 c 4
 349 665 375 633 375 605 c 4
 375 581 355 558 326 558 c 4
 308 558 289 570 274 594 c 4
 261 615 247 623 235 623 c 4
 184 623 183 529 183 493 c 6
EndSplineSet
EndChar

StartChar: g
Encoding: 103 103 7
Width: 513
VWidth: 0
Flags: WO
HStem: -225 65<122.887 305.74> -30 86<135.473 385.298> 123 23<197.138 257.765> 368 40<369.077 462> 377 29<192.064 259.831>
VStem: 35 63<-178 -91.8259> 52 108<193.004 337.996> 61 69<36 105> 289 109<193.588 339.774> 400 48<-121.724 -46.0877>
AnchorPoint: "top" 230 543 basechar 0
AnchorPoint: "l;bl" 0 12 basechar 0
AnchorPoint: "l;x" 24 383 basechar 0
AnchorPoint: "l;o" 6 204 basechar 0
AnchorPoint: "l;lo" 18 -198 basechar 0
AnchorPoint: "r;bl" 480 12 basechar 0
AnchorPoint: "r;x" 513 383 basechar 0
AnchorPoint: "r;o" 476 204 basechar 0
AnchorPoint: "r;lo" 462 -198 basechar 0
LayerCount: 3
Fore
SplineSet
289 263 m 0xeac0
 289 340 262 377 226 377 c 0
 189 377 160 339 160 265 c 0
 160 187 191 146 228 146 c 0
 264 146 289 184 289 263 c 0xeac0
164 -30 m 1
 131 -37 98 -70 98 -98 c 0xe4c0
 98 -143 160 -160 227 -160 c 0
 306 -160 400 -140 400 -84 c 0
 400 -40 366 -32 248 -32 c 2
 206 -32 l 2
 194 -32 196 -32 164 -30 c 1
35 -149 m 0
 35 -100 90 -48 129 -28 c 1
 79 -16 61 22 61 50 c 0xf1c0
 61 97 138 141 138 141 c 1
 131 145 116 149 97 166 c 0
 68 192 52 228 52 262 c 0
 52 333 100 406 226 406 c 0xeac0
 271 406 314 394 342 367 c 1
 373 398 410 408 442 408 c 0
 482 408 501 385 501 363 c 0
 501 345 487 328 461 328 c 0
 424 328 420 368 391 368 c 0
 382 368 373 363 365 353 c 1
 382 340 398 303 398 267 c 0
 398 197 345 123 238 123 c 0
 184 123 165 132 160 132 c 0xf2c0
 153 132 130 114 130 96 c 0xf1c0
 130 65 160 56 216 56 c 2
 311 56 l 2
 394 56 448 20 448 -50 c 0
 448 -166 302 -225 174 -225 c 0
 118 -225 35 -207 35 -149 c 0
EndSplineSet
AlternateSubs2: "'aalt' Access All Alternates lookup 0 subtable" g.ld
AlternateSubs2: "'aalt' Access All Alternates in Latin lookup 0 subtable" g.ld
Substitution2: "'ss01' Style Set 1 in Latin lookup 1 subtable" g.ld
EndChar

StartChar: h
Encoding: 104 104 8
Width: 515
VWidth: 0
Flags: W
HStem: 0 21G<14.5 231.5 283.5 500.5> 346 60<237.157 376.39> 645 20G<111 170>
VStem: 70 108<22.3111 320.379 323 594.632> 338 108<23.0293 326.24>
AnchorPoint: "l;hi2" 9 671 basechar 0
AnchorPoint: "top" 255 731 basechar 0
AnchorPoint: "l;bl" 0 10 basechar 0
AnchorPoint: "l;x" 18 383 basechar 0
AnchorPoint: "l;o" 9 196 basechar 0
AnchorPoint: "r;bl" 515 10 basechar 0
AnchorPoint: "r;x" 506 383 basechar 0
AnchorPoint: "r;o" 506 196 basechar 0
LayerCount: 3
Back
SplineSet
17 0 m 5
 16 2 15 5 15 8 c 4
 15 30 77 -2 77 62 c 6
 77 552 l 6
 77 623 16 584 16 609 c 4
 16 640 40 607 147 664 c 5
 150 664 155 662 156 658 c 4
 156 656 154 609 154 605 c 6
 154 332 l 5
 158 338 167 344 173 352 c 4
 193 377 231 404 286 404 c 4
 399 404 409 346 409 227 c 6
 409 62 l 6
 409 0 471 30 471 8 c 4
 471 5 470 2 469 0 c 5
 272 0 l 5
 271 2 270 5 270 8 c 4
 270 30 332 -2 332 62 c 6
 332 221 l 6
 332 318 317 354 250 354 c 4
 193 354 154 314 154 288 c 6
 154 62 l 6
 154 0 216 30 216 8 c 4
 216 5 215 2 214 0 c 5
 17 0 l 5
EndSplineSet
Fore
SplineSet
15 0 m 1
 14 2 14 5 14 8 c 0
 14 30 70 -5 70 72 c 2
 70 538 l 2
 70 625 14 584 14 613 c 0
 14 639 54 612 168 665 c 1
 172 665 179 663 180 659 c 0
 180 657 178 599 178 595 c 2
 178 323 l 1
 194 346 232 406 316 406 c 0
 435 406 446 348 446 228 c 2
 446 72 l 2
 446 -2 502 30 502 8 c 0
 502 5 501 2 500 0 c 1
 284 0 l 1
 283 2 282 5 282 8 c 0
 282 30 338 -6 338 71 c 2
 338 216 l 2
 338 311 324 346 264 346 c 0
 213 346 178 306 178 281 c 2
 178 71 l 2
 178 -3 233 30 233 8 c 0
 233 5 232 2 231 0 c 1
 15 0 l 1
EndSplineSet
EndChar

StartChar: k
Encoding: 107 107 11
Width: 512
VWidth: 0
Flags: W
HStem: 0 21G<14.5 241.5 275.5 501.5> 167 26<178 219.551> 373 20G<293.5 475.5> 645 20G<111 170>
VStem: 70 108<24.3477 166 193.001 594.632>
DStem2: 306 214 237 133 0.624695 -0.780869<-17.9755 143.098> 243 223 301 233 0.67994 0.733268<36.2373 157.68>
AnchorPoint: "l;hi2" 9 671 basechar 0
AnchorPoint: "cedilla" 266 -80 basechar 0
AnchorPoint: "l;bl" 0 10 basechar 0
AnchorPoint: "l;x" 18 385 basechar 0
AnchorPoint: "l;o" 9 202 basechar 0
AnchorPoint: "r;bl" 512 10 basechar 0
AnchorPoint: "r;x" 503 385 basechar 0
AnchorPoint: "r;o" 483 202 basechar 0
LayerCount: 3
Back
SplineSet
378 316 m 6
 301 233 l 6
 294 228 299 221 306 214 c 6
 423 67 l 6
 436 48 442 41 450 34 c 4
 472 12 503 25 503 8 c 4
 503 5 502 2 501 0 c 5
 276 0 l 5
 275 2 275 5 275 8 c 4
 275 24 308 13 308 32 c 4
 308 39 303 48 290 67 c 6
 237 133 l 6
 226 148 215 167 192 167 c 4
 188 167 178 166 178 166 c 5
 178 61 l 6
 178 -13 243 30 243 8 c 4
 243 5 242 2 241 0 c 5
 15 0 l 5
 14 2 14 5 14 8 c 4
 14 30 70 -15 70 62 c 6
 70 543 l 6
 70 628 14 585 14 610 c 4
 14 641 43 597 168 665 c 5
 172 665 179 663 180 659 c 4
 180 657 178 610 178 606 c 6
 178 194 l 5
 178 194 181 193 187 193 c 4
 200 193 222 197 243 223 c 6
 316 302 l 6
 331 323 336 336 336 346 c 4
 336 356 332 361 329 364 c 4
 313 381 292 369 292 385 c 4
 292 388 293 391 294 393 c 5
 475 393 l 5
 476 391 477 388 477 385 c 4
 477 365 451 399 410 350 c 4
 401 342 391 331 378 316 c 6
EndSplineSet
Fore
SplineSet
70 538 m 2
 70 625 14 584 14 613 c 0
 14 639 54 612 168 665 c 1
 172 665 179 663 180 659 c 0
 180 657 178 599 178 595 c 2
 178 194 l 1
 178 194 181 193 187 193 c 0
 200 193 220 198 243 223 c 2
 316 302 l 2
 320 306 340 330 340 349 c 0
 340 377 292 371 292 385 c 0
 292 388 293 391 294 393 c 1
 475 393 l 1
 476 391 477 388 477 385 c 0
 477 365 444 384 403 343 c 0
 394 335 391 331 378 316 c 2
 301 233 l 1
 294 228 300 222 306 214 c 2
 415 77 l 1
 428 58 442 41 450 34 c 0
 472 12 503 25 503 8 c 0
 503 5 502 2 501 0 c 1
 276 0 l 1
 275 2 275 5 275 8 c 0
 275 24 308 13 308 32 c 0
 308 39 296 59 282 77 c 2
 237 133 l 2
 225 148 215 167 192 167 c 0
 188 167 178 166 178 166 c 1
 178 71 l 2
 178 -3 243 30 243 8 c 0
 243 5 242 2 241 0 c 1
 15 0 l 1
 14 2 14 5 14 8 c 0
 14 30 70 -5 70 72 c 2
 70 538 l 2
EndSplineSet
EndChar

StartChar: l
Encoding: 108 108 12
Width: 247
VWidth: 0
Flags: W
HStem: 0 21G<14.5 232.5> 645 20G<111 170>
VStem: 70 108<22.962 594.632>
AnchorPoint: "commaright" 225 541 basechar 0
AnchorPoint: "cedilla" 126 -80 basechar 0
AnchorPoint: "top" 113 731 basechar 0
AnchorPoint: "l;bl" 0 10 basechar 0
AnchorPoint: "l;x" 18 386 basechar 0
AnchorPoint: "l;o" 9 200 basechar 0
AnchorPoint: "r;bl" 247 10 basechar 0
AnchorPoint: "r;x" 238 386 basechar 0
AnchorPoint: "r;hi" 247 611 basechar 0
AnchorPoint: "r;o" 238 200 basechar 0
AnchorPoint: "l;hi2" 9 671 basechar 0
LayerCount: 3
Fore
SplineSet
70 538 m 2
 70 625 14 584 14 613 c 0
 14 639 54 612 168 665 c 1
 172 665 179 663 180 659 c 0
 180 657 178 599 178 595 c 2
 178 72 l 2
 178 -2 234 30 234 8 c 0
 234 5 233 2 232 0 c 1
 15 0 l 1
 14 2 14 5 14 8 c 0
 14 30 70 -5 70 72 c 2
 70 538 l 2
EndSplineSet
EndChar

StartChar: m
Encoding: 109 109 13
Width: 765
VWidth: 0
Flags: W
HStem: 346 60<230.285 311.307 488.939 570.407>
VStem: 70 108<22.3111 73 279 325.298> 328 108<22.3111 71 216 321.224> 588 108<23.0293 72 216 329.934>
AnchorPoint: "l;bl" 0 10 basechar 0
AnchorPoint: "l;x" 0 387 basechar 0
AnchorPoint: "l;o" 0 196 basechar 0
AnchorPoint: "r;bl" 765 10 basechar 0
AnchorPoint: "r;x" 756 387 basechar 0
AnchorPoint: "r;o" 756 196 basechar 0
LayerCount: 3
Fore
SplineSet
564 406 m 0
 481 406 446 344 425 313 c 1
 411 375 383 406 304 406 c 0
 231 406 196 357 169 316 c 1
 172 371 176 397 177 404 c 1
 176 409 169 412 165 412 c 1
 51 355 14 383 14 355 c 0
 14 325 70 367 70 279 c 2
 70 73 l 2
 70 -4 14 30 14 8 c 0
 14 5 14 2 15 0 c 1
 231 0 l 1
 232 2 233 5 233 8 c 0
 233 30 178 -3 178 71 c 2
 178 281 l 2
 178 306 204 346 255 346 c 0
 322 346 328 311 328 216 c 2
 328 71 l 2
 328 -6 273 30 273 8 c 0
 273 5 274 2 275 0 c 1
 490 0 l 1
 491 2 492 5 492 8 c 0
 492 30 436 -3 436 71 c 2
 436 239 l 2
 436 257 435 267 435 276 c 0
 435 288 437 294 449 310 c 0
 462 327 474 346 514 346 c 0
 583 346 588 311 588 216 c 2
 588 71 l 2
 588 -6 532 30 532 8 c 0
 532 5 533 2 534 0 c 1
 750 0 l 1
 751 2 752 5 752 8 c 0
 752 30 696 -2 696 72 c 2
 696 228 l 2
 696 348 677 406 564 406 c 0
EndSplineSet
EndChar

StartChar: n
Encoding: 110 110 14
Width: 515
VWidth: 0
Flags: W
HStem: 346 60<240.633 380>
VStem: 70 108<22.3111 73 279 320.379> 338 108<23.0293 72 216 325.493>
AnchorPoint: "top" 262 544 basechar 0
AnchorPoint: "l;bl" 0 10 basechar 0
AnchorPoint: "l;x" 0 387 basechar 0
AnchorPoint: "l;o" 0 196 basechar 0
AnchorPoint: "r;bl" 515 10 basechar 0
AnchorPoint: "r;x" 506 387 basechar 0
AnchorPoint: "r;o" 506 196 basechar 0
LayerCount: 3
Fore
SplineSet
322 406 m 0
 247 406 204 363 169 314 c 5
 172 369 176 397 177 404 c 5
 176 409 169 412 165 412 c 5
 51 355 14 383 14 355 c 4
 14 325 70 367 70 279 c 6
 70 73 l 2
 70 -4 14 30 14 8 c 0
 14 5 14 2 15 0 c 1
 231 0 l 1
 232 2 233 5 233 8 c 0
 233 30 178 -3 178 71 c 2
 178 281 l 2
 178 306 213 346 264 346 c 0
 327 346 338 311 338 216 c 2
 338 71 l 2
 338 -6 282 30 282 8 c 0
 282 5 283 2 284 0 c 1
 500 0 l 1
 501 2 502 5 502 8 c 0
 502 30 446 -2 446 72 c 2
 446 228 l 2
 446 338 438 406 322 406 c 0
EndSplineSet
EndChar

StartChar: o
Encoding: 111 111 15
Width: 482
VWidth: 0
Flags: W
HStem: -15 34<187.782 288.285> 372 34<197.93 292.377>
VStem: 22 122<91.2005 289.919> 338 122<102.19 305.198>
AnchorPoint: "top" 240 542 basechar 0
AnchorPoint: "l;bl" 29 13 basechar 0
AnchorPoint: "l;x" 29 383 basechar 0
AnchorPoint: "l;o" 0 200 basechar 0
AnchorPoint: "r;bl" 453 13 basechar 0
AnchorPoint: "r;x" 453 383 basechar 0
AnchorPoint: "r;o" 482 200 basechar 0
LayerCount: 3
Fore
SplineSet
460 202 m 0
 460 72 369 -15 231 -15 c 0
 115 -15 22 48 22 198 c 0
 22 308 103 406 245 406 c 0
 401 406 460 317 460 202 c 0
242 372 m 0
 183 372 144 306 144 196 c 0
 144 100 158 19 237 19 c 0
 320 19 338 107 338 196 c 0
 338 327 300 372 242 372 c 0
EndSplineSet
EndChar

StartChar: p
Encoding: 112 112 16
Width: 504
VWidth: 0
Flags: W
HStem: -211 21G<14.5 239.5> -15 35<210.22 304.951> 357 49<228.956 368.744>
VStem: 70 104<-183.532 15 52.4527 328.703> 364 118<102.544 294.78>
AnchorPoint: "l;bl" 0 13 basechar 0
AnchorPoint: "l;x" 0 387 basechar 0
AnchorPoint: "l;o" 0 199 basechar 0
AnchorPoint: "l;lo" 0 -200 basechar 0
AnchorPoint: "r;bl" 486 13 basechar 0
AnchorPoint: "r;x" 486 387 basechar 0
AnchorPoint: "r;o" 504 199 basechar 0
LayerCount: 3
Fore
SplineSet
177 -138 m 2
 177 -212 241 -180 241 -203 c 0
 241 -206 240 -209 239 -211 c 1
 15 -211 l 1
 14 -209 14 -206 14 -203 c 0
 14 -181 70 -216 70 -139 c 2
 70 291 l 2
 70 376 14 334 14 359 c 0
 14 390 36 344 160 416 c 1
 164 416 172 413 173 408 c 1
 172 401 169 389 166 335 c 1
 175 345 232 406 309 406 c 0
 426 406 482 304 482 201 c 0
 482 93 409 -15 273 -15 c 0
 245 -15 204 -4 177 15 c 1
 177 -138 l 2
256 357 m 0
 212 357 174 314 174 287 c 2
 174 113 l 2
 174 71 207 20 256 20 c 0
 329 20 364 105 364 189 c 0
 364 273 330 357 256 357 c 0
EndSplineSet
AlternateSubs2: "'aalt' Access All Alternates lookup 0 subtable" p.ld
AlternateSubs2: "'aalt' Access All Alternates in Latin lookup 0 subtable" p.ld
Substitution2: "'ss01' Style Set 1 in Latin lookup 1 subtable" p.ld
EndChar

StartChar: q
Encoding: 113 113 17
Width: 508
VWidth: 0
Flags: W
HStem: -211 21G<268.5 493.5> -17 42<201.203 314.891> 374 32<190.955 289.305>
VStem: 22 118<94.3864 289.794> 334 104<-184.592 14 37.9985 339.242>
AnchorPoint: "l;bl" 18 12 basechar 0
AnchorPoint: "l;x" 18 383 basechar 0
AnchorPoint: "l;o" 0 200 basechar 0
AnchorPoint: "r;bl" 508 12 basechar 0
AnchorPoint: "r;x" 508 383 basechar 0
AnchorPoint: "r;o" 508 200 basechar 0
AnchorPoint: "r;lo" 508 -200 basechar 0
LayerCount: 3
Fore
SplineSet
331 -138 m 2
 331 14 l 1
 331 14 294 -17 227 -17 c 0
 89 -17 22 85 22 188 c 0
 22 304 94 406 246 406 c 0
 321 406 384 375 388 375 c 1
 424 410 l 2
 425 411 430 412 433 412 c 0
 437 412 440 411 441 408 c 1
 438 358 438 308 438 180 c 2
 438 -139 l 2
 438 -216 494 -181 494 -203 c 0
 494 -206 494 -209 493 -211 c 1
 269 -211 l 1
 268 -209 267 -206 267 -203 c 0
 267 -179.850585938 331 -215 331 -138 c 2
267 25 m 0
 297 25 334 37 334 86 c 2
 334 288 l 2
 334 335 285 374 237 374 c 0
 189 374 140 334 140 214 c 0
 140 60 207 25 267 25 c 0
EndSplineSet
AlternateSubs2: "'aalt' Access All Alternates lookup 0 subtable" q.ld
AlternateSubs2: "'aalt' Access All Alternates in Latin lookup 0 subtable" q.ld
Substitution2: "'ss01' Style Set 1 in Latin lookup 1 subtable" q.ld
EndChar

StartChar: r
Encoding: 114 114 18
Width: 368
VWidth: 0
Flags: W
HStem: 0 21G<14.5 232.5> 330 76<225.917 307.225>
VStem: 70 108<22.6656 316.718>
AnchorPoint: "cedilla" 124 -80 basechar 0
AnchorPoint: "top" 201 544 basechar 0
AnchorPoint: "l;bl" 0 10 basechar 0
AnchorPoint: "l;x" 0 387 basechar 0
AnchorPoint: "l;o" 0 194 basechar 0
AnchorPoint: "r;bl" 317 10 basechar 0
AnchorPoint: "r;x" 368 387 basechar 0
AnchorPoint: "r;o" 326 194 basechar 0
LayerCount: 3
Fore
SplineSet
301 300 m 0
 264 300 259 330 231 330 c 0
 204 330 178 304 178 260 c 2
 178 70 l 2
 178 -4 233 29 233 8 c 0
 233 5 233 2 232 0 c 1
 15 0 l 1
 14 2 14 5 14 8 c 0
 14 30 70 -4 70 73 c 2
 70 279 l 2
 70 367 14 325 14 355 c 0
 14 383 46 355 160 412 c 1
 164 412 171 409 172 404 c 1
 171 397 172 369 169 314 c 1
 177 324 182 334 188 343 c 0
 220 389 254 406 281 406 c 0
 324 406 346 379 346 350 c 0
 346 320 328 300 301 300 c 0
EndSplineSet
Layer: 2
SplineSet
229 330 m 4
 198 330 178 293 178 260 c 6
 178 70 l 6
 178 -4 233 29 233 8 c 4
 233 5 233 2 232 0 c 5
 15 0 l 5
 14 2 14 5 14 8 c 4
 14 30 70 -4 70 73 c 6
 70 279 l 6
 70 367 14 325 14 355 c 4
 14 383 46 355 160 412 c 5
 164 412 171 409 172 404 c 5
 171 397 172 369 169 314 c 5
 177 324 182 334 188 343 c 4
 221 389 253 406 279 406 c 4
 319 406 342 372 342 342 c 4
 342 319 328 292 304 292 c 4
 263 292 266 330 229 330 c 4
EndSplineSet
EndChar

StartChar: s
Encoding: 115 115 19
Width: 367
VWidth: 0
Flags: HW
HStem: -15 34<127.723 216.786> 376 30<164.352 239.772>
VStem: 32 30<108.32 141.659> 42 105<281.942 354.689> 236 97<43.5684 128.387>
AnchorPoint: "cedilla" 180 -82 basechar 0
AnchorPoint: "top" 185 542 basechar 0
AnchorPoint: "l;bl" 0 12 basechar 0
AnchorPoint: "l;x" 13 383 basechar 0
AnchorPoint: "l;o" 13 200 basechar 0
AnchorPoint: "r;bl" 362 12 basechar 0
AnchorPoint: "r;x" 367 383 basechar 0
AnchorPoint: "r;o" 362 200 basechar 0
LayerCount: 3
Fore
SplineSet
231 85 m 0xe8
 231 167 42 184 42 303 c 0
 42 350 96 406 190 406 c 0
 248 406 264 391 281 391 c 0
 287 391 295 393 305 397 c 0
 309 398 314 395 314 392 c 2
 314 332 l 2
 314 318 314 307 315 287 c 1
 308 281 296 281 289 283 c 1
 271 315 255 376 200 376 c 0
 170 376 147 351 147 321 c 0xd8
 147 250 328 233 328 106 c 0
 328 44 277 -15 177 -15 c 0
 122 -15 116 -3 96 -3 c 0
 88 -3 75 -5 57 -11 c 1
 51 -10 46 -8 45 -5 c 0
 44 29 44 70 32 134 c 1
 35 137 40 142 52 142 c 0
 55 142 59 141 62 140 c 1
 97 56 129 19 173 19 c 0
 212 19 231 47 231 85 c 0xe8
EndSplineSet
Layer: 2
SplineSet
169 -13 m 4xd8
 118 -13 114 -3 96 -3 c 4
 88 -3 78 -5 61 -10 c 5
 57 -9 54 -7 53 -4 c 4
 52 29 54 69 42 133 c 5
 45 137 57 143 66 139 c 5xe8
 84 97 111 14 183 14 c 4
 233 14 245 59 245 82 c 4
 245 178 49 175 49 305 c 4
 49 358 89 404 176 404 c 4
 231 404 239 392 255 392 c 4
 261 392 267 394 277 397 c 4
 281 398 286 395 286 392 c 4
 286 332 287 328 292 288 c 5
 287 283 279 282 274 284 c 5
 254 317 234 381 169 381 c 4
 139 381 117 357 117 325 c 4
 117 240 304 242 304 102 c 4
 304 43 261 -13 169 -13 c 4xd8
EndSplineSet
EndChar

StartChar: t
Encoding: 116 116 20
Width: 311
VWidth: 0
Flags: W
HStem: -14 53<124.5 255.685> 342 51<172 290.974>
VStem: 64 108<55.7697 337>
AnchorPoint: "commaright" 249 540 basechar 0
AnchorPoint: "cedilla" 194 -82 basechar 0
AnchorPoint: "l;bl" 0 12 basechar 0
AnchorPoint: "l;x" 0 383 basechar 0
AnchorPoint: "l;o" 0 199 basechar 0
AnchorPoint: "r;bl" 311 12 basechar 0
AnchorPoint: "r;x" 311 383 basechar 0
AnchorPoint: "r;o" 293 199 basechar 0
LayerCount: 3
Fore
SplineSet
172 342 m 1
 172 191 l 2
 172 82 179 39 232 39 c 0
 254 39 274 46 291 52 c 1
 296 48 298 39 298 33 c 1
 268 11 219 -14 174 -14 c 0
 75 -14 64 49 64 190 c 2
 64 337 l 1
 26 338 22 335 22 347 c 0
 22 355 24 356 71 400 c 2
 132 456 l 2
 142 465 155 474 162 474 c 0
 170 474 172 466 172 457 c 2
 172 393 l 1
 281 393 l 2
 291 393 291 388 291 364 c 0
 291 344 282 342 268 342 c 2
 172 342 l 1
EndSplineSet
Layer: 2
SplineSet
148.671875 349 m 5
 148.671875 192 l 6
 148.671875 77 155.671875 32 214.671875 32 c 4
 238.671875 32 261.671875 40 280.671875 46 c 5
 287.671875 41 288.671875 34 287.671875 29 c 5
 259.671875 10 214.671875 -12 172.671875 -12 c 4
 81.671875 -12 71.671875 52 71.671875 196 c 6
 71.671875 344 l 5
 28.671875 345 24.671875 343 24.671875 353 c 4
 24.671875 362 26.671875 361 115.671875 450 c 4
 123.671875 458 129.671875 466 139.671875 466 c 4
 146.671875 466 148.671875 459 148.671875 450 c 6
 148.671875 393 l 5
 269.671875 393 l 6
 280.671875 393 280.671875 389 280.671875 369 c 4
 280.671875 352 270.671875 349 254.671875 349 c 4
 243.671875 349 148.671875 349 148.671875 349 c 5
EndSplineSet
EndChar

StartChar: u
Encoding: 117 117 21
Width: 514
VWidth: 0
Flags: W
HStem: -15 56<141.748 285.68>
VStem: 68 108<71.7364 199 296 353.029> 336 108<58.2013 111 296 353.029>
AnchorPoint: "top" 247 540 basechar 0
AnchorPoint: "l;bl" 18 12 basechar 0
AnchorPoint: "l;x" 0 385 basechar 0
AnchorPoint: "l;o" 9 204 basechar 0
AnchorPoint: "r;bl" 514 12 basechar 0
AnchorPoint: "r;x" 505 385 basechar 0
AnchorPoint: "r;o" 505 204 basechar 0
LayerCount: 3
Fore
SplineSet
209 -15 m 0
 282 -15 321 35 345 56 c 1
 345 -9 l 1
 358 -9 l 1
 464 23 500 3 500 27 c 0
 500 60 444 11 444 111 c 2
 444 321 l 2
 444 325 447 390 447 392 c 0
 445 397 440 402 438 402 c 2
 437 402 l 1
 374 391 384 387 304 385 c 0
 288 385 282 383 282 372 c 0
 282 341 336 383 336 296 c 2
 336 89 l 2
 336 64 295 41 256 41 c 0
 187 41 176 106 176 199 c 2
 176 322 l 2
 176 326 179 390 179 392 c 0
 177 397 172 402 170 402 c 2
 169 402 l 1
 106 391 117 387 36 385 c 0
 20 385 14 383 14 372 c 0
 14 341 68 383 68 296 c 2
 68 176 l 2
 68 85 80 -15 209 -15 c 0
EndSplineSet
EndChar

StartChar: v
Encoding: 118 118 22
Width: 454
VWidth: 0
Flags: W
HStem: -15 21G<194 235.5> 373 20G<14.5 227.5 280.5 439.5>
VStem: 336 104<311 386.5>
AnchorPoint: "l;bl" 48 8 basechar 0
AnchorPoint: "l;x" 0 385 basechar 0
AnchorPoint: "l;o" 12 199 basechar 0
AnchorPoint: "r;bl" 391 8 basechar 0
AnchorPoint: "r;x" 454 385 basechar 0
AnchorPoint: "r;o" 427 199 basechar 0
LayerCount: 3
Back
SplineSet
49 385 m 4
 49 388 49 391 50 393 c 5
 227 393 l 5
 228 391 228 388 228 385 c 4
 228 371 212 377 192 371 c 4
 184 368 177 364 177 356 c 4
 177 332 231 163 257 92 c 5
 274 132 340 296 340 346 c 4
 340 359 335 367 326 370 c 4
 306 377 279 370 279 385 c 4
 279 388 280 391 281 393 c 5
 432 393 l 5
 433 391 433 388 433 385 c 4
 433 369 416 381 398 368 c 4
 385 359 377 341 367 315 c 6
 367 315 280 84 273 66 c 4
 254 20 246 -15 233 -15 c 6
 231 -15 l 6
 219 -15 222 -14 192 66 c 4
 137 213 101 334 93 350 c 4
 72 396 49 363 49 385 c 4
EndSplineSet
Fore
SplineSet
14 385 m 0
 14 388 14 391 15 393 c 1
 227 393 l 1
 228 391 228 388 228 385 c 0
 228 366 180 380 180 346 c 0
 180 322 231 163 257 92 c 1
 274 132 336 286 336 336 c 0
 336 385 279 362 279 385 c 0
 279 388 280 391 281 393 c 1
 439 393 l 1
 440 391 440 388 440 385 c 0
 440 359 405 398 370 305 c 2
 261 19 l 2
 249 -12 246 -15 225 -15 c 2
 209 -15 l 2
 179 -15 184 -12 155 66 c 0
 100 213 69 324 61 340 c 0
 40 386 14 363 14 385 c 0
EndSplineSet
EndChar

StartChar: w
Encoding: 119 119 23
Width: 684
VWidth: 0
Flags: HW
AnchorPoint: "r;o" 657 199 basechar 0
AnchorPoint: "r;x" 684 385 basechar 0
AnchorPoint: "r;bl" 621 8 basechar 0
AnchorPoint: "l;o" 12 199 basechar 0
AnchorPoint: "l;x" 0 385 basechar 0
AnchorPoint: "l;bl" 48 8 basechar 0
AnchorPoint: "top" 343 540 basechar 0
LayerCount: 3
Fore
SplineSet
14 385 m 0
 14 388 14 391 15 393 c 1
 227 393 l 1
 228 391 228 388 228 385 c 0
 228 366 180 380 180 346 c 0
 180 322 231 163 257 92 c 1
 268 115 307 200 329 263 c 1
 318 306 310 332 306 340 c 0
 285 386 259 363 259 385 c 0
 259 388 259 391 260 393 c 1
 472 393 l 1
 473 391 473 388 473 385 c 0
 473 366 425 380 425 346 c 0
 425 322 465 164 487 92 c 1
 504 132 566 286 566 336 c 0
 566 385 509 362 509 385 c 0
 509 388 510 391 511 393 c 1
 669 393 l 1
 670 391 670 388 670 385 c 0
 670 359 635 398 600 305 c 2
 491 19 l 2
 479 -12 476 -15 455 -15 c 2
 439 -15 l 2
 411 -15 412 -12 388 66 c 2
 341 218 l 1
 293 102 l 2
 247 -9 254 -15 225 -15 c 2
 209 -15 l 2
 179 -15 184 -12 155 66 c 0
 100 213 69 324 61 340 c 0
 40 386 14 363 14 385 c 0
EndSplineSet
Layer: 2
SplineSet
14 385 m 4
 14 388 14 391 15 393 c 5
 227 393 l 5
 228 391 228 388 228 385 c 4
 228 366 180 380 180 346 c 4
 180 322 231 163 257 92 c 5
 268 119 299 196 319 259 c 5
 304 303 295 332 291 340 c 4
 270 386 244 363 244 385 c 4
 244 388 244 391 245 393 c 5
 457 393 l 5
 458 391 458 388 458 385 c 4
 458 366 410 380 410 346 c 4
 410 322 461 163 487 92 c 5
 504 132 566 286 566 336 c 4
 566 385 509 362 509 385 c 4
 509 388 510 391 511 393 c 5
 669 393 l 5
 670 391 670 388 670 385 c 4
 670 359 635 398 600 305 c 6
 491 19 l 6
 479 -12 476 -15 455 -15 c 6
 439 -15 l 6
 409 -15 412 -10 385 66 c 6
 335 212 l 5
 261 19 l 6
 249 -12 246 -15 225 -15 c 6
 209 -15 l 6
 179 -15 184 -12 155 66 c 4
 100 213 69 324 61 340 c 4
 40 386 14 363 14 385 c 4
EndSplineSet
EndChar

StartChar: x
Encoding: 120 120 24
Width: 462
VWidth: 0
Flags: W
HStem: 0 21G<27.5 192.5 224.5 445.5> 373 20G<22.5 233.5 266.5 427.5>
DStem2: 210 311 105 312 0.539263 -0.842137<-40.2329 65.1918 135.887 255.412> 146 129 184 117 0.61421 0.789143<-74.6135 54.4781 161.028 265.333>
AnchorPoint: "l;bl" 0 10 basechar 0
AnchorPoint: "l;x" 0 385 basechar 0
AnchorPoint: "l;o" 18 200 basechar 0
AnchorPoint: "r;bl" 462 10 basechar 0
AnchorPoint: "r;x" 462 385 basechar 0
AnchorPoint: "r;o" 443 200 basechar 0
LayerCount: 3
Back
SplineSet
137 41 m 4
 137 16 193 26 193 8 c 4
 193 5 193 2 192 0 c 5
 28 0 l 5
 27 2 26 5 26 8 c 4
 26 22 49 20 66 30 c 4
 83 40 103 64 146 129 c 6
 167 156 l 5
 188 183 l 5
 164 219 l 5
 105 312 l 6
 96 327 87 343 79 352 c 4
 50.8408203125 386.78515625 22 364.622070312 22 385 c 4
 22 388 22 391 23 393 c 5
 233 393 l 5
 234 391 235 388 235 385 c 4
 235 368.028320312 194 380.434570312 194 354 c 4
 194 344 200 330 210 311 c 6
 232 276 l 5
 245 256 l 5
 261 276 l 6
 292 325 301 343 301 354 c 4
 301 379.889648438 265 367.611328125 265 385 c 4
 265 388 266 391 267 393 c 5
 427 393 l 5
 428 391 429 388 429 385 c 4
 429 357.784179688 394.692382812 403.041015625 347 325 c 5
 267 222 l 5
 356 83 l 6
 360 77 376 51 396 35 c 4
 420 16 447 24 447 8 c 4
 447 5 446 2 445 0 c 5
 225 0 l 5
 224 2 223 5 223 8 c 4
 223 27 265 5 265 42 c 4
 265 61 231 112 221 130 c 6
 209 149 l 5
 184 117 l 6
 163 84 137 50 137 41 c 4
EndSplineSet
Fore
SplineSet
137 41 m 0
 137 16 193 26 193 8 c 0
 193 5 193 2 192 0 c 1
 28 0 l 1
 27 2 26 5 26 8 c 0
 26 22 49 20 66 30 c 0
 83 40 103 64 146 129 c 2
 167 156 l 1
 188 183 l 1
 164 219 l 1
 105 312 l 2
 96 327 87 338 79 347 c 0
 50.8408203125 381.78515625 22 364.622070312 22 385 c 0
 22 388 22 391 23 393 c 1
 233 393 l 1
 234 391 235 388 235 385 c 0
 235 368.028320312 194 375.434570312 194 349 c 0
 194 339 200 330 210 311 c 2
 232 276 l 1
 245 256 l 1
 261 276 l 2
 292 325 296 338 296 349 c 0
 296 374.889648438 265 367.611328125 265 385 c 0
 265 388 266 391 267 393 c 1
 427 393 l 1
 428 391 429 388 429 385 c 0
 429 357.784179688 389.692382812 398.041015625 342 320 c 1
 267 222 l 1
 356 83 l 2
 360 77 376 51 396 35 c 0
 420 16 447 24 447 8 c 0
 447 5 446 2 445 0 c 1
 225 0 l 1
 224 2 223 5 223 8 c 0
 223 27 265 5 265 42 c 0
 265 61 231 112 221 130 c 2
 209 149 l 1
 184 117 l 2
 163 84 137 50 137 41 c 0
EndSplineSet
EndChar

StartChar: y
Encoding: 121 121 25
Width: 446
VWidth: 0
Flags: W
HStem: -227 97<66.7678 126.593> 373 20G<14.5 195.5 278.5 431.5>
VStem: 337 95<333 386.5>
AnchorPoint: "l;o" 9 204 basechar 0
AnchorPoint: "l;x" 0 385 basechar 0
AnchorPoint: "l;bl" 27 19 basechar 0
AnchorPoint: "r;o" 401 204 basechar 0
AnchorPoint: "r;x" 446 385 basechar 0
AnchorPoint: "r;bl" 356 19 basechar 0
AnchorPoint: "top" 231 540 basechar 0
AnchorPoint: "l;lo" 18 -198 basechar 0
LayerCount: 3
Back
SplineSet
125 -130 m 4
 142 -130 187 -33 187 4 c 4
 187 24 177 29 95 252 c 4
 65 333 63 342 58 351 c 4
 37 397 14 364 14 385 c 4
 14 388 14 391 15 393 c 5
 195 393 l 5
 196 391 196 388 196 385 c 4
 196 371 180 378 160 372 c 4
 152 369 145 365 145 357 c 4
 145 336 173 239 214 132 c 4
 224 105 227 91 231 91 c 4
 235 91 238 105 251 132 c 4
 309 254 339 328 339 348 c 4
 339 357 336 368 325 371 c 4
 305 378 278 370 278 385 c 4
 278 388 278 391 279 393 c 5
 431 393 l 5
 432 391 432 388 432 385 c 4
 432 369 414 381 396 368 c 4
 389 363 367 324 353 294 c 12
 278 132 212 -36 174 -117 c 4
 128 -216 117 -227 84 -227 c 4
 55 -227 42 -197 42 -170 c 4
 42 -141 57 -113 82 -113 c 4
 109 -113 113 -130 125 -130 c 4
EndSplineSet
Fore
SplineSet
125 -130 m 0
 142 -130 187 -33 187 4 c 0
 187 24 177 29 95 252 c 0
 65 333 65 337 60 346 c 0
 39 392 14 364 14 385 c 0
 14 388 14 391 15 393 c 1
 195 393 l 1
 196 391 196 388 196 385 c 0
 196 367 147 378 147 352 c 0
 147 331 173 239 214 132 c 0
 224 105 227 91 231 91 c 0
 235 91 238 105 251 132 c 0
 309 254 337 323 337 343 c 0
 337 385 278 363 278 385 c 0
 278 388 278 391 279 393 c 1
 431 393 l 1
 432 391 432 388 432 385 c 0
 432 363 406 408 353 294 c 8
 279 136 212 -36 174 -117 c 0
 128 -216 117 -227 84 -227 c 0
 55 -227 42 -197 42 -170 c 0
 42 -141 57 -113 82 -113 c 0
 109 -113 113 -130 125 -130 c 0
EndSplineSet
AlternateSubs2: "'aalt' Access All Alternates lookup 0 subtable" y.ld
AlternateSubs2: "'aalt' Access All Alternates in Latin lookup 0 subtable" y.ld
Substitution2: "'ss01' Style Set 1 in Latin lookup 1 subtable" y.ld
EndChar

StartChar: z
Encoding: 122 122 26
Width: 438
VWidth: 0
Flags: W
HStem: 0 36<176 346.142> 359 34<108.25 262.136>
DStem2: 35 37 172 42 0.5845 0.811394<84.1334 389.082>
AnchorPoint: "top" 239 544 basechar 0
AnchorPoint: "l;bl" 18 9 basechar 0
AnchorPoint: "l;x" 0 386 basechar 0
AnchorPoint: "l;o" 0 200 basechar 0
AnchorPoint: "r;bl" 438 9 basechar 0
AnchorPoint: "r;x" 438 386 basechar 0
AnchorPoint: "r;o" 438 200 basechar 0
LayerCount: 3
Fore
SplineSet
387 -3 m 2
 386 -7 383 -8 379 -8 c 0
 364 -8 320 0 305 0 c 2
 49 0 l 2
 35 0 31 2 31 11 c 0
 31 17 33 31 35 37 c 2
 262 353 l 2
 265 356 262 359 259 359 c 2
 177 359 l 2
 107 359 103 340 59 284 c 1
 50 280 35 286 32 291 c 1
 43 319 57 362 69 411 c 0
 70 414 74 416 78 416 c 1
 109 401 l 2
 123 395 128 393 138 393 c 2
 395 393 l 2
 409 393 413 389 413 384 c 0
 413 379 411 374 409 371 c 2
 172 42 l 2
 168 37 169 36 176 36 c 2
 246 36 l 2
 309 36 333 41 352 58 c 0
 368 72 401 124 409 124 c 0
 416 124 425 121 425 116 c 0
 425 115 421 103 411 74 c 2
 387 -3 l 2
EndSplineSet
EndChar

StartChar: A
Encoding: 65 65 27
Width: 759
VWidth: 0
Flags: W
HStem: 0 21G<30.5 301.5 456.5 736.5> 236 44<275.094 446.999> 629 20G<390 409.5>
VStem: 359 3<515 538.997>
DStem2: 470 540 359 515 0.366008 -0.930612<-38.9617 229.687 274.156 478.903>
AnchorPoint: "top" 388 732 basechar 0
AnchorPoint: "l;bl" 0 10 basechar 0
AnchorPoint: "l;x" 97 388 basechar 0
AnchorPoint: "l;hi" 167 612 basechar 0
AnchorPoint: "l;o" 55 197 basechar 0
AnchorPoint: "r;bl" 759 10 basechar 0
AnchorPoint: "r;x" 671 388 basechar 0
AnchorPoint: "r;hi" 641 612 basechar 0
AnchorPoint: "r;o" 702 197 basechar 0
LayerCount: 3
Fore
SplineSet
362 515 m 2
 281 308 l 2
 278 299 274 288 275 285 c 0
 277 278 280 280 285 280 c 2
 433 280 l 2
 446 280 447 281 447 284 c 0
 447 287 447 291 445 297 c 2
 359 515 l 2
 360 535 361 539 361 539 c 0
 361 539 361 535 362 515 c 2
455 10 m 0
 455 35 527 -5 527 47 c 0
 527 64 522 92 475 219 c 0
 469 235 468 236 455 236 c 2
 265 236 l 2
 253 236 252 235 247 222 c 2
 204 112 l 2
 193 83 188 66 188 53 c 0
 188 43 190 37 194 33 c 0
 212 14 303 33 303 10 c 0
 303 6 302 2 301 0 c 1
 31 0 l 1
 30 2 27 6 27 10 c 0
 27 29 78 10 113 37 c 0
 124 45 136 59 146 78 c 0
 230 275 322 529 360 624 c 0
 371 645 381 649 399 649 c 0
 420 649 429 642 430 640 c 2
 470 540 l 2
 650 78 623 138 653 73 c 0
 659 58 666 40 683 29 c 0
 698 20 738 27 738 10 c 0
 738 6 737 2 736 0 c 1
 457 0 l 1
 456 2 455 6 455 10 c 0
EndSplineSet
EndChar

StartChar: B
Encoding: 66 66 28
Width: 611
VWidth: 0
Flags: W
HStem: 0 36<238.471 372.922> 324 31<235 332.602> 606 30<238.021 341.756>
VStem: 105 130<38.6417 324 355 605.374> 397 127<426.184 561.645> 435 140<87.4566 250.04>
AnchorPoint: "l;bl" 0 12 basechar 0
AnchorPoint: "l;x" 18 387 basechar 0
AnchorPoint: "l;hi" 0 605 basechar 0
AnchorPoint: "l;o" 18 201 basechar 0
AnchorPoint: "r;bl" 602 12 basechar 0
AnchorPoint: "r;x" 602 387 basechar 0
AnchorPoint: "r;hi" 602 605 basechar 0
AnchorPoint: "r;o" 611 201 basechar 0
LayerCount: 3
Fore
SplineSet
265 355 m 2xf8
 336 355 397 397 397 486 c 0
 397 564 350 606 291 606 c 2
 275 606 l 2
 241 606 235 605 235 557 c 2
 235 355 l 1
 265 355 l 2xf8
105 561 m 2
 105 655 27 599 27 626 c 0
 27 630 29 634 30 636 c 1
 277 636 l 2
 390 636 524 633 524 489 c 0xf8
 524 370 342 344 342 344 c 1
 342 344 575 338 575 173 c 0xf4
 575 12 413 0 258 0 c 2
 30 0 l 1
 29 2 27 6 27 10 c 0
 27 37 105 -19 105 75 c 2
 105 561 l 2
435 172 m 0xf4
 435 276 365 324 289 324 c 2
 235 324 l 1
 235 89 l 2
 235 45 243 36 267 36 c 2
 298 36 l 2
 408 36 435 102 435 172 c 0xf4
EndSplineSet
EndChar

StartChar: C
Encoding: 67 67 29
Width: 678
VWidth: 0
Flags: W
HStem: -25 38<334.44 502.518> 626 32<336.498 483.657>
VStem: 36 147<190.055 426.473> 605 28<466.263 508.698>
AnchorPoint: "l;o" 0 201 basechar 0
AnchorPoint: "l;hi" 50 609 basechar 0
AnchorPoint: "l;x" 0 385 basechar 0
AnchorPoint: "l;bl" 50 12 basechar 0
AnchorPoint: "cedilla" 403 -84 basechar 0
AnchorPoint: "top" 402 734 basechar 0
AnchorPoint: "r;bl" 678 12 basechar 0
AnchorPoint: "r;x" 678 385 basechar 0
AnchorPoint: "r;hi" 678 609 basechar 0
AnchorPoint: "r;o" 678 201 basechar 0
LayerCount: 3
Fore
SplineSet
589 600 m 0
 594 600 599 622 611 622 c 0
 622 622 622 617 623 602 c 0
 627 537 633 489 633 477 c 0
 633 468 633 467 620 465 c 0
 607 463 606 470 605 473 c 0
 589 540 514 626 412 626 c 0
 262 626 183 486 183 314 c 0
 183 109 303 13 419 13 c 0
 548 13 599 125 616 159 c 0
 620 166 621 168 625 168 c 0
 629 168 630 166 630 162 c 2
 622 54 l 2
 620 22 615 26 594 22 c 0
 581 20 566 17 558 13 c 0
 494 -15 439 -25 387 -25 c 0
 160 -25 36 140 36 308 c 0
 36 473 155 658 391 658 c 0
 499 658 587 600 589 600 c 0
EndSplineSet
EndChar

StartChar: D
Encoding: 68 68 30
Width: 753
VWidth: 0
Flags: W
HStem: 0 37<238.735 410.824> 602 34<237.277 412.704>
VStem: 105 130<41.035 597.358> 564 153<204.16 440.566>
AnchorPoint: "l;bl" 0 12 basechar 0
AnchorPoint: "l;x" 18 384 basechar 0
AnchorPoint: "l;hi" 0 604 basechar 0
AnchorPoint: "l;o" 18 202 basechar 0
AnchorPoint: "r;bl" 717 12 basechar 0
AnchorPoint: "r;x" 753 384 basechar 0
AnchorPoint: "r;hi" 717 604 basechar 0
AnchorPoint: "r;o" 753 202 basechar 0
LayerCount: 3
Fore
SplineSet
30 0 m 1
 29 2 27 6 27 10 c 0
 27 37 105 -19 105 75 c 2
 105 561 l 2
 105 655 27 599 27 626 c 0
 27 630 29 634 30 636 c 1
 283 636 l 2
 403 636 469 629 543 600 c 0
 660 553 717 441 717 322 c 0
 717 182 636 44 444 9 c 0
 396 0 323 0 275 0 c 2
 30 0 l 1
235 558 m 2
 235 90 l 2
 235 38 244 37 298 37 c 0
 516 37 564 194 564 312 c 0
 564 457 496 529 466 554 c 0
 418 596 357 602 303 602 c 0
 236 602 235 597 235 558 c 2
EndSplineSet
EndChar

StartChar: E
Encoding: 69 69 31
Width: 590
VWidth: 0
Flags: W
HStem: 0 32<235.304 475.09> 305 26<235 351.371> 604 32<235.719 436.188>
VStem: 105 303<204.616 445.378> 105 130<34.3329 304.858 331 603.593> 386 29<195.001 267.625 370.86 454.999> 531 18<128.168 138.762>
CounterMasks: 1 e0
AnchorPoint: "top" 318 730 basechar 0
AnchorPoint: "l;bl" 0 12 basechar 0
AnchorPoint: "l;x" 18 386 basechar 0
AnchorPoint: "l;hi" 0 605 basechar 0
AnchorPoint: "l;o" 18 200 basechar 0
AnchorPoint: "r;bl" 590 12 basechar 0
AnchorPoint: "r;x" 572 386 basechar 0
AnchorPoint: "r;hi" 572 605 basechar 0
AnchorPoint: "r;o" 590 200 basechar 0
LayerCount: 3
Fore
SplineSet
408 321 m 0xf2
 408 239 415 217 415 204 c 0
 415 196 412 195 401 195 c 0
 390 195 387 196 386 204 c 0
 381 239 378 305 313 305 c 6
 267 305 l 2
 252 305 235 305 235 294 c 2
 235 53 l 2
 235 43 237 32 266 32 c 2
 440 32 l 2
 474 32 478 46 531 141 c 0
 534 145 537 149 545 147 c 0
 553 145 554 145 554 139 c 0
 554 134 552 124 549 111 c 0
 534 41 529 0 516 0 c 2
 30 0 l 1
 29 2 27 6 27 10 c 0
 27 37 105 -19 105 75 c 2
 105 561 l 2
 105 655 27 599 27 626 c 0
 27 630 29 634 30 636 c 1
 383 636 l 2
 432 636 474 641 484 641 c 0
 500 641 493 629 504 561 c 0
 508 534 513 507 513 494 c 0
 513 487 509 486 506 485 c 0
 499 481 494 492 493 493 c 0
 479 514 440 604 416 604 c 2
 253 604 l 2
 242 604 235 595 235 581 c 2
 235 340 l 2
 235 332 244 331 257 331 c 2
 313 331 l 2
 383 331 381 411 386 446 c 0
 387 454 390 455 401 455 c 0
 412 455 415 454 415 446 c 0xee
 415 433 408 403 408 321 c 0xf2
EndSplineSet
EndChar

StartChar: F
Encoding: 70 70 32
Width: 573
VWidth: 0
Flags: W
HStem: 0 21G<29.5 320.5> 294 27<235 351.23> 604 32<235.837 446.36>
VStem: 105 304<191.618 431.38> 105 130<23.7097 293.858 321 603.593> 387 29<181.001 251.022 356.928 440.999>
AnchorPoint: "l;bl" 0 10 basechar 0
AnchorPoint: "l;x" 18 384 basechar 0
AnchorPoint: "l;hi" 0 605 basechar 0
AnchorPoint: "l;o" 18 196 basechar 0
AnchorPoint: "r;bl" 429 10 basechar 0
AnchorPoint: "r;x" 555 384 basechar 0
AnchorPoint: "r;hi" 573 605 basechar 0
AnchorPoint: "r;o" 501 196 basechar 0
LayerCount: 3
Fore
SplineSet
314 294 m 2xe4
 267 294 l 2
 252 294 235 294 235 283 c 2
 235 74 l 2
 235 -17 322 35 322 10 c 0
 322 6 321 2 320 0 c 1
 30 0 l 1
 29 2 27 6 27 10 c 0
 27 37 105 -19 105 75 c 2
 105 561 l 2
 105 655 27 599 27 626 c 0
 27 630 29 634 30 636 c 1
 383 636 l 2
 432 636 482 642 492 642 c 0
 503 642 508 635 511 618 c 0
 515 597 537 513 537 509 c 0
 537 504 529 494 518 512 c 0
 501 534 443 604 416 604 c 2
 251 604 l 2
 240 604 235 593 235 579 c 2
 235 330 l 2
 235 322 244 321 257 321 c 2
 314 321 l 2
 386 321 382 397 387 432 c 0
 388 440 391 441 402 441 c 0
 413 441 416 440 416 432 c 0xec
 416 419 409 392 409 310 c 0xf0
 409 228 416 204 416 191 c 0
 416 183 413 181 402 181 c 0
 391 181 388 182 387 190 c 0
 382 225 375 294 314 294 c 2xe4
EndSplineSet
EndChar

StartChar: G
Encoding: 71 71 33
Width: 796
VWidth: 0
Flags: W
HStem: -26 40<333.875 519.16> 32 33<695.003 735.999> 624 34<347.29 535.965>
VStem: 36 144<188.104 432.388> 566 116<69.2848 244.107> 673 29<449.861 488.006>
AnchorPoint: "l;bl" 50 13 basechar 0
AnchorPoint: "l;x" 0 386 basechar 0
AnchorPoint: "l;hi" 50 608 basechar 0
AnchorPoint: "l;o" 0 203 basechar 0
AnchorPoint: "cedilla" 427 -84 basechar 0
AnchorPoint: "top" 414 734 basechar 0
AnchorPoint: "r;bl" 787 13 basechar 0
AnchorPoint: "r;x" 796 386 basechar 0
AnchorPoint: "r;hi" 778 608 basechar 0
AnchorPoint: "r;o" 796 203 basechar 0
LayerCount: 3
Fore
SplineSet
180 325 m 0xf4
 180 131 279 14 427 14 c 0
 480 14 532 35 550 52 c 0
 563 65 566 83 566 102 c 2
 566 188 l 2
 566 225 554 241 534 250 c 0
 499 266 442 253 442 272 c 0
 442 276 443 280 444 282 c 1
 766 282 l 1
 767 280 769 276 769 272 c 0
 769 245 682 302 682 208 c 2
 682 128 l 2xf8
 682 67 705 68 719 65 c 0
 735 60 736 61 736 49 c 0
 736 37 735 39 702 32 c 0
 551 5 512 -26 414 -26 c 0
 163 -26 36 127 36 312 c 0
 36 486 165 658 419 658 c 0
 559 658 636 595 638 595 c 0
 643 595 672 606 681 606 c 0
 687 606 693 602 693 587 c 0
 693 579 692 580 692 546 c 0
 692 520 702 467 702 458 c 0
 702 452 702 451 691 449 c 0
 679 447 674 454 673 457 c 0
 640 540 589 624 443 624 c 0
 241 624 180 455 180 325 c 0xf4
EndSplineSet
EndChar

StartChar: H
Encoding: 72 72 34
Width: 806
VWidth: 0
Flags: W
HStem: 0 21G<29.5 321.5 485.5 777.5> 304 38<235 571> 616 20G<28.5 320.5 484.5 776.5>
VStem: 105 130<23.7097 304 342 613.058> 571 130<22.9417 304 342 614.228>
AnchorPoint: "top" 403 730 basechar 0
AnchorPoint: "l;bl" 0 10 basechar 0
AnchorPoint: "l;x" 18 388 basechar 0
AnchorPoint: "l;hi" 0 610 basechar 0
AnchorPoint: "l;o" 18 198 basechar 0
AnchorPoint: "r;bl" 806 10 basechar 0
AnchorPoint: "r;x" 788 388 basechar 0
AnchorPoint: "r;hi" 806 610 basechar 0
AnchorPoint: "r;o" 788 198 basechar 0
LayerCount: 3
Fore
SplineSet
484 626 m 0
 484 630 484 634 485 636 c 1
 776 636 l 1
 777 634 779 630 779 626 c 0
 779 599 701 655 701 561 c 2
 701 75 l 2
 701 -16 779 36 779 10 c 0
 779 6 778 2 777 0 c 1
 486 0 l 1
 485 2 484 6 484 10 c 0
 484 37 571 -20 571 74 c 2
 571 304 l 1
 235 304 l 1
 235 74 l 2
 235 -17 322 36 322 10 c 0
 322 6 322 2 321 0 c 1
 30 0 l 1
 29 2 27 6 27 10 c 0
 27 37 105 -19 105 75 c 2
 105 561 l 2
 105 652 27 600 27 626 c 0
 27 630 28 634 29 636 c 1
 320 636 l 1
 321 634 322 630 322 626 c 0
 322 599 235 656 235 562 c 2
 235 342 l 1
 571 342 l 1
 571 562 l 2
 571 656 484 600 484 626 c 0
EndSplineSet
EndChar

StartChar: I
Encoding: 73 73 35
Width: 340
VWidth: 0
Flags: W
HStem: 0 21G<29.5 311.5> 616 20G<28.5 310.5>
VStem: 105 130<22.8719 613.128>
AnchorPoint: "top" 172 730 basechar 0
AnchorPoint: "l;bl" 0 10 basechar 0
AnchorPoint: "l;x" 18 385 basechar 0
AnchorPoint: "l;hi" 0 610 basechar 0
AnchorPoint: "l;o" 18 200 basechar 0
AnchorPoint: "r;bl" 340 10 basechar 0
AnchorPoint: "r;x" 322 385 basechar 0
AnchorPoint: "r;hi" 340 610 basechar 0
AnchorPoint: "r;o" 322 200 basechar 0
LayerCount: 3
Fore
SplineSet
235 561 m 2
 235 75 l 2
 235 -16 313 36 313 10 c 0
 313 6 312 2 311 0 c 1
 30 0 l 1
 29 2 27 6 27 10 c 0
 27 37 105 -19 105 75 c 2
 105 561 l 2
 105 652 27 600 27 626 c 0
 27 630 28 634 29 636 c 1
 310 636 l 1
 311 634 313 630 313 626 c 0
 313 599 235 655 235 561 c 2
EndSplineSet
EndChar

StartChar: J
Encoding: 74 74 36
Width: 341
VWidth: 0
Flags: W
HStem: -211 91<-20.5 83.5> 616 20G<28.5 311.5>
VStem: 106 130<-37.0078 614.088>
AnchorPoint: "top" 171 730 basechar 0
AnchorPoint: "l;bl" 0 22 basechar 0
AnchorPoint: "l;x" 18 390 basechar 0
AnchorPoint: "l;hi" 0 610 basechar 0
AnchorPoint: "l;o" 18 208 basechar 0
AnchorPoint: "l;k;lo" -81 -198 basechar 0
AnchorPoint: "r;bl" 323 22 basechar 0
AnchorPoint: "r;x" 323 390 basechar 0
AnchorPoint: "r;hi" 341 610 basechar 0
AnchorPoint: "r;o" 323 208 basechar 0
AnchorPoint: "r;lo" 242 -198 basechar 0
LayerCount: 3
Fore
SplineSet
106 562 m 2
 106 653 27 601 27 626 c 0
 27 630 28 634 29 636 c 1
 311 636 l 1
 312 634 314 630 314 626 c 0
 314 599 236 655 236 561 c 2
 236 118 l 2
 236 31 234 -87 105 -170 c 0
 64 -197 21 -211 3 -211 c 0
 -44 -211 -70 -171 -70 -135 c 0
 -70 -102 -55 -72 -21 -72 c 0
 29 -72 38 -120 72 -120 c 0
 95 -120 106 -68 106 138 c 2
 106 562 l 2
EndSplineSet
EndChar

StartChar: K
Encoding: 75 75 37
Width: 749
VWidth: 0
Flags: W
HStem: 0 21G<29.5 322.5 421.5 733.5> 301 28<235 283.593> 616 20G<28.5 329.5 444.5 677.5>
VStem: 105 130<24.0696 300 330 611.942>
DStem2: 414 325 305 267 0.658085 -0.752944<-55.4058 258.639>
AnchorPoint: "cedilla" 376 -80 basechar 0
AnchorPoint: "l;bl" 0 10 basechar 0
AnchorPoint: "l;x" 18 387 basechar 0
AnchorPoint: "l;hi" 0 610 basechar 0
AnchorPoint: "l;o" 18 198 basechar 0
AnchorPoint: "r;bl" 749 10 basechar 0
AnchorPoint: "r;x" 670 387 basechar 0
AnchorPoint: "r;hi" 717 610 basechar 0
AnchorPoint: "r;o" 690 198 basechar 0
LayerCount: 3
Fore
SplineSet
520 588 m 0
 520 626 443 606 443 626 c 0
 443 630 444 634 445 636 c 1
 677 636 l 1
 678 634 680 630 680 626 c 0
 680 610 658 619 628 609 c 0
 580 593 548 557 515 521 c 2
 404 398 l 2
 390 382 382 377 382 371 c 0
 382 363 392 353 414 325 c 2
 636 71 l 2
 689 -12 735 31 735 10 c 0
 735 6 734 2 733 0 c 1
 422 0 l 1
 421 2 419 6 419 10 c 0
 419 32 486 11 486 44 c 0
 486 53 482 63 468 81 c 2
 305 267 l 2
 292 287 278 301 248 301 c 0
 244 301 239 300 235 300 c 1
 235 74 l 2
 235 -17 324 36 324 10 c 0
 324 6 323 2 322 0 c 1
 30 0 l 1
 29 2 27 6 27 10 c 0
 27 37 105 -19 105 75 c 2
 105 561 l 2
 105 652 27 600 27 626 c 0
 27 630 28 634 29 636 c 1
 329 636 l 1
 330 634 332 630 332 626 c 0
 332 599 235 656 235 562 c 2
 235 330 l 1
 241 330 245 329 250 329 c 0
 287 329 335 385 489 544 c 0
 495 551 520 571 520 588 c 0
EndSplineSet
EndChar

StartChar: L
Encoding: 76 76 38
Width: 600
VWidth: 0
Flags: W
HStem: 0 41<235.04 486.375> 616 20G<28.5 311.5>
VStem: 105 130<41.9743 613.058> 547 17<156.572 178.125>
AnchorPoint: "commaright" 340 541 basechar 0
AnchorPoint: "cedilla" 341 -80 basechar 0
AnchorPoint: "top" 172 730 basechar 0
AnchorPoint: "l;bl" 0 12 basechar 0
AnchorPoint: "l;x" 18 388 basechar 0
AnchorPoint: "l;hi" 0 610 basechar 0
AnchorPoint: "l;o" 18 205 basechar 0
AnchorPoint: "r;bl" 582 12 basechar 0
AnchorPoint: "r;x" 546 388 basechar 0
AnchorPoint: "r;hi" 492 610 basechar 0
AnchorPoint: "r;o" 600 205 basechar 0
LayerCount: 3
Fore
SplineSet
29 0 m 1
 28 2 27 6 27 10 c 0
 27 36 105 -16 105 75 c 2
 105 561 l 2
 105 652 27 600 27 626 c 0
 27 630 28 634 29 636 c 1
 311 636 l 1
 312 634 313 630 313 626 c 0
 313 599 235 656 235 562 c 2
 235 63 l 2
 235 52 241 41 257 41 c 2
 443 41 l 2
 480 41 487 51 547 173 c 0
 551 183 564 179 564 167 c 0
 564 165 564 143 552 83 c 0
 540 26 539 0 523 0 c 2
 29 0 l 1
EndSplineSet
EndChar

StartChar: N
Encoding: 78 78 39
Width: 792
VWidth: 0
Flags: W
HStem: 0 9G<44.5 274.5 653.5 665.5> 616 20G<13.5 205 527.5 762.5>
VStem: 128 46<34.8677 321.816> 643 36<246.137 584.01>
DStem2: 242 607 58 604 0.683623 -0.729835<-59.0956 18.8542 30.0596 601.873>
AnchorPoint: "top" 405 730 basechar 0
AnchorPoint: "l;bl" 0 10 basechar 0
AnchorPoint: "l;x" 18 385 basechar 0
AnchorPoint: "l;hi" 0 610 basechar 0
AnchorPoint: "l;o" 18 200 basechar 0
AnchorPoint: "r;bl" 774 10 basechar 0
AnchorPoint: "r;x" 774 385 basechar 0
AnchorPoint: "r;hi" 792 610 basechar 0
AnchorPoint: "r;o" 774 200 basechar 0
LayerCount: 3
Fore
SplineSet
11 626 m 0
 11 630 13 634 14 636 c 1
 195 636 l 2
 215 636 218 629 242 607 c 2
 610 211 l 2
 629 177 640 156 641 156 c 0
 642 156 643 200 643 446 c 0
 643 541 643 590 596 607 c 0
 565 618 526 609 526 626 c 0
 526 630 527 634 528 636 c 1
 762 636 l 1
 763 634 765 630 765 626 c 0
 765 609 733 621 707 605 c 0
 678 587 679 543 679 412 c 2
 677 14 l 2
 677 -12 666 -12 665 -12 c 2
 658 -12 l 2
 649 -12 683 -10 487 146 c 2
 214 440 l 2
 192 480 178 505 177 505 c 0
 176 505 174 226 174 153 c 0
 174 124 175 100 175 85 c 0
 177 50 189 37 197 32 c 0
 220 16 276 30 276 10 c 0
 276 6 275 2 274 0 c 1
 45 0 l 1
 44 2 42 6 42 10 c 0
 42 30 86 13 109 37 c 0
 123 53 127 71 128 110 c 0
 136 235 140 342 140 425 c 2
 140 522 l 2
 140 533 140 539 108 554 c 2
 88 575 l 2
 76 589 66 598 58 604 c 0
 33 621 11 609 11 626 c 0
EndSplineSet
EndChar

StartChar: O
Encoding: 79 79 40
Width: 769
VWidth: 0
Flags: W
HStem: -26 40<322.646 480.256> 620 38<316.194 459.731>
VStem: 36 153<195.503 436.648> 597 136<190.092 449.232>
AnchorPoint: "top" 388 734 basechar 0
AnchorPoint: "l;bl" 50 13 basechar 0
AnchorPoint: "l;x" 0 385 basechar 0
AnchorPoint: "l;hi" 50 608 basechar 0
AnchorPoint: "l;o" 0 201 basechar 0
AnchorPoint: "r;bl" 719 13 basechar 0
AnchorPoint: "r;x" 769 385 basechar 0
AnchorPoint: "r;hi" 719 608 basechar 0
AnchorPoint: "r;o" 769 201 basechar 0
LayerCount: 3
Fore
SplineSet
388 620 m 0
 248 620 189 457 189 330 c 0
 189 187 251 14 401 14 c 0
 478 14 597 62 597 304 c 0
 597 517 496 620 388 620 c 0
382 658 m 0
 565 658 733 557 733 320 c 0
 733 87 565 -26 392 -26 c 0
 212 -26 36 93 36 325 c 0
 36 470 150 658 382 658 c 0
EndSplineSet
EndChar

StartChar: P
Encoding: 80 80 41
Width: 595
VWidth: 0
Flags: W
HStem: 0 21G<29.5 320.5> 256 49<257.863 369.031> 606 30<239.217 361.733>
VStem: 105 130<24.8454 288 306.693 603.593> 433 126<368.513 538.573>
AnchorPoint: "l;bl" 0 10 basechar 0
AnchorPoint: "l;o" 18 195 basechar 0
AnchorPoint: "l;hi" 0 605 basechar 0
AnchorPoint: "l;x" 18 385 basechar 0
AnchorPoint: "r;bl" 447 10 basechar 0
AnchorPoint: "r;o" 559 195 basechar 0
AnchorPoint: "r;hi" 577 605 basechar 0
AnchorPoint: "r;x" 595 385 basechar 0
LayerCount: 3
Fore
SplineSet
30 636 m 1
 330 636 l 2
 368 636 433 629 484 596 c 0
 538 561 559 507 559 452 c 0
 559 404 543 356 518 324 c 0
 484 281 427 256 363 256 c 0
 295 256 235 288 235 288 c 1
 235 75 l 2
 235 -16 322 36 322 10 c 0
 322 6 321 2 320 0 c 1
 30 0 l 1
 29 2 27 6 27 10 c 0
 27 37 105 -19 105 75 c 2
 105 561 l 2
 105 655 27 599 27 626 c 0
 27 630 29 634 30 636 c 1
433 455 m 0
 433 516 406 606 299 606 c 2
 293 606 l 2
 243 606 235 605 235 558 c 2
 235 310 l 1
 235 310 260 305 281 305 c 0
 372 305 433 354 433 455 c 0
EndSplineSet
EndChar

StartChar: Q
Encoding: 81 81 42
Width: 783
VWidth: 0
Flags: W
HStem: -198 60<634 745.476> -21 31<323.948 373.975> 624 34<327.091 463.421>
VStem: 36 144<183.929 424.204> 603 144<241.956 460.477>
AnchorPoint: "r;o" 783 201 basechar 0
AnchorPoint: "r;hi" 733 608 basechar 0
AnchorPoint: "r;x" 783 385 basechar 0
AnchorPoint: "r;bl" 733 12 basechar 0
AnchorPoint: "l;o" 0 201 basechar 0
AnchorPoint: "l;hi" 50 608 basechar 0
AnchorPoint: "l;x" 0 385 basechar 0
AnchorPoint: "l;bl" 50 12 basechar 0
AnchorPoint: "r;k;lo" 837 -202 basechar 0
LayerCount: 3
Fore
SplineSet
762 -132 m 0
 772 -128 777 -139 777 -152 c 0
 777 -162 769 -167 754 -173 c 0
 724 -185 676 -198 660 -198 c 0
 608 -198 578 -175 530 -149 c 24
 464 -112 435 -85 371 -33 c 0
 357 -22 345 -23 327 -21 c 0
 207 -9 36 84 36 303 c 0
 36 477 163 658 403 658 c 0
 590 658 747 541 747 346 c 0
 747 209 638 87 511 31 c 0
 499 26 491 22 491 20 c 0
 491 16 497 11 500 9 c 0
 533 -19 672 -138 727 -138 c 0
 741 -138 753 -136 762 -132 c 0
180 289 m 0
 180 110 287 10 392 10 c 0
 528 10 603 165 603 337 c 0
 603 489 519 624 392 624 c 0
 252 624 180 435 180 289 c 0
EndSplineSet
EndChar

StartChar: R
Encoding: 82 82 43
Width: 692
VWidth: 0
Flags: W
HStem: 0 21G<29.5 320.5 531 661.5> 287 31<235 299.457> 606 30<238.059 359.983>
VStem: 105 130<22.6871 287 318 605.374> 421 130<402.575 554.152>
DStem2: 427 291 304 264 0.584557 -0.811353<-24.6727 290.474>
AnchorPoint: "top" 303 730 basechar 0
AnchorPoint: "l;bl" 0 10 basechar 0
AnchorPoint: "l;o" 18 196 basechar 0
AnchorPoint: "l;hi" 0 605 basechar 0
AnchorPoint: "l;x" 18 384 basechar 0
AnchorPoint: "r;bl" 692 10 basechar 0
AnchorPoint: "r;o" 638 196 basechar 0
AnchorPoint: "r;hi" 602 605 basechar 0
AnchorPoint: "r;x" 620 384 basechar 0
LayerCount: 3
Fore
SplineSet
421 471 m 0
 421 528 399 561 377 580 c 0
 352 601 333 606 281 606 c 2
 263 606 l 2
 241 606 235 599 235 560 c 2
 235 318 l 1
 273 318 l 2
 343 318 421 347 421 471 c 0
661 0 m 1
 561 0 l 2
 501 0 495 0 487 10 c 2
 304 264 l 2
 294 284 291 287 275 287 c 2
 235 287 l 1
 235 73 l 2
 235 -18 322 35 322 10 c 0
 322 6 321 2 320 0 c 1
 30 0 l 1
 29 2 27 6 27 10 c 0
 27 37 105 -19 105 75 c 2
 105 561 l 2
 105 655 27 599 27 626 c 0
 27 630 29 634 30 636 c 1
 273 636 l 6
 381 636 453 624 501 585 c 0
 533 561 551 526 551 476 c 0
 551 358 415 326 415 313 c 0
 415 308 420 304 427 291 c 0
 497 184 590 59 611 36 c 0
 633 12 663 30 663 10 c 0
 663 6 662 2 661 0 c 1
EndSplineSet
EndChar

StartChar: S
Encoding: 83 83 44
Width: 501
VWidth: 0
Flags: W
HStem: -20 36<174.169 294.113> 622 34<208.602 327.257>
VStem: 45 36<132.625 180.695> 52 105<454.204 565.475> 357 108<89.3223 216.338>
AnchorPoint: "cedilla" 247 -83 basechar 0
AnchorPoint: "top" 256 731 basechar 0
AnchorPoint: "l;bl" 9 12 basechar 0
AnchorPoint: "l;o" 0 201 basechar 0
AnchorPoint: "l;hi" 9 605 basechar 0
AnchorPoint: "l;x" 9 383 basechar 0
AnchorPoint: "r;bl" 474 12 basechar 0
AnchorPoint: "r;o" 501 201 basechar 0
AnchorPoint: "r;hi" 501 605 basechar 0
AnchorPoint: "r;x" 501 383 basechar 0
LayerCount: 3
Fore
SplineSet
246 -20 m 0xd8
 196 -20 176 -15 140 -7 c 0
 72 9 63 18 63 20 c 0
 63 21 64 21 64 21 c 1
 64 45 45 152 45 171 c 0
 45 180 54 180 62 181 c 0
 73 183 78 178 81 173 c 0xe8
 114 93 156 16 231 16 c 0
 318 16 357 95 357 150 c 0
 357 321 52 292 52 480 c 0
 52 588 132 656 252 656 c 0
 328 656 368 617 381 617 c 0
 388 617 409 623 412 623 c 0
 417 623 420 620 421 609 c 0
 423 580 434 514 437 485 c 0
 438 478 437 474 429 472 c 0
 424 471 420 474 415 486 c 0
 396 525 359 622 269 622 c 0
 227 622 157 596 157 509 c 0
 157 366 465 403 465 176 c 0
 465 44 336 -20 246 -20 c 0xd8
EndSplineSet
EndChar

StartChar: T
Encoding: 84 84 45
Width: 694
VWidth: 0
Flags: W
HStem: 0 21G<192.5 506.5> 595 41<83.9873 279.287 418.454 618.98>
VStem: 284 130<22.7402 593.413>
AnchorPoint: "cedilla" 352 -80 basechar 0
AnchorPoint: "top" 352 730 basechar 0
AnchorPoint: "l;bl" 99 10 basechar 0
AnchorPoint: "l;o" 81 198 basechar 0
AnchorPoint: "l;hi" 0 605 basechar 0
AnchorPoint: "l;x" 72 381 basechar 0
AnchorPoint: "r;hi2" 694 670 basechar 0
AnchorPoint: "r;bl" 595 10 basechar 0
AnchorPoint: "r;o" 609 198 basechar 0
AnchorPoint: "r;hi" 694 605 basechar 0
AnchorPoint: "r;x" 622 381 basechar 0
LayerCount: 3
Fore
SplineSet
193 0 m 1
 192 2 191 6 191 10 c 0
 191 36 284 -20 284 74 c 2
 284 497 l 2
 284 590 279 595 247 595 c 2
 158 595 l 2
 98 595 101 591 78 569 c 0
 39 531 26 516 23 516 c 0
 21 516 14 519 14 524 c 0
 14 527 47 624 53 649 c 0
 54 652 56 654 59 654 c 0
 65 654 85 636 99 636 c 2
 603 636 l 2
 611 636 637 650 641 650 c 0
 646 650 648 646 651 636 c 2
 661 593 l 2
 667 568 680 521 680 518 c 0
 680 515 675 512 671 512 c 0
 667 512 643 546 618 576 c 0
 605 591 596 595 577 595 c 2
 450 595 l 2
 415 595 414 578 414 499 c 2
 414 74 l 2
 414 -20 508 36 508 10 c 0
 508 6 507 2 506 0 c 1
 193 0 l 1
EndSplineSet
Layer: 2
SplineSet
214 0 m 5
 213 2 212 6 212 10 c 4
 212 36 316 -3 316 75 c 6
 316 503 l 6
 316 597 310 600 274 600 c 6
 176 600 l 6
 109 600 112 598 87 576 c 4
 44 538 29 522 26 522 c 4
 24 522 15 525 15 530 c 4
 15 533 50 625 56 649 c 4
 57 652 59 654 62 654 c 4
 68 654 89 634 103 634 c 6
 625 634 l 6
 633 634 660 650 664 650 c 4
 669 650 671 647 674 637 c 6
 685 595 l 6
 691 571 705 527 705 524 c 4
 705 521 698 518 694 518 c 4
 690 518 663 553 635 583 c 4
 621 598 611 600 590 600 c 6
 449 600 l 6
 410 600 409 585 409 505 c 6
 409 75 l 6
 409 -3 513 36 513 10 c 4
 513 6 512 2 511 0 c 5
 214 0 l 5
EndSplineSet
EndChar

StartChar: U
Encoding: 85 85 46
Width: 732
VWidth: 0
Flags: W
HStem: -24 67<323.893 478.942> 616 20G<28.5 320.5 484.5 702.5>
VStem: 105 130<165.507 613.058> 590 39<202.26 586.647>
AnchorPoint: "top" 406 730 basechar 0
AnchorPoint: "l;bl" 54 12 basechar 0
AnchorPoint: "l;o" 18 205 basechar 0
AnchorPoint: "l;hi" 0 610 basechar 0
AnchorPoint: "l;x" 18 388 basechar 0
AnchorPoint: "r;hi2" 723 670 basechar 0
AnchorPoint: "r;bl" 660 12 basechar 0
AnchorPoint: "r;o" 714 205 basechar 0
AnchorPoint: "r;hi" 732 610 basechar 0
AnchorPoint: "r;x" 714 388 basechar 0
LayerCount: 3
Fore
SplineSet
629 468 m 2
 629 407 l 2
 629 262 628 236 616 180 c 0
 580 24 481 -24 360 -24 c 0
 257 -24 205 15 184 35 c 0
 109 107 105 233 105 385 c 2
 105 561 l 2
 105 652 27 600 27 626 c 0
 27 630 28 634 29 636 c 1
 320 636 l 1
 321 634 322 630 322 626 c 0
 322 599 235 656 235 562 c 2
 235 362 l 2
 235 216 252 43 398 43 c 0
 506 43 590 98 590 329 c 2
 590 457 l 2
 590 521 586 561 572 585 c 0
 545 641 484 605 484 626 c 0
 484 630 484 634 485 636 c 5
 702 636 l 1
 703 634 705 630 705 626 c 0
 705 601 654 642 639 584 c 0
 633 564 629 528 629 468 c 2
EndSplineSet
EndChar

StartChar: V
Encoding: 86 86 47
Width: 752
VWidth: 0
Flags: W
HStem: 616 20G<28.5 240.5 432.5 721.5>
VStem: 518 207<551 628>
AnchorPoint: "r;hi2" 743 670 basechar 0
AnchorPoint: "l;bl" 117 6 basechar 0
AnchorPoint: "l;x" 36 383 basechar 0
AnchorPoint: "l;hi" 0 610 basechar 0
AnchorPoint: "l;o" 72 197 basechar 0
AnchorPoint: "r;bl" 507 6 basechar 0
AnchorPoint: "r;x" 683 383 basechar 0
AnchorPoint: "r;hi" 752 610 basechar 0
AnchorPoint: "r;o" 605 197 basechar 0
LayerCount: 3
Fore
SplineSet
338 106 m 0
 346 106 420 268 470 401 c 0
 506 494 518 538 518 564 c 0
 518 577 515 586 511 594 c 0
 494 624 432 604 432 626 c 0
 432 630 432 634 433 636 c 1
 721 636 l 1
 722 634 725 630 725 626 c 0
 725 605 695 626 660 600 c 0
 648 591 632 574 622 555 c 0
 592 501 588 480 552 398 c 0
 480 234 448 165 362 20 c 0
 347 -5 339 -24 331 -24 c 2
 324 -24 l 2
 311 -24 311 -24 204 273 c 0
 112 529 105 571 83 600 c 0
 64 624 27 606 27 626 c 0
 27 630 28 634 29 636 c 1
 240 636 l 1
 241 634 243 630 243 626 c 0
 243 612 222 617 205 611 c 0
 195 607 191 600 191 585 c 0
 191 573 195 556 202 531 c 0
 257 348 295 227 317 160 c 0
 330 122 336 106 338 106 c 0
EndSplineSet
EndChar

StartChar: W
Encoding: 87 87 48
Width: 1128
VWidth: 0
Flags: W
HStem: 616 20G<29.5 357.5 447.5 750.5 864.5 1097.5>
VStem: 930 171<555.5 628>
DStem2: 304 535 185 440 0.273927 -0.96175<-39.8882 438.15> 687 508 553 470 0.273626 -0.961836<-68.8273 29.0172 39.4436 400.489>
AnchorPoint: "r;hi2" 1119 670 basechar 0
AnchorPoint: "top" 601 730 basechar 0
AnchorPoint: "l;bl" 125 6 basechar 0
AnchorPoint: "l;x" 41 383 basechar 0
AnchorPoint: "l;hi" 0 610 basechar 0
AnchorPoint: "l;o" 83 197 basechar 0
AnchorPoint: "r;bl" 975 6 basechar 0
AnchorPoint: "r;x" 1087 383 basechar 0
AnchorPoint: "r;hi" 1128 610 basechar 0
AnchorPoint: "r;o" 1031 197 basechar 0
LayerCount: 3
Fore
SplineSet
794 122 m 0
 796 122 821 201 851 293 c 0
 901 448 930 536 930 575 c 0
 930 591 923 601 911 607 c 0
 891 617 863 611 863 626 c 0
 863 630 864 634 865 636 c 1
 1097 636 l 1
 1098 634 1101 630 1101 626 c 0
 1101 609 1076 619 1046 605 c 0
 1005 585 1010 557 891 316 c 2
 745 20 l 2
 731 -7 724 -24 715 -24 c 2
 709 -24 l 2
 699 -24 691 -10 685 6 c 2
 564 432 l 1
 548 401 536 371 507 308 c 0
 452 191 481 248 363 20 c 0
 350 -6 342 -24 334 -24 c 2
 329 -24 l 2
 321 -24 316 -10 311 6 c 0
 269 151 225 294 185 440 c 0
 136 572 137 585 105 603 c 0
 73 622 27 609 27 626 c 0
 27 630 29 634 30 636 c 1
 357 636 l 1
 358 634 360 630 360 626 c 0
 360 609 328 619 306 602 c 0
 299 596 293 587 293 574 c 0
 293 560 300 545 304 535 c 0
 327 447 377 277 407 179 c 0
 415 139 421 113 422 113 c 0
 428 113 504 332 553 470 c 1
 540 523 524 587 504 603 c 0
 481 621 446 607 446 626 c 0
 446 630 447 634 448 636 c 1
 750 636 l 1
 751 634 752 630 752 626 c 0
 752 603 717 619 695 608 c 0
 679 600 672 591 672 576 c 0
 672 561 679 540 687 508 c 0
 707 436 741 315 767 227 c 0
 782 166 792 122 794 122 c 0
EndSplineSet
EndChar

StartChar: X
Encoding: 88 88 49
Width: 817
VWidth: 0
Flags: W
HStem: 0 21G<31.5 266.5 391.5 786.5> 616 20G<28.5 331.5 455.5 786.5>
VStem: 559 231<558 638>
DStem2: 190 160 216 128 0.673062 0.739586<-72.9608 163.04 301.531 554.067> 368 424 276 329 0.556458 -0.830876<-193.3 49.0856 107.068 356.943>
AnchorPoint: "l;bl" 0 10 basechar 0
AnchorPoint: "l;o" 37 200 basechar 0
AnchorPoint: "l;hi" 27 610 basechar 0
AnchorPoint: "l;x" 65 385 basechar 0
AnchorPoint: "r;hi2" 808 670 basechar 0
AnchorPoint: "r;bl" 817 10 basechar 0
AnchorPoint: "r;o" 776 200 basechar 0
AnchorPoint: "r;hi" 817 610 basechar 0
AnchorPoint: "r;x" 734 385 basechar 0
LayerCount: 3
Fore
SplineSet
457 454 m 2
 494 488 559 541 559 575 c 0
 559 646 453 600 453 626 c 0
 453 630 455 634 456 636 c 1
 786 636 l 1
 787 634 790 630 790 626 c 0
 790 607 745 625 680 590 c 0
 652 575 610 551 560 506 c 2
 453 388 l 2
 429 370 411 360 411 350 c 0
 411 344 422 335 445 308 c 2
 588 95 l 2
 617 67 644 47 679 35 c 0
 731 18 789 27 789 10 c 0
 789 6 787 2 786 0 c 1
 392 0 l 1
 391 2 389 6 389 10 c 0
 389 31 442 12 442 43 c 0
 442 63 419 100 387 164 c 2
 335 241 l 2
 332 254 330 270 329 270 c 0
 328 270 326 258 323 245 c 2
 216 128 l 2
 210 119 185 83 185 56 c 0
 185 0 268 33 268 10 c 0
 268 6 267 2 266 0 c 1
 32 0 l 1
 31 2 29 6 29 10 c 0
 29 29 53 13 92 41 c 0
 114 57 144 93 190 160 c 2
 274 253 l 2
 286 273 292 280 292 288 c 0
 292 296 285 309 276 329 c 2
 137 538 l 2
 118 574 105 589 92 599 c 0
 66 619 26 608 26 626 c 0
 26 630 28 634 29 636 c 1
 331 636 l 1
 332 634 333 630 333 626 c 0
 333 607 293 620 277 604 c 0
 274 601 272 598 272 593 c 0
 273 580 280 562 296 531 c 2
 368 424 l 2
 390 382 391 382 394 382 c 0
 395 382 400 390 406 398 c 2
 457 454 l 2
EndSplineSet
EndChar

StartChar: Y
Encoding: 89 89 50
Width: 718
VWidth: 0
Flags: W
HStem: 0 21G<209.5 487.5> 616 20G<13.5 298.5 442.5 687.5>
VStem: 292 130<22.8719 251.376>
DStem2: 286 496 94 543 0.500431 -0.865776<-105.568 227.166> 416 322 447 307 0.464184 0.885739<-25.9274 217.353>
AnchorPoint: "top" 390 730 basechar 0
AnchorPoint: "l;bl" 115 10 basechar 0
AnchorPoint: "l;o" 76 200 basechar 0
AnchorPoint: "l;hi" 0 610 basechar 0
AnchorPoint: "l;x" 57 385 basechar 0
AnchorPoint: "r;hi2" 709 670 basechar 0
AnchorPoint: "r;bl" 593 10 basechar 0
AnchorPoint: "r;o" 635 200 basechar 0
AnchorPoint: "r;hi" 718 610 basechar 0
AnchorPoint: "r;x" 677 385 basechar 0
LayerCount: 3
Fore
SplineSet
620 599 m 0
 591 581 572 542 545 494 c 2
 447 307 l 2
 437 287 422 256 422 246 c 2
 422 75 l 2
 422 -16 488 36 488 10 c 0
 488 6 488 2 487 0 c 1
 210 0 l 1
 209 2 207 6 207 10 c 0
 207 37 292 -19 292 75 c 2
 292 227 l 2
 292 236 270 252 257 261 c 2
 94 543 l 2
 77 575 67 594 53 604 c 0
 35 618 12 610 12 626 c 0
 12 630 13 634 14 636 c 1
 298 636 l 1
 299 634 302 630 302 626 c 0
 302 609 274 617 252 606 c 0
 246 603 242 599 242 593 c 0
 242 583 262 544 286 496 c 2
 388 320 l 2
 395 308 398 300 401 300 c 0
 404 300 408 306 416 322 c 2
 481 447 l 2
 494 485 503 515 503 537 c 0
 503 559 498 573 489 583 c 0
 468 607 442 593 442 620 c 0
 442 626 442 633 443 636 c 1
 687 636 l 1
 688 634 691 630 691 626 c 0
 691 609 657 622 620 599 c 0
EndSplineSet
EndChar

StartChar: Z
Encoding: 90 90 51
Width: 572
VWidth: 0
Flags: W
HStem: 0 42<203.011 422.66> 604 32<148.922 350.995> 643 20G<77.5 92>
DStem2: 39 84 252 151 0.528012 0.849237<62.4246 601.949>
AnchorPoint: "top" 299 731 basechar 0
AnchorPoint: "l;bl" 0 12 basechar 0
AnchorPoint: "l;o" 0 204 basechar 0
AnchorPoint: "l;hi" 18 605 basechar 0
AnchorPoint: "l;x" 0 385 basechar 0
AnchorPoint: "r;hi2" 545 671 basechar 0
AnchorPoint: "r;bl" 554 12 basechar 0
AnchorPoint: "r;o" 572 204 basechar 0
AnchorPoint: "r;hi" 545 605 basechar 0
AnchorPoint: "r;x" 554 385 basechar 0
LayerCount: 3
Fore
SplineSet
545 149 m 0
 545 144 539 138 518 95 c 0
 502 63 485 25 473 6 c 0
 470 2 460 0 456 0 c 2
 48 0 l 2
 11 0 10 0 10 20 c 0
 10 23 21 47 39 84 c 2
 302 507 l 2
 331 560 351 596 351 599 c 0
 351 604 344 604 329 604 c 2
 257 604 l 2
 180 604 121 599 76 518 c 0
 56 483 52 463 43 463 c 0
 31 463 28 470 28 475 c 0
 28 478 29 480 29 481 c 0
 31 490 59 593 63 612 c 0
 69 640 72 663 83 663 c 0
 101 663 116 636 158 636 c 2
 517 636 l 2
 526 636 532 632 532 622 c 0
 532 611 514 584 487 529 c 2
 252 151 l 2
 248 145 203 65 203 55 c 0
 203 42 218 42 245 42 c 2
 298 42 l 2
 342 42 380 46 400 52 c 0
 421 59 451 78 501 132 c 0
 519 152 526 161 533 161 c 0
 536 161 545 157 545 149 c 0
EndSplineSet
EndChar

StartChar: period
Encoding: 46 46 53
Width: 340
VWidth: 0
Flags: W
HStem: -17 127<109.664 222.336>
VStem: 92 148<1 91.5>
LayerCount: 3
Fore
SplineSet
92 46 m 0
 92 82 124 110 166 110 c 0
 208 110 240 82 240 46 c 0
 240 10 208 -17 166 -17 c 0
 124 -17 92 10 92 46 c 0
EndSplineSet
EndChar

StartChar: comma
Encoding: 44 44 54
Width: 301
VWidth: 0
Flags: W
HStem: -4 115<92.0256 151.689>
VStem: 154 73<-71.9427 44>
LayerCount: 3
Fore
SplineSet
227 10 m 0
 227 -57 192 -96 162 -127 c 0
 129 -163 107 -165 104 -165 c 0
 96 -165 91 -160 89 -153 c 0
 85 -144 91 -138 98 -131 c 0
 131 -102 154 -61 154 -33 c 0
 154 -14 144 -4 119 -4 c 0
 88 -4 74 22 74 47 c 0
 74 77 100 111 144 111 c 0
 185 111 227 78 227 10 c 0
EndSplineSet
EndChar

StartChar: hyphen
Encoding: 45 45 55
Width: 417
VWidth: 0
Flags: W
HStem: 170 70<21.0091 392.6>
LayerCount: 3
Fore
SplineSet
43 240 m 2
 375 240 l 2
 393 240 393 230 393 219 c 2
 393 198 l 2
 393 188 390 170 375 170 c 2
 39 170 l 2
 24 170 21 176 21 193 c 2
 21 218 l 2
 21 234 28 240 43 240 c 2
EndSplineSet
EndChar

StartChar: colon
Encoding: 58 58 56
Width: 340
VWidth: 0
Flags: W
HStem: -17 125<119.571 230.429> 236 125<119.571 230.429>
VStem: 102 146<1.375 90.125 253.875 342.625>
LayerCount: 3
Fore
SplineSet
102 298 m 0
 102 333 134 361 175 361 c 0
 216 361 248 333 248 298 c 0
 248 263 216 236 175 236 c 0
 134 236 102 263 102 298 c 0
102 46 m 0
 102 81 134 108 175 108 c 0
 216 108 248 81 248 46 c 0
 248 11 216 -17 175 -17 c 0
 134 -17 102 11 102 46 c 0
EndSplineSet
EndChar

StartChar: semicolon
Encoding: 59 59 57
Width: 364
VWidth: 0
Flags: W
HStem: -5 115<119.681 217.371> 245 126<118.571 229.429>
VStem: 101 146<263.375 352.625> 220 73<-65.5011 43>
LayerCount: 3
Fore
SplineSet
293 9 m 0xd0
 293 -58 250 -97 212 -128 c 0
 170 -164 142 -166 138 -166 c 0
 128 -166 122 -161 119 -154 c 0
 115 -145 122 -139 133 -132 c 0
 185 -103 220 -62 220 -34 c 0
 220 -15 205 -5 166 -5 c 0
 119 -5 97 21 97 46 c 0
 97 76 131 110 188 110 c 0
 241 110 293 77 293 9 c 0xd0
101 308 m 0xe0
 101 343 133 371 174 371 c 0
 215 371 247 343 247 308 c 0
 247 273 215 245 174 245 c 0
 133 245 101 273 101 308 c 0xe0
EndSplineSet
EndChar

StartChar: exclam
Encoding: 33 33 58
Width: 344
VWidth: 0
Flags: W
HStem: -18 115<118.624 221.376> 621 20G<143.5 208>
VStem: 103 134<-1.60965 81.0862> 107 143<499.941 639.079> 140 53<198.723 401.607>
LayerCount: 3
Fore
SplineSet
163 198 m 0xc8
 142 198 143 206 140 258 c 0xc8
 113 619 107 610 107 621 c 0
 107 637 119 641 168 641 c 2
 192 641 l 2
 224 641 250 640 250 622 c 0xd0
 250 608 226 504 193 258 c 0
 185 203 181 198 163 198 c 0xc8
103 40 m 0xe0
 103 71 134 97 170 97 c 0
 206 97 237 71 237 40 c 0
 237 9 206 -18 170 -18 c 0
 134 -18 103 9 103 40 c 0xe0
EndSplineSet
EndChar

StartChar: question
Encoding: 63 63 59
Width: 363
VWidth: 0
Flags: W
HStem: -19 108<79.6821 178.318> 239 83<155.382 275.681> 519 97<92.9736 238.755> 620 20G<81 89.5>
VStem: 66 126<-4.68344 74.6834> 108 46<131.434 226.511> 288 41<337.592 471.125>
LayerCount: 3
Fore
SplineSet
89 519 m 2xf6
 75 519 68 541 68 596 c 0
 68 628 77 640 85 640 c 0
 94 640 101 632 110 625 c 0
 121 616 120 616 135 616 c 0
 195 616 259 611 296 534 c 0
 313 499 329 451 329 385 c 0
 329 292 306 246 262 239 c 0
 163 226 156 230 154 210 c 0
 146 144 138 130 127 130 c 0
 110 130 108 160 108 161 c 0
 107 232 96 272 96 302 c 0
 96 313 101 322 117 322 c 2
 212 322 l 2
 276 322 288 346 288 398 c 2
 288 405 l 2
 288 435 281 519 146 519 c 2
 89 519 l 2xf6
66 35 m 0xfa
 66 64 95 89 129 89 c 0
 163 89 192 64 192 35 c 0
 192 6 163 -19 129 -19 c 0
 95 -19 66 6 66 35 c 0xfa
EndSplineSet
EndChar

StartChar: parenleft
Encoding: 40 40 60
Width: 337
VWidth: 0
Flags: W
VStem: 40 94<62.7456 343.402>
LayerCount: 3
Fore
SplineSet
297 -213 m 0
 297 -215 282 -234 270 -234 c 0
 266 -234 257 -229 243 -214 c 0
 46 -8 40 124 40 208 c 0
 40 419 199 601 264 664 c 0
 270 670 277 673 280 673 c 0
 284 673 302 656 302 648 c 0
 302 641 293 635 272 609 c 0
 184 498 134 358 134 209 c 0
 134 89 175 -63 277 -187 c 0
 290 -202 297 -208 297 -213 c 0
EndSplineSet
Layer: 2
SplineSet
305 -210 m 4
 305 -212 291 -226 279 -226 c 4
 275 -226 267 -221 253 -206 c 4
 63 0 37 131 37 215 c 4
 37 426 211 607 274 670 c 4
 280 676 286 679 289 679 c 4
 293 679 310 667 310 659 c 4
 310 652 300 646 277 620 c 4
 179 509 119 365 119 216 c 4
 119 96 169 -60 283 -184 c 4
 297 -199 305 -205 305 -210 c 4
EndSplineSet
EndChar

StartChar: parenright
Encoding: 41 41 61
Width: 337
VWidth: 0
Flags: W
VStem: 208 94<62.7456 343.402>
LayerCount: 3
Fore
SplineSet
45 -213 m 0
 45 -208 52 -202 65 -187 c 0
 167 -63 208 89 208 209 c 0
 208 358 158 498 70 609 c 0
 49 635 40 641 40 648 c 0
 40 656 58 673 62 673 c 0
 65 673 72 670 78 664 c 0
 143 601 302 419 302 208 c 0
 302 124 296 -8 99 -214 c 0
 85 -229 76 -234 72 -234 c 0
 60 -234 45 -215 45 -213 c 0
EndSplineSet
EndChar

StartChar: bracketleft
Encoding: 91 91 62
Width: 298
VWidth: 0
Flags: W
HStem: -217 46<172.095 289> -215 37<153 270.49> 618 46<172.095 289> 625 37<153 270.49>
VStem: 63 90<-178.005 625.005>
AnchorPoint: "l;hi2" 0 671 basechar 0
AnchorPoint: "l;bl" 0 14 basechar 0
AnchorPoint: "l;lo" 0 -198 basechar 0
AnchorPoint: "l;o" 0 200 basechar 0
AnchorPoint: "l;hi" 0 603 basechar 0
AnchorPoint: "l;x" 0 382 basechar 0
AnchorPoint: "r;hi2" 298 671 basechar 0
AnchorPoint: "r;bl" 262 14 basechar 0
AnchorPoint: "r;lo" 298 -198 basechar 0
AnchorPoint: "r;o" 262 200 basechar 0
AnchorPoint: "r;hi" 298 603 basechar 0
AnchorPoint: "r;x" 262 382 basechar 0
LayerCount: 3
Fore
SplineSet
153 -166 m 2x18
 153 -185 157 -178 171 -178 c 0x58
 194 -178 240 -173 272 -171 c 0
 279 -171 289 -172 289 -187 c 2
 289 -196 l 2
 289 -206 287 -217 280 -217 c 0x88
 231 -216 173 -215 129 -215 c 0
 88 -215 63 -212 63 -202 c 2
 63 649 l 2
 63 659 88 662 129 662 c 0x58
 173 662 231 663 280 664 c 0
 287 664 289 653 289 643 c 2
 289 634 l 2
 289 619 279 618 272 618 c 0x28
 240 620 194 625 171 625 c 0
 157 625 153 632 153 613 c 2
 153 -166 l 2x18
EndSplineSet
EndChar

StartChar: bracketright
Encoding: 93 93 63
Width: 298
VWidth: 0
Flags: W
HStem: -217 46<9 125.905> -215 37<27.5101 145> 618 46<9 125.905> 625 37<27.5101 145>
VStem: 145 90<-178.005 625.005>
AnchorPoint: "l;x" 36 382 basechar 0
AnchorPoint: "l;hi" 0 603 basechar 0
AnchorPoint: "l;o" 36 200 basechar 0
AnchorPoint: "l;lo" 0 -198 basechar 0
AnchorPoint: "l;bl" 36 14 basechar 0
AnchorPoint: "l;hi2" 0 671 basechar 0
AnchorPoint: "r;x" 298 382 basechar 0
AnchorPoint: "r;hi" 298 603 basechar 0
AnchorPoint: "r;o" 298 200 basechar 0
AnchorPoint: "r;lo" 298 -198 basechar 0
AnchorPoint: "r;bl" 298 14 basechar 0
AnchorPoint: "r;hi2" 298 671 basechar 0
LayerCount: 3
Fore
SplineSet
145 -166 m 2x48
 145 613 l 2
 145 632 141 625 127 625 c 0x58
 104 625 58 620 26 618 c 0
 19 618 9 619 9 634 c 2
 9 643 l 2
 9 653 11 664 18 664 c 0x28
 67 663 125 662 169 662 c 0
 210 662 235 659 235 649 c 2
 235 -202 l 2
 235 -212 210 -215 169 -215 c 0x58
 125 -215 67 -216 18 -217 c 0
 11 -217 9 -206 9 -196 c 2
 9 -187 l 2
 9 -172 19 -171 26 -171 c 0x88
 58 -173 104 -178 127 -178 c 0
 141 -178 145 -185 145 -166 c 2x48
EndSplineSet
EndChar

StartChar: quoteleft
Encoding: 8216 8216 64
Width: 245
VWidth: 0
Flags: W
HStem: 396 114<121.323 181.974>
VStem: 47 73<460 571.286>
LayerCount: 3
Fore
SplineSet
47 492 m 0
 47 555 81 592 111 622 c 0
 144 656 167 658 170 658 c 0
 178 658 183 653 185 647 c 0
 189 639 183 633 176 627 c 0
 143 600 120 563 120 537 c 0
 120 520 130 510 155 510 c 0
 186 510 200 485 200 460 c 0
 200 430 173 396 129 396 c 0
 88 396 47 428 47 492 c 0
EndSplineSet
EndChar

StartChar: quoteright
Encoding: 8217 8217 65
Width: 245
VWidth: 0
Flags: W
HStem: 396 21G<73 78.5> 544 114<65.0256 126.607>
VStem: 127 73<484.421 594>
LayerCount: 3
Fore
SplineSet
200 562 m 0
 200 499 165 462 135 432 c 0
 102 398 80 396 77 396 c 0
 69 396 64 401 62 407 c 0
 58 415 64 421 71 427 c 0
 104 454 127 491 127 517 c 0
 127 534 117 544 92 544 c 0
 61 544 47 569 47 594 c 0
 47 624 73 658 117 658 c 0
 158 658 200 626 200 562 c 0
EndSplineSet
EndChar

StartChar: ampersand
Encoding: 38 38 66
Width: 690
VWidth: 0
Flags: W
HStem: -11 56<575.074 642.722> 0 73<209.328 313.65> 358 20G<459.5 642.5> 599 37<226.687 317.529>
VStem: 22 101<148.307 244.234> 130 76<486.931 571.975> 342 64<467.297 577.741>
DStem2: 161 357 217 348 0.845193 0.534461<-53.2049 36.8902 146.827 214.742> 279 432 192 377 0.659722 -0.75151<-124.826 -16.0628 38.195 270.647>
LayerCount: 3
Fore
SplineSet
281 73 m 0x7e
 340 73 397 144 397 144 c 1
 217 348 l 1
 217 348 123 302 123 207 c 0
 123 136 219 73 281 73 c 0x7e
274 599 m 0
 238 599 206 574 206 536 c 0
 206 495 279 432 279 432 c 1
 279 432 290 438 297 443 c 0
 322 463 342 486 342 528 c 0
 342 550 322 599 274 599 c 0
406 537 m 0
 406 457 342 427 305 404 c 1
 458 229 l 1
 478 257 l 2
 508 301 517 320 517 335 c 0
 517 346 511 352 502 356 c 0
 484 364 458 356 458 370 c 0
 458 373 459 376 460 378 c 1
 642 378 l 1
 643 376 644 373 644 370 c 0
 644 357 625 364 603 355 c 0
 590 350 584 340 570 323 c 0
 542 289 509 237 483 201 c 1
 513 154 558 45 620 45 c 0
 644 45 656 67 662 67 c 0
 669 67 675 57 675 50 c 0
 675 43 641 -11 581 -11 c 0xbe
 473 -11 442 86 422 115 c 1
 374 67 320 0 227 0 c 0
 117 0 22 76 22 177 c 0
 22 251 102 321 161 357 c 2
 192 377 l 1
 160 412 130 445 130 496 c 0
 130 573 186 636 274 636 c 0
 349 636 406 595 406 537 c 0
EndSplineSet
Layer: 2
SplineSet
250 61 m 4x7e
 307 61 363 148 363 148 c 5
 181 355 l 5
 181 355 96 306 96 204 c 4
 96 128 190 61 250 61 c 4x7e
234 603 m 4
 197 603 158 577 158 535 c 4
 158 489 226 420 226 420 c 5
 226 420 245 430 259 440 c 4
 287 461 309 485 309 530 c 4
 309 553 284 603 234 603 c 4
355 535 m 4
 355 452.8 286.718241318 421.830944791 247 398 c 5
 411 216 l 5
 438 253 l 6
 471 299 482 317 482 333 c 4
 482 344 474 351 464 355 c 4
 443 363 413 356 413 370 c 4
 413 373 414 376 415 378 c 5
 603 378 l 5
 604 376 605 373 605 370 c 4
 605 357 585 363 560 354 c 4
 546 349 538 339 523 322 c 4
 493 287 457 232 429 195 c 5
 463 148 513 38 582 38 c 4
 609 38 622 56 629 56 c 4
 637 56 643 48 643 42 c 4
 643 36 608 -9 546 -9 c 4xbe
 434 -9 402 94 381 125 c 5
 338 73 290 0 207 0 c 4
 109 0 24 75 24 174 c 4
 24 247 83 315 126 350 c 6
 159 377 l 5
 131 412 104 445 104 496 c 4
 104 573 156 634 235 634 c 4
 300 634 355 594 355 535 c 4
EndSplineSet
EndChar

StartChar: braceleft
Encoding: 123 123 67
Width: 328
Flags: W
HStem: -215 32<256.438 316.993> 629 32<254.703 316.993>
VStem: 142 90<-165.882 174.906 269.848 611.66>
AnchorPoint: "r;x" 292 383 basechar 0
AnchorPoint: "r;hi" 328 605 basechar 0
AnchorPoint: "r;o" 292 200 basechar 0
AnchorPoint: "r;lo" 328 -198 basechar 0
AnchorPoint: "r;bl" 292 12 basechar 0
AnchorPoint: "r;hi2" 328 670 basechar 0
AnchorPoint: "l;x" 0 383 basechar 0
AnchorPoint: "l;hi" 63 605 basechar 0
AnchorPoint: "l;o" 0 200 basechar 0
AnchorPoint: "l;lo" 63 -198 basechar 0
AnchorPoint: "l;bl" 18 12 basechar 0
AnchorPoint: "l;hi2" 63 670 basechar 0
LayerCount: 3
Fore
SplineSet
142 73 m 2
 142 282 39 191 39 222 c 0
 39 231 43 232 51 234 c 0
 79 240 142 237 142 368 c 2
 142 454 l 2
 142 563 145 604 182 633 c 0
 204 650 248 661 281 661 c 0
 315 661 317 661 317 644 c 0
 317 627 310 630 300 629 c 0
 276 626 232 628 232 533 c 2
 232 395 l 2
 232 288 223 248 142 229 c 0
 128 226 122 226 122 223 c 0
 122 220 128 220 142 216 c 0
 223 195 232 153 232 46 c 2
 232 -87 l 2
 232 -182 276 -180 300 -183 c 0
 310 -184 317 -181 317 -198 c 0
 317 -215 315 -215 281 -215 c 0
 227 -215 182 -190 170 -177 c 0
 143 -147 142 -107 142 -12 c 2
 142 73 l 2
EndSplineSet
EndChar

StartChar: g.ld
Encoding: 65537 -1 96
Width: 509
VWidth: 0
Flags: W
HStem: -283 68<119.77 297.407> -61 79<129.54 370.262> 96 26<193.997 262.11> 364 44<373.012 464.5> 376 30<192.528 265.494>
VStem: 16 74<-226.5 -138.133> 40 113<177.706 317.947> 41 84<-15.5 70> 302 113<169.661 314.626> 408 57<-165.517 -93.3215>
AnchorPoint: "r;lo" 473 -193 basechar 0
AnchorPoint: "r;o" 482 201 basechar 0
AnchorPoint: "r;x" 509 383 basechar 0
AnchorPoint: "r;bl" 491 21 basechar 0
AnchorPoint: "l;lo" 0 -193 basechar 0
AnchorPoint: "l;o" 0 201 basechar 0
AnchorPoint: "l;x" 0 383 basechar 0
AnchorPoint: "l;bl" 0 21 basechar 0
AnchorPoint: "top" 231 543 basechar 0
LayerCount: 3
Fore
SplineSet
230 376 m 0xea80
 177 376 153 311 153 249 c 0
 153 186 178 122 229 122 c 0
 280 122 302 186 302 249 c 0
 302 312 280 376 230 376 c 0xea80
225 -215 m 0
 335 -215 408 -182 408 -131 c 0
 408 -100 374 -86 369 -82 c 0
 341 -67 294 -63 202 -63 c 0
 190 -63 191 -63 159 -61 c 1
 91 -96 90 -133 90 -144 c 0xe440
 90 -172 109 -215 225 -215 c 0
16 -195 m 0
 16 -136 96 -77 124 -59 c 1
 72 -55 41 -32 41 1 c 0xf1
 41 63 139 118 139 118 c 1
 97 133 40 177 40 246 c 0
 40 330 123 406 226 406 c 0xea
 275 406 316 390 343 363 c 1
 375 394 414 408 447 408 c 0
 482 408 509 394 509 367 c 0
 509 347 489 327 466 327 c 0
 436 327 421 364 391 364 c 0
 381 364 372 360 364 349 c 1
 397 320 415 283 415 245 c 0
 415 169 358 96 239 96 c 0
 184 96 165 106 160 106 c 0
 147 106 125 83 125 57 c 0xf180
 125 25 144 18 232 18 c 0
 334 17 384 7 399 1 c 0
 436 -15 465 -47 465 -96 c 0
 465 -212 298 -283 169 -283 c 0
 84 -283 16 -258 16 -195 c 0
EndSplineSet
Layer: 2
SplineSet
201 379 m 4xea80
 142 379 116 313 116 249 c 4
 116 184 143 118 200 118 c 4
 256 118 281 183 281 248 c 4
 281 313 256 379 201 379 c 4xea80
124 -58 m 5
 96 -79 76 -114 76 -142 c 4
 76 -185 113 -225 198 -225 c 4
 279 -225 350 -190 350 -133 c 4xe440
 350 -114 340 -92 320 -80 c 4
 294 -64 250 -60 163 -60 c 4
 152 -60 154 -60 124 -58 c 5
18 -193 m 4
 18 -134 75 -74 95 -56 c 5
 58 -52 36 -30 36 2 c 4xf1
 36 62 106 115 106 115 c 5
 76 130 35 174 35 243 c 4
 35 327 110 404 204 404 c 4xea
 249 404 285 390 310 367 c 5
 336 393 369 405 396 405 c 4
 425 405 447 392 447 367 c 4
 447 348 430 330 411 330 c 4
 386 330 373 368 348 368 c 4
 340 368 332 363 325 352 c 5
 349 323 362 285 362 247 c 4
 362 170 309 97 200 97 c 4
 150 97 133 105 128 105 c 4
 116 105 96 79 96 50 c 4xf180
 96 14 113 7 191 7 c 4
 282 6 326 -3 339 -9 c 4
 372 -24 398 -55 398 -102 c 4
 398 -213 256 -281 147 -281 c 4
 75 -281 18 -256 18 -193 c 4
201 379 m 0xea80
 142 379 116 313 116 249 c 0
 116 184 143 118 200 118 c 0
 256 118 281 183 281 248 c 0
 281 313 256 379 201 379 c 0xea80
124 -57 m 1
 96 -78 76 -114 76 -142 c 0
 76 -185 113 -225 198 -225 c 0
 279 -225 350 -190 350 -133 c 0xe440
 350 -89 318 -59 163 -59 c 0
 152 -59 154 -59 124 -57 c 1
36 2 m 0xf1
 36 62 106 115 106 115 c 1
 76 130 35 174 35 243 c 0
 35 327 110 404 204 404 c 0xea
 249 404 285 390 310 367 c 1
 336 393 369 405 396 405 c 0
 425 405 447 392 447 367 c 0
 447 348 430 330 411 330 c 0
 386 330 373 368 348 368 c 0
 340 368 332 363 325 352 c 1
 349 323 362 285 362 247 c 0
 362 170 309 97 200 97 c 0
 150 97 133 105 128 105 c 0
 115 105 96 73 96 44 c 0xf180
 96 15 119 6 162 5 c 0
 266 3 398 18 398 -102 c 0
 398 -213 256 -281 147 -281 c 0
 75 -281 18 -256 18 -193 c 0xf440
 18 -134 74 -76 94 -58 c 1
 57 -54 36 -30 36 2 c 0xf1
EndSplineSet
EndChar

StartChar: p.ld
Encoding: 65539 -1 98
Width: 505
VWidth: 0
Flags: W
HStem: -270 21G<14.5 240.5> -15 35<211.22 305.954> 357 49<230.278 369.244>
VStem: 70 108<-245.76 15 49.0781 332.125> 364 118<102.544 294.78>
AnchorPoint: "r;o" 505 199 basechar 0
AnchorPoint: "r;x" 487 387 basechar 0
AnchorPoint: "r;bl" 487 13 basechar 0
AnchorPoint: "l;lo" 0 -200 basechar 0
AnchorPoint: "l;o" 0 199 basechar 0
AnchorPoint: "l;x" 0 387 basechar 0
AnchorPoint: "l;bl" 0 13 basechar 0
LayerCount: 3
Fore
SplineSet
178 -207 m 2
 178 -229 184 -241 195 -246 c 0
 214 -255 242 -248 242 -262 c 0
 242 -265 241 -268 240 -270 c 1
 15 -270 l 1
 14 -268 14 -265 14 -262 c 0
 14 -240 70 -285 70 -208 c 2
 70 301 l 2
 70 386 14 334 14 359 c 0
 14 390 37 344 161 416 c 1
 165 416 172 413 173 408 c 1
 172 401 169 389 166 335 c 1
 175 345 233 406 310 406 c 0
 427 406 482 304 482 201 c 0
 482 93 411 -15 274 -15 c 0
 246 -15 205 -4 178 15 c 1
 178 -207 l 2
256 357 m 0
 212 357 175 314 175 287 c 2
 175 113 l 2
 175 71 208 20 257 20 c 0
 330 20 364 105 364 189 c 0
 364 273 330 357 256 357 c 0
EndSplineSet
EndChar

StartChar: q.ld
Encoding: 65540 -1 99
Width: 509
VWidth: 0
Flags: W
HStem: -270 21G<267.5 494.5> -17 42<200.901 315.222> 374 32<191.434 288.199>
VStem: 22 118<94.3864 289.794> 332 108<-245.761 14 36.2874 342.498>
AnchorPoint: "r;lo" 509 -201 basechar 0
AnchorPoint: "r;o" 509 200 basechar 0
AnchorPoint: "r;x" 509 383 basechar 0
AnchorPoint: "r;bl" 509 12 basechar 0
AnchorPoint: "l;o" 0 200 basechar 0
AnchorPoint: "l;x" 18 383 basechar 0
AnchorPoint: "l;bl" 18 12 basechar 0
LayerCount: 3
Fore
SplineSet
442 408 m 1
 439 358 440 308 440 180 c 2
 440 -208 l 2
 440 -285 496 -240 496 -262 c 0
 496 -265 495 -268 494 -270 c 1
 268 -270 l 1
 267 -268 267 -265 267 -262 c 0
 267 -248 295 -255 314 -246 c 0
 325 -241 332 -230 332 -208 c 2
 332 14 l 1
 332 14 294 -17 227 -17 c 0
 88 -17 22 85 22 188 c 0
 22 304 95 406 247 406 c 0
 322 406 385 375 389 375 c 1
 425 410 l 2
 426 411 431 412 434 412 c 0
 438 412 441 411 442 408 c 1
267 25 m 0
 297 25 334 37 334 86 c 2
 334 288 l 2
 334 335 285 374 237 374 c 0
 189 374 140 334 140 214 c 0
 140 60 206 25 267 25 c 0
EndSplineSet
EndChar

StartChar: y.ld
Encoding: 65541 -1 100
Width: 498
VWidth: 0
Flags: W
HStem: -284 97<38.6223 111.438> 373 20G<14.5 194.5 278.5 482.5>
AnchorPoint: "l;k;lo" 0 -186 basechar 0
AnchorPoint: "r;bl" 365 19 basechar 0
AnchorPoint: "r;x" 498 385 basechar 0
AnchorPoint: "r;o" 435 204 basechar 0
AnchorPoint: "l;bl" 27 19 basechar 0
AnchorPoint: "l;x" 0 385 basechar 0
AnchorPoint: "l;o" 9 204 basechar 0
AnchorPoint: "top" 230 540 basechar 0
LayerCount: 3
Fore
SplineSet
209 -86 m 0
 119 -270 107 -284 60 -284 c 0
 28 -284 14 -254 14 -227 c 0
 14 -198 28 -170 53 -170 c 0
 80 -170 84 -187 96 -187 c 0
 112 -187 186 -13 186 3 c 0
 186 24 177 27 95 251 c 0
 65 332 63 342 58 351 c 0
 37 397 14 364 14 385 c 0
 14 388 14 391 15 393 c 1
 194 393 l 1
 195 391 196 388 196 385 c 0
 196 371 180 378 160 372 c 0
 152 369 145 365 145 357 c 0
 145 336 172 239 213 132 c 0
 223 105 226 91 230 91 c 0
 234 91 238 105 251 132 c 0
 309 254 338 328 338 348 c 0
 338 357 336 368 325 371 c 0
 305 378 277 370 277 385 c 0
 277 388 278 391 279 393 c 1
 482 393 l 1
 483 391 484 388 484 385 c 0
 484 369 464 381 444 368 c 0
 419 352 339 180 209 -86 c 0
EndSplineSet
EndChar

StartChar: quotesinglbase
Encoding: 8218 8218 101
Width: 301
VWidth: 0
Flags: W
HStem: -4 115<92.0256 151.689>
VStem: 154 73<-71.9427 44>
LayerCount: 3
Fore
SplineSet
227 10 m 0
 227 -57 192 -96 162 -127 c 0
 129 -163 107 -165 104 -165 c 0
 96 -165 91 -160 89 -153 c 0
 85 -144 91 -138 98 -131 c 0
 131 -102 154 -61 154 -33 c 0
 154 -14 144 -4 119 -4 c 0
 88 -4 74 22 74 47 c 0
 74 77 100 111 144 111 c 0
 185 111 227 78 227 10 c 0
EndSplineSet
EndChar

StartChar: quotereversed
Encoding: 8219 8219 102
Width: 245
VWidth: 0
Flags: W
HStem: 396 21G<168.5 174> 544 114<121.323 181.974>
VStem: 47 73<482.714 594>
LayerCount: 3
Fore
SplineSet
47 562 m 0
 47 626 88 658 129 658 c 0
 173 658 200 624 200 594 c 0
 200 569 186 544 155 544 c 0
 130 544 120 534 120 517 c 0
 120 491 143 454 176 427 c 0
 183 421 189 415 185 407 c 0
 183 401 178 396 170 396 c 0
 167 396 144 398 111 432 c 0
 81 462 47 499 47 562 c 0
EndSplineSet
EndChar

StartChar: quotedblleft
Encoding: 8220 8220 103
Width: 435
VWidth: 0
Flags: W
HStem: 396 114<121.323 181.974 323.323 383.974>
VStem: 47 73<460 571.286> 249 73<460 571.286>
LayerCount: 3
Fore
SplineSet
249 492 m 0
 249 555 283 592 313 622 c 0
 346 656 369 658 372 658 c 0
 380 658 385 653 387 647 c 0
 391 639 385 633 378 627 c 0
 345 600 322 563 322 537 c 0
 322 520 332 510 357 510 c 0
 388 510 402 485 402 460 c 0
 402 430 375 396 331 396 c 0
 290 396 249 428 249 492 c 0
47 492 m 0
 47 555 81 592 111 622 c 0
 144 656 167 658 170 658 c 0
 178 658 183 653 185 647 c 0
 189 639 183 633 176 627 c 0
 143 600 120 563 120 537 c 0
 120 520 130 510 155 510 c 0
 186 510 200 485 200 460 c 0
 200 430 174 396 129 396 c 0
 88 396 47 428 47 492 c 0
EndSplineSet
EndChar

StartChar: quotedblright
Encoding: 8221 8221 104
Width: 430
VWidth: 0
Flags: W
HStem: 396 21G<73 78.5 274 279.5> 544 114<65.0256 126.607 266.139 328.607>
VStem: 127 73<484.421 594> 329 73<484.421 594>
LayerCount: 3
Fore
SplineSet
200 562 m 0
 200 499 165 462 135 432 c 0
 102 398 80 396 77 396 c 0
 69 396 64 401 62 407 c 0
 58 415 64 421 71 427 c 0
 104 454 127 491 127 517 c 0
 127 534 117 544 92 544 c 0
 61 544 47 569 47 594 c 0
 47 624 73 658 117 658 c 0
 158 658 200 626 200 562 c 0
402 562 m 0
 402 499 367 462 337 432 c 0
 304 398 281 396 278 396 c 0
 270 396 266 401 264 407 c 0
 260 415 266 421 273 427 c 0
 306 454 329 491 329 517 c 0
 329 534 319 544 294 544 c 0
 263 544 249 569 249 594 c 0
 249 624 274 658 319 658 c 0
 360 658 402 626 402 562 c 0
EndSplineSet
EndChar

StartChar: quotedblbase
Encoding: 8222 8222 105
Width: 430
VWidth: 0
Flags: W
HStem: -4 115<65.0256 124.689 266.139 326.689>
VStem: 127 73<-71.9427 44> 329 73<-71.9427 44>
LayerCount: 3
Fore
SplineSet
200 10 m 0
 200 -57 165 -96 135 -127 c 0
 102 -163 80 -165 77 -165 c 0
 69 -165 64 -160 62 -153 c 0
 58 -144 64 -138 71 -131 c 0
 104 -102 127 -61 127 -33 c 0
 127 -14 117 -4 92 -4 c 0
 61 -4 47 22 47 47 c 0
 47 77 73 111 117 111 c 0
 158 111 200 78 200 10 c 0
402 10 m 0
 402 -57 367 -96 337 -127 c 0
 304 -163 281 -165 278 -165 c 0
 270 -165 266 -160 264 -153 c 0
 260 -144 266 -138 273 -131 c 0
 306 -102 329 -61 329 -33 c 0
 329 -14 319 -4 294 -4 c 0
 263 -4 249 22 249 47 c 0
 249 77 274 111 319 111 c 0
 360 111 402 78 402 10 c 0
EndSplineSet
EndChar

StartChar: uni201F
Encoding: 8223 8223 106
Width: 430
VWidth: 0
Flags: W
HStem: 396 21G<168.5 174 370.5 376> 544 114<121.323 181.974 323.323 383.974>
VStem: 47 73<482.714 594> 249 73<482.714 594>
LayerCount: 3
Fore
SplineSet
249 562 m 0
 249 626 290 658 331 658 c 0
 375 658 402 624 402 594 c 0
 402 569 388 544 357 544 c 0
 332 544 322 534 322 517 c 0
 322 491 345 454 378 427 c 0
 385 421 391 415 387 407 c 0
 385 401 380 396 372 396 c 0
 369 396 346 398 313 432 c 0
 283 462 249 499 249 562 c 0
47 562 m 0
 47 626 88 658 129 658 c 0
 174 658 200 624 200 594 c 0
 200 569 186 544 155 544 c 0
 130 544 120 534 120 517 c 0
 120 491 143 454 176 427 c 0
 183 421 189 415 185 407 c 0
 183 401 178 396 170 396 c 0
 167 396 144 398 111 432 c 0
 81 462 47 499 47 562 c 0
EndSplineSet
EndChar

StartChar: emdash
Encoding: 8212 8212 107
Width: 630
VWidth: 0
Flags: W
HStem: 165 64<4.00604 625.733>
LayerCount: 3
Fore
SplineSet
19 229 m 2
 614 229 l 2
 626 229 626 219 626 208 c 2
 626 193 l 2
 626 183 624 165 614 165 c 2
 16 165 l 2
 6 165 4 171 4 188 c 2
 4 207 l 2
 4 223 9 229 19 229 c 2
EndSplineSet
EndChar

StartChar: endash
Encoding: 8211 8211 108
Width: 405
VWidth: 0
Flags: W
HStem: 165 64<4.00604 399.828>
LayerCount: 3
Fore
SplineSet
19 229 m 2
 389 229 l 2
 401 229 400 219 400 208 c 2
 400 193 l 2
 400 183 399 165 389 165 c 2
 16 165 l 2
 6 165 4 171 4 188 c 2
 4 207 l 2
 4 223 9 229 19 229 c 2
EndSplineSet
EndChar

StartChar: afii00208
Encoding: 8213 8213 109
Width: 630
VWidth: 0
Flags: W
HStem: 165 64<4.00604 625.733>
LayerCount: 3
Fore
SplineSet
19 229 m 2
 614 229 l 2
 626 229 626 219 626 208 c 2
 626 193 l 2
 626 183 624 165 614 165 c 2
 16 165 l 2
 6 165 4 171 4 188 c 2
 4 207 l 2
 4 223 9 229 19 229 c 2
EndSplineSet
EndChar

StartChar: bullet
Encoding: 8226 8226 110
Width: 558
VWidth: 1050
Flags: W
HStem: 156 322<184.598 371.654>
VStem: 91 375<244.456 390.332>
LayerCount: 3
Fore
SplineSet
91 317 m 0
 91 406 174 478 278 478 c 0
 382 478 466 407 466 318 c 0
 466 229 382 156 278 156 c 0
 174 156 91 228 91 317 c 0
EndSplineSet
EndChar

StartChar: daggerdbl
Encoding: 8225 8225 111
Width: 551
VWidth: 0
Flags: W
HStem: -222 21G<252.5 316> 29 108<87.5974 195.872 374.57 484.001> 315 108<74.4583 191.118 370.017 478.885> 626 20G<251.5 320>
VStem: 223 127<-220.734 -42.2506 459.64 645.448> 235 104<112.446 342.485> 259 55<-90.6462 61>
LayerCount: 3
Fore
SplineSet
350 -201 m 0xf8
 350 -221 330 -222 302 -222 c 2
 277 -222 l 2
 228 -222 223 -221 223 -203 c 0xf8
 223 -192 259 62 259 62 c 1
 259 62 112 29 104 29 c 0
 90 29 87 46 87 62 c 2
 87 104 l 2
 87 120 90 137 103 137 c 0
 104 137 259 101 259 101 c 1xf2
 241 160 235 196 235 227 c 0
 235 259 241 291 255 345 c 1
 255 345 100 315 90 315 c 0
 76 315 74 332 74 348 c 2
 74 390 l 2
 74 406 76 423 89 423 c 0
 90 423 255 388 255 388 c 1
 255 388 219 629 219 632 c 0
 219 645 234 646 269 646 c 2
 302 646 l 2
 338 646 353 645 353 632 c 0
 353 631 318 388 318 388 c 1
 318 388 451 422 464 422 c 0
 479 422 480 405 480 377 c 2
 480 357 l 2
 480 336 478 315 464 315 c 0
 441 315 318 345 318 345 c 1
 333 292 339 257 339 227 c 0xf4
 339 195 332 164 314 101 c 1
 314 101 459 136 469 136 c 0
 484 136 485 120 485 92 c 2
 485 71 l 2
 485 50 483 28 469 28 c 0
 451 28 314 61 314 61 c 1xf2
 350 -198 350 -195 350 -201 c 0xf8
EndSplineSet
EndChar

StartChar: dagger
Encoding: 8224 8224 112
Width: 544
VWidth: 0
Flags: W
HStem: -222 21G<234.5 300> 315 108<56.4583 173.118 359.683 479.885> 626 20G<233.5 302>
VStem: 205 127<-220.734 80.375 459.64 645.448> 237 63<123.651 345>
LayerCount: 3
Fore
SplineSet
56 348 m 2xe8
 56 390 l 2
 56 406 58 423 71 423 c 0
 72 423 237 388 237 388 c 1
 237 388 201 629 201 632 c 0
 201 645 216 646 251 646 c 2
 284 646 l 2
 320 646 335 645 335 632 c 0
 335 631 300 388 300 388 c 1
 300 388 452 422 465 422 c 0
 480 422 481 405 481 377 c 2
 481 357 l 2
 481 336 479 315 465 315 c 0
 442 315 300 345 300 345 c 1xe8
 300 345 332 -199 332 -200 c 0
 332 -220 316 -222 284 -222 c 2
 259 -222 l 2
 210 -222 205 -221 205 -203 c 0xf0
 205 -178 237 345 237 345 c 1
 237 345 82 315 72 315 c 0
 58 315 56 332 56 348 c 2xe8
EndSplineSet
EndChar

StartChar: bar
Encoding: 124 124 113
Width: 190
VWidth: 0
Flags: W
HStem: -218 21G<90 100> 645 20G<90 99.5>
VStem: 63 64<-217.425 664.318>
AnchorPoint: "l;hi2" 0 671 basechar 0
AnchorPoint: "l;bl" 0 9 basechar 0
AnchorPoint: "l;lo" 0 -201 basechar 0
AnchorPoint: "l;o" 0 200 basechar 0
AnchorPoint: "l;hi" 0 611 basechar 0
AnchorPoint: "l;x" 0 385 basechar 0
AnchorPoint: "r;hi2" 190 671 basechar 0
AnchorPoint: "r;bl" 190 9 basechar 0
AnchorPoint: "r;lo" 190 -201 basechar 0
AnchorPoint: "r;o" 190 200 basechar 0
AnchorPoint: "r;hi" 190 611 basechar 0
AnchorPoint: "r;x" 190 385 basechar 0
LayerCount: 3
Fore
SplineSet
127 -214 m 1
 116 -216 105 -218 95 -218 c 0
 85 -218 74 -216 63 -214 c 1
 63 661 l 1
 76 663 86 665 94 665 c 0
 105 665 114 663 127 661 c 1
 127 -214 l 1
EndSplineSet
EndChar

StartChar: braceright
Encoding: 125 125 114
Width: 328
Flags: W
HStem: -215 32<12.0051 73.9243> 629 32<12.0051 73.4531>
VStem: 97 90<-165.882 174.906 269.848 611.66>
AnchorPoint: "r;hi2" 266 670 basechar 0
AnchorPoint: "r;bl" 310 12 basechar 0
AnchorPoint: "r;lo" 266 -198 basechar 0
AnchorPoint: "r;o" 328 200 basechar 0
AnchorPoint: "r;hi" 266 605 basechar 0
AnchorPoint: "r;x" 328 383 basechar 0
AnchorPoint: "l;hi2" 0 670 basechar 0
AnchorPoint: "l;bl" 36 12 basechar 0
AnchorPoint: "l;lo" 0 -198 basechar 0
AnchorPoint: "l;o" 36 200 basechar 0
AnchorPoint: "l;hi" 0 605 basechar 0
AnchorPoint: "l;x" 36 383 basechar 0
LayerCount: 3
Fore
SplineSet
187 73 m 2
 187 -12 l 2
 187 -107 185 -147 158 -177 c 0
 146 -190 101 -215 47 -215 c 0
 13 -215 12 -215 12 -198 c 0
 12 -181 19 -184 29 -183 c 0
 53 -180 97 -182 97 -87 c 2
 97 46 l 2
 97 153 105 195 186 216 c 0
 200 220 207 220 207 223 c 0
 207 226 200 226 186 229 c 0
 105 248 97 288 97 395 c 2
 97 533 l 2
 97 628 53 626 29 629 c 0
 19 630 12 627 12 644 c 0
 12 661 13 661 47 661 c 0
 80 661 125 650 147 633 c 0
 184 604 187 563 187 454 c 2
 187 368 l 2
 187 237 249 240 277 234 c 0
 285 232 290 231 290 222 c 0
 290 191 187 282 187 73 c 2
EndSplineSet
EndChar

StartChar: OE
Encoding: 338 338 115
Width: 1039
VWidth: 0
Flags: W
HStem: -26 40<322.604 481.159> 0 32<567.012 916.923> 305 26<732.592 799.922> 604 32<565.809 874.891> 620 38<316.449 463.279>
VStem: 36 153<195.503 439.738> 597 134<197.574 305 331 443.094> 835 29<195.001 267.625 370.86 454.999> 980 18<128.168 138.762>
AnchorPoint: "l;o" 0 200 basechar 0
AnchorPoint: "l;hi" 50 605 basechar 0
AnchorPoint: "l;x" 0 386 basechar 0
AnchorPoint: "l;bl" 50 13 basechar 0
AnchorPoint: "r;o" 1039 200 basechar 0
AnchorPoint: "r;hi" 1021 605 basechar 0
AnchorPoint: "r;x" 1021 386 basechar 0
AnchorPoint: "r;bl" 1039 13 basechar 0
LayerCount: 3
Fore
SplineSet
388 620 m 0xaf80
 248 620 189 457 189 330 c 0
 189 187 251 14 401 14 c 0
 478 14 597 62 597 304 c 0
 597 517 496 620 388 620 c 0xaf80
441 -20 m 0
 421 -24 402 -26 382 -26 c 0
 207 -26 36 93 36 325 c 0
 36 470 146 658 371 658 c 0xaf80
 392 658 413 657 432 653 c 0
 527 637 490 636 586 636 c 2
 831 636 l 2
 880 636 922 641 932 641 c 0
 948 641 942 629 953 561 c 0
 957 534 962 507 962 494 c 0
 962 487 958 486 955 485 c 0
 947 481 941 492 940 493 c 0
 924 514 879 604 852 604 c 0
 763 604 676 604 587 604 c 0
 573 604 565 604 565 600 c 0
 565 597 570 593 585 584 c 0
 659 539 713 472 728 377 c 0
 733 334 730 331 750 331 c 2
 761 331 l 2
 832 331 830 411 835 446 c 0
 836 454 839 455 850 455 c 0
 861 455 864 454 864 446 c 0
 864 433 857 403 857 321 c 0
 857 239 864 217 864 204 c 0
 864 196 861 195 850 195 c 0
 839 195 836 196 835 204 c 0
 830 239 827 305 762 305 c 2
 753 305 l 2
 736 305 733 303 731 280 c 0
 720 180 666 105 590 56 c 0
 575 46 567 42 567 38 c 0
 567 33 584 32 591 32 c 2
 877 32 l 2
 916 32 920 46 980 141 c 0
 983 145 986 149 994 147 c 0
 1002 145 1003 145 1003 139 c 0
 1003 134 1001 124 998 111 c 0
 983 41 978 0 965 0 c 2
 560 0 l 2x7780
 486 0 527 -4 441 -20 c 0
EndSplineSet
EndChar

StartChar: AE
Encoding: 198 198 116
Width: 944
VWidth: 0
Flags: W
HStem: 0 32<148.025 240.295 589.304 830.174> 236 45<268.001 459> 305 26<589 705.371> 604 32<427.804 457.588 589.719 790.344>
VStem: 459 303<202.616 236 281 445.377> 459 130<33.4399 236 281 304.828 331.003 603.901> 740 29<193.001 267 370.86 454.999> 885 18<126.308 136.763>
DStem2: 147 142 234 223 0.471833 0.881688<-82.6736 136.387 184.184 520.537>
AnchorPoint: "r;bl" 944 12 basechar 0
AnchorPoint: "r;x" 926 386 basechar 0
AnchorPoint: "r;hi" 926 605 basechar 0
AnchorPoint: "r;o" 944 198 basechar 0
AnchorPoint: "l;bl" 0 12 basechar 0
AnchorPoint: "l;x" 139 386 basechar 0
AnchorPoint: "l;hi" 205 605 basechar 0
AnchorPoint: "l;o" 74 198 basechar 0
LayerCount: 3
Fore
SplineSet
443 605 m 2xf5
 439 605 431 599 418 567 c 2
 277 302 l 2
 273 297 268 289 268 286 c 0
 268 284 270 281 275 281 c 2
 459 281 l 1xf9
 459 558 l 2
 459 586 458 605 446 605 c 2
 443 605 l 2xf5
762 319 m 0
 762 237 769 215 769 202 c 0
 769 194 766 193 755 193 c 0
 744 193 741 194 740 202 c 0
 735 238 732 305 667 305 c 2
 622 305 l 2
 607 305 589 305 589 294 c 2
 589 53 l 2
 589 43 591 32 620 32 c 2
 794 32 l 2
 828 32 832 45 885 139 c 0
 888 143 891 147 899 145 c 0
 907 143 908 143 908 137 c 0
 908 132 906 123 903 110 c 0
 888 41 883 0 870 0 c 2
 381 0 l 1
 380 2 378 6 378 10 c 0
 378 37 459 -20 459 74 c 2xf7
 459 236 l 1xf9
 254 236 l 2
 243 236 240 235 234 223 c 0
 152 66 148 62 148 47 c 0
 148 15 182 33 225 26 c 0
 234 24 241 20 241 12 c 0
 241 7 240 2 239 0 c 1
 29 0 l 1
 28 2 26 6 26 10 c 0
 26 28 48 13 74 32 c 0
 92 45 101 53 147 142 c 2
 383 583 l 2
 394 598 394 604 383 606 c 0
 361 612 338 606 338 624 c 0
 338 629 340 634 341 636 c 1
 736 636 l 2
 785 636 828 641 838 641 c 0
 854 641 847 629 858 561 c 0
 862 534 867 507 867 494 c 0
 867 487 864 486 861 485 c 0
 854 481 849 492 848 493 c 0
 834 514 794 604 770 604 c 2
 607 604 l 2
 596 604 589 595 589 581 c 2
 589 340 l 2
 589 332 599 331 612 331 c 2
 667 331 l 2
 737 331 735 411 740 446 c 0
 741 454 744 455 755 455 c 0
 766 455 769 454 769 446 c 0xf7
 769 433 762 401 762 319 c 0
EndSplineSet
EndChar

StartChar: oe
Encoding: 339 339 117
Width: 771
VWidth: 0
Flags: W
HStem: -15 70<514.678 649.161> -15 34<193.144 298.36> 249 26<463 623.908> 372 34<204.477 298.323 503.638 597.903>
VStem: 22 124<94.7396 286.117> 350 106<116.34 248.251> 624 114<276.136 334.512>
AnchorPoint: "r;o" 771 201 basechar 0
AnchorPoint: "r;x" 753 383 basechar 0
AnchorPoint: "r;bl" 753 13 basechar 0
AnchorPoint: "l;o" 0 201 basechar 0
AnchorPoint: "l;x" 29 383 basechar 0
AnchorPoint: "l;bl" 29 13 basechar 0
LayerCount: 3
Fore
SplineSet
249 372 m 0x7e
 190 372 146 304 146 194 c 0
 146 98 165 19 244 19 c 0
 327 19 350 105 350 194 c 0
 350 325 307 372 249 372 c 0x7e
553 376 m 0
 526 376 476 356 463 275 c 1
 577 275 l 2
 624 275 624 278 624 293 c 0
 624 332 599 376 553 376 c 0
564 406 m 0
 710 406 738 295 738 278 c 0
 738 249 737 249 646 249 c 2
 461 249 l 1
 457 233 456 218 456 203 c 0
 456 119 499 55 596 55 c 0
 624 55 680 57 722 113 c 1
 730 111 739 106 742 101 c 1
 708 30 639 -15 556 -15 c 0xbe
 459 -15 421 39 400 68 c 1
 400 68 355 -15 234 -15 c 0
 124 -15 22 50 22 196 c 0
 22 306 111 406 249 406 c 0
 374 406 406 333 406 333 c 1
 406 333 454 406 564 406 c 0
EndSplineSet
EndChar

StartChar: ae
Encoding: 230 230 118
Width: 686
VWidth: 0
Flags: W
HStem: -15 70<433.316 563.342> -15 48<110 240.289> 188 21<246.056 269> 248 26<377 538.865> 364 42<141.413 253.101> 376 30<425.154 508.515>
VStem: 29 105<275.194 333.826> 37 119<39.4201 118.271> 539 113<275.136 334.283>
AnchorPoint: "r;o" 686 200 basechar 0
AnchorPoint: "r;x" 668 383 basechar 0
AnchorPoint: "r;bl" 668 13 basechar 0
AnchorPoint: "l;o" 0 200 basechar 0
AnchorPoint: "l;x" 18 383 basechar 0
AnchorPoint: "l;bl" 0 13 basechar 0
LayerCount: 3
Fore
SplineSet
272 188 m 1x7180
 264 185 242 180 220 169 c 0
 189 153 156 135 156 85 c 0
 156 56 173 33 198 33 c 0
 204 33 232 38 256 53 c 0
 269 62 288 84 290 105 c 1
 279 132 273 159 272 188 c 1x7180
370 202 m 0
 370 146 390 99 433 74 c 0
 434 74 434 73 435 73 c 0
 456 62 480 55 510 55 c 0
 538 55 594 58 636 113 c 1
 644 111 654 106 657 101 c 1
 623 31 553 -15 470 -15 c 0xb680
 413 -15 360 7 316 72 c 1
 307 56 287 29 243 8 c 0
 218 -3 184 -15 138 -15 c 0
 82 -15 37 15 37 70 c 0x7180
 37 124 101 168 269 209 c 1
 269 250 l 2
 269 321 266 364 201 364 c 0
 159 364 134 346 134 329 c 0
 134 324 141 310 141 292 c 0
 141 261 117 247 89 247 c 0
 60 247 29 263 29 295 c 0
 29 346 157 406 245 406 c 0x7a80
 301 406 334 380 353 348 c 1
 375 374 432 406 483 406 c 0x3680
 626 406 652 295 652 277 c 0
 652 248 651 248 560 248 c 2
 375 248 l 1
 369 233 370 207 370 202 c 0
467 376 m 0
 440 376 390 356 377 274 c 1
 491 274 l 2
 538 274 539 277 539 292 c 0
 539 332 513 376 467 376 c 0
EndSplineSet
EndChar

StartChar: zero
Encoding: 48 48 119
Width: 508
VWidth: 0
Flags: W
HStem: -15 36<200.856 295.654> 350 38<194.107 293.988>
VStem: 34 111<94.2927 282.606> 346 116<96.3757 283.319>
LayerCount: 3
Fore
SplineSet
462 190 m 0
 462 55 354 -15 245 -15 c 0
 138 -15 34 51 34 191 c 0
 34 322 141 388 249 388 c 0
 357 388 462 325 462 190 c 0
145 190 m 0
 145 77 196 21 249 21 c 0
 299 21 346 74 346 181 c 0
 346 294 299 350 243 350 c 0
 189 350 145 295 145 190 c 0
EndSplineSet
EndChar

StartChar: slash
Encoding: 47 47 120
Width: 322
VWidth: 488
Flags: W
HStem: 645 20G<275.911 293>
DStem2: -25 -204 41 -227 0.334068 0.942549<-1.65997 925.01>
LayerCount: 3
Fore
SplineSet
-25 -204 m 1
 283 665 l 1
 303 665 342 651 349 642 c 1
 41 -227 l 1
 18 -224 -14 -212 -25 -204 c 1
EndSplineSet
EndChar

StartChar: one
Encoding: 49 49 121
Width: 253
VWidth: 0
Flags: W
HStem: 0 21G<31.5 225.5> 357 20G<31.5 225.5>
VStem: 75 108<18.3992 350.715>
LayerCount: 3
Fore
SplineSet
75 315 m 2
 75 334 71 345 67 351 c 0
 56 366 31 354 31 369 c 0
 31 372 31 375 32 377 c 1
 225 377 l 1
 226 375 227 372 227 369 c 0
 227 355 202 366 190 351 c 0
 186 345 183 334 183 315 c 2
 183 62 l 2
 183 49 183 39 186 33 c 0
 196 8 227 25 227 8 c 0
 227 5 226 2 225 0 c 1
 32 0 l 1
 31 2 31 5 31 8 c 0
 31 24 62 8 71 33 c 0
 74 39 75 49 75 62 c 2
 75 315 l 2
EndSplineSet
EndChar

StartChar: two
Encoding: 50 50 122
Width: 367
VWidth: 0
Flags: W
HStem: 0 77<129.004 311.875> 324 64<116.042 222.5>
VStem: 205 101<238.902 309.263>
LayerCount: 3
Fore
SplineSet
143 324 m 0
 116 324 96 308 82 308 c 0
 75 308 72 316 71 324 c 0
 71 327 68 329 74 335 c 0
 93 360 151 388 191 388 c 0
 254 388 306 363 306 304 c 0
 306 236 233 178 203 151 c 0
 167 118 129 84 129 81 c 0
 129 77 135 77 147 77 c 2
 267 77 l 2
 303 77 301 79 311 86 c 0
 318 92 325 94 329 94 c 0
 336 94 338 89 338 82 c 0
 338 77 337 72 334 66 c 2
 310 18 l 2
 301 1 299 0 287 0 c 2
 69 0 l 2
 53 0 53 0 50 11 c 0
 49 16 48 18 48 22 c 0
 48 30 57 43 67 57 c 0
 141 134 205 192 205 254 c 0
 205 296 181 324 143 324 c 0
EndSplineSet
EndChar

StartChar: three
Encoding: 51 51 123
Width: 361
VWidth: 0
Flags: W
HStem: -213 58<75.0509 175.974> 327 61<103.132 184.17>
VStem: 209 87<227.93 301.201> 224 98<-76.7714 42.2595>
LayerCount: 3
Fore
SplineSet
89 -133 m 0xd0
 115 -133 123 -155 139 -155 c 0
 156 -155 170 -141 183 -129 c 0
 210 -104 224 -67 224 -25 c 0xd0
 224 54 162 78 128 84 c 0
 119 86 101 87 101 100 c 0
 101 108 112 115 126 125 c 0
 185 166 209 200 209 251 c 0
 209 275 184 327 139 327 c 0
 93 327 80 306 69 306 c 0
 64 306 61 310 59 317 c 0
 56 323 55 324 61 331 c 0
 77 357 134 388 178 388 c 0
 236 388 296 359 296 294 c 0xe0
 296 232 248 193 183 144 c 1
 213 135 322 90 322 -1 c 0
 322 -56 289 -102 246 -140 c 0
 201 -180 153 -213 98 -213 c 0
 76 -213 56 -198 56 -175 c 0
 56 -150 68 -133 89 -133 c 0xd0
EndSplineSet
EndChar

StartChar: four
Encoding: 52 52 124
Width: 497
VWidth: 0
Flags: W
HStem: -216 21G<278 324.5> 0 77<72 250 348 460.591> 362 20G<305.5 341.5>
VStem: 243 105<-214.722 0> 250 98<-196 0 77 314>
LayerCount: 3
Fore
SplineSet
72 77 m 1xe8
 250 77 l 1
 250 314 l 1
 205 274 114 147 72 77 c 1xe8
352 346 m 2
 352 256 348 278 348 119 c 2
 348 77 l 1xe8
 436 77 l 2
 460 77 461 75 461 38 c 0
 461 2 458 0 438 0 c 2
 348 0 l 1
 348 -140 l 2
 348 -178 351 -198 351 -204 c 0
 351 -214 345 -216 304 -216 c 0
 252 -216 243 -214 243 -196 c 2xf0
 250 0 l 1
 73 0 l 2
 49 0 37 0 37 34 c 0
 37 42 39 55 42 61 c 0
 108 175 279 382 332 382 c 0
 351 382 352 369 352 354 c 2
 352 346 l 2
EndSplineSet
EndChar

StartChar: five
Encoding: 53 53 125
Width: 414
VWidth: 0
Flags: W
HStem: -213 53<81 179.784> 293 84<161.417 337.732>
VStem: 75 70<156.5 229.359> 229 88<-76.4329 57.1582>
LayerCount: 3
Fore
SplineSet
307 293 m 2
 183 293 l 2
 176 293 169 300 165 282 c 0
 159 263 145 234 145 217 c 0
 145 199 178 198 223 169 c 0
 258 147 317 89 317 7 c 0
 317 -37 299 -87 250 -140 c 0
 199 -194 151 -213 100 -213 c 0
 62 -213 36 -197 36 -171 c 0
 36 -151 47 -129 78 -129 c 0
 111 -129 118 -160 136 -160 c 0
 169 -160 229 -107 229 -21 c 0
 229 43 202 91 92 133 c 0
 76 139 75 151 75 162 c 0
 75 181 104 236 135 349 c 0
 138 368 148 377 170 377 c 2
 313 377 l 2
 328 377 327 398 343 398 c 0
 351 398 359 391 359 382 c 0
 359 368 356 371 341 325 c 0
 333 298 328 293 307 293 c 2
EndSplineSet
EndChar

StartChar: six
Encoding: 54 54 126
Width: 511
VWidth: 0
Flags: W
HStem: -15 32<216.664 301.489> 329 37<204.529 302.156>
VStem: 48 112<103.436 286.711> 350 116<87.4083 267.045>
LayerCount: 3
Fore
SplineSet
280 366 m 0
 428 366 466 242 466 171 c 0
 466 83 396 -15 265 -15 c 0
 138 -15 48 80 48 197 c 0
 48 318 140 425 221 501 c 0
 271 549 334 584 349 584 c 0
 358 584 365 572 365 567 c 0
 365 560 359 555 351 549 c 0
 331 535 295 502 273 474 c 0
 241 435 209 382 189 337 c 1
 189 337 218 366 280 366 c 0
249 329 m 0
 181 329 160 255 160 188 c 0
 160 99 191 17 263 17 c 0
 325 17 350 106 350 179 c 0
 350 249 331 329 249 329 c 0
EndSplineSet
EndChar

StartChar: seven
Encoding: 55 55 127
Width: 358
VWidth: 0
Flags: W
HStem: -211 21G<113.5 127.5> 295 84<82.671 264> 386 20G<71 79.5>
VStem: 27 14<257.077 270.981>
LayerCount: 3
Fore
SplineSet
65 399 m 2
 67 405 69 406 73 406 c 0
 86 406 91 379 115 379 c 2
 291 379 l 2
 300 379 305 375 305 367 c 0
 305 344 236 157 194 18 c 0
 125 -210 134 -211 121 -211 c 0
 106 -211 77 -211 77 -201 c 0
 77 -196 210 135 264 295 c 1
 76 295 l 2
 69 295 62 295 41 261 c 0
 39 259 38 257 35 257 c 0
 31 257 27 260 27 264 c 1
 27 264 30 282 43 326 c 2
 65 399 l 2
EndSplineSet
EndChar

StartChar: eight
Encoding: 56 56 128
Width: 419
VWidth: 0
Flags: W
HStem: -15 28<165.865 251.831> 563 34<157.65 266.553>
VStem: 36 81<67.5848 211.409 394.446 505.908> 297 84<76.9723 201.078> 305 77<402.411 530.954>
LayerCount: 3
Fore
SplineSet
221 597 m 0xf0
 303 597 382 544 382 467 c 0xe8
 382 377 265 317 265 317 c 1
 265 317 381 260 381 162 c 0
 381 72 314 -15 210 -15 c 0
 113 -15 36 56 36 145 c 0
 36 243 157 285 157 285 c 1
 157 285 42 340 42 436 c 0
 42 533 121 597 221 597 c 0xf0
176 273 m 1
 176 273 117 232 117 155 c 0
 117 88 142 13 207 13 c 0
 266 13 297 70 297 131 c 0xf0
 297 237 176 273 176 273 c 1
208 563 m 0
 160 563 117 524 117 472 c 0
 117 350 232 330 232 330 c 1
 232 330 305 349 305 459 c 0xe8
 305 534 259 563 208 563 c 0
EndSplineSet
EndChar

StartChar: nine
Encoding: 57 57 129
Width: 486
VWidth: 0
Flags: W
HStem: -220 21G<152 160> 0 32<205.75 295.419> 353 35<201.747 291.427>
VStem: 40 112<106.795 282.452> 348 101<81.4843 269.251>
LayerCount: 3
Fore
SplineSet
157 -220 m 0
 147 -220 146 -213 146 -208 c 0
 146 -201 150 -200 163 -187 c 0
 190 -159 214 -132 238 -99 c 0
 260 -67 297 -13 313 26 c 1
 280 5 261 0 228 0 c 0
 76 0 40 139 40 203 c 0
 40 296 126 388 246 388 c 0
 373 388 449 276 449 176 c 0
 449 -17 267 -147 193 -202 c 0
 172 -217 163 -220 157 -220 c 0
247 353 m 0
 178 353 152 267 152 189 c 0
 152 94 193 32 250 32 c 0
 274 32 303 43 323 75 c 0
 341 105 348 154 348 191 c 0
 348 267 310 353 247 353 c 0
EndSplineSet
EndChar

StartChar: .notdef
Encoding: 65542 -1 130
Width: 536
VWidth: 0
Flags: W
HStem: -63 49<133.346 218.654> 67 55<171.176 201.646> 596 79<173.013 336.393> 635 40<132.146 175.293>
VStem: 26 144<122.018 263.822> 26 133<124.314 281> 26 102<-7.14453 59.8281 548.74 634.993> 434 76<273.647 486.982>
LayerCount: 3
Fore
SplineSet
26 675 m 25xd3
 510 675 l 25
 510 -63 l 25
 26 -63 l 25
 26 675 l 25xd3
159 547 m 2xd5
 212 547 l 2
 386 547 394 434 394 393 c 2
 394 383 l 2
 394 313 376 281 288 281 c 2
 181 281 l 2
 164 281 159 274 159 265 c 0xd5
 159 240 169 207 170 148 c 0
 170 147 173 122 188 122 c 0
 198 122 204 137 212 207 c 0
 215 228 224 223 350 237 c 0
 407 244 434 287 434 376 c 0
 434 439 416 485 396 518 c 0
 353 591 279 596 209 596 c 0xe9
 191 596 192 597 179 611 c 0
 169 622 160 635 150 635 c 0
 141 635 131 626 131 603 c 0
 131 563 141 547 159 547 c 2xd5
128 26 m 0xc3
 128 4 150 -14 176 -14 c 0
 202 -14 224 4 224 26 c 0
 224 48 202 67 176 67 c 0
 150 67 128 48 128 26 c 0xc3
EndSplineSet
EndChar

StartChar: minute
Encoding: 8242 8242 131
Width: 218
VWidth: 0
Flags: W
HStem: 369 311<38 142>
VStem: 22 154
LayerCount: 3
Fore
SplineSet
22 383 m 4
 22 400 40 453 49 479 c 4
 82 581 84 680 142 680 c 4
 151 680 176 675 176 644 c 4
 176 597 135 525 110 461 c 4
 68 393 60 369 38 369 c 4
 24 369 22 377 22 383 c 4
EndSplineSet
EndChar

StartChar: second
Encoding: 8243 8243 132
Width: 304
VWidth: 0
Flags: W
HStem: 373 307<37 118 140 142 144 240>
VStem: 22 247
LayerCount: 3
Fore
SplineSet
22 385 m 0
 22 401 58 595 70 644 c 0
 76 668 95 680 118 680 c 0
 142 680 156 658 156 642 c 0
 156 613 121 533 98 463 c 16
 68 408 58 373 37 373 c 0
 29 373 22 378 22 385 c 0
134 389 m 0
 134 403 146 449 159 485 c 16
 191 576 196 679 240 679 c 0
 259 679 269 666 269 646 c 0
 269 615 249 580 193 464 c 0
 163 404 158 374 144 374 c 0
 140 374 134 376 134 389 c 0
EndSplineSet
EndChar

StartChar: quotesingle
Encoding: 39 39 133
Width: 243
VWidth: 0
Flags: W
HStem: 373 307<96.5883 151.208>
VStem: 67 118<467.427 667.544> 85 80<380.99 619.304>
LayerCount: 3
Fore
SplineSet
131 680 m 0xc0
 172 680 185 654 185 621 c 0xc0
 185 585 172 538 165 484 c 0
 157 409 159 373 120 373 c 0
 96 373 92 396 85 483 c 0xa0
 79 550 67 588 67 622 c 0
 67 674 114 680 131 680 c 0xc0
EndSplineSet
EndChar

StartChar: quotedbl
Encoding: 34 34 134
Width: 419
VWidth: 0
Flags: W
HStem: 373 307<96.5883 151.208 273.588 328.208>
VStem: 67 118<467.427 667.544> 85 80<380.99 619.304> 244 118<467.427 667.544> 262 80<380.99 619.304>
LayerCount: 3
Fore
SplineSet
308 680 m 0x90
 349 680 362 654 362 621 c 0x90
 362 585 349 538 342 484 c 0
 334 409 336 373 297 373 c 0
 273 373 269 396 262 483 c 0x88
 256 550 244 588 244 622 c 0
 244 674 291 680 308 680 c 0x90
131 680 m 0
 172 680 185 654 185 621 c 0xc0
 185 585 172 538 165 484 c 0
 157 409 159 373 120 373 c 0
 96 373 92 396 85 483 c 0xa0
 79 550 67 588 67 622 c 0xc0
 67 674 114 680 131 680 c 0
EndSplineSet
EndChar

StartChar: uni2053
Encoding: 8275 8275 135
Width: 929
VWidth: 0
Flags: W
HStem: 99 65<610.079 743.81> 273 73<184.967 319.614>
VStem: 54 45<103.139 173.231> 830 45<279.655 339.396>
LayerCount: 3
Fore
SplineSet
54 106 m 1
 54 106 91 346 266 346 c 0
 431 346 557 164 690 164 c 0
 790 164 830 345 830 345 c 1
 844 345 864 342 875 337 c 1
 860 253 802 99 665 99 c 0
 495 99 369 273 231 273 c 0
 123 273 99 98 99 98 c 1
 82 98 69 99 54 106 c 1
EndSplineSet
EndChar

StartChar: fraction
Encoding: 8260 8260 137
Width: 487
VWidth: 488
Flags: W
DStem2: -18 -42 26 -76 0.541329 0.840811<-4.97737 876.508>
LayerCount: 3
Fore
SplineSet
-18 -42 m 1
 455 692 l 1
 472 687 489 681 505 668 c 1
 26 -76 l 1
 8 -72 -7 -60 -18 -42 c 1
EndSplineSet
EndChar

StartChar: guilsinglleft
Encoding: 8249 8249 138
Width: 355
Flags: W
HStem: 359 20G<308.5 318>
VStem: 34 291
LayerCount: 3
Fore
SplineSet
122 200 m 1
 216 145 325 51 325 32 c 0
 325 26 322 21 314 21 c 0
 303 21 303 23 236 71 c 0
 138 142 34 193 34 200 c 0
 34 207 138 258 236 329 c 0
 303 377 303 379 314 379 c 0
 322 379 325 374 325 368 c 0
 325 349 216 255 122 200 c 1
EndSplineSet
EndChar

StartChar: guilsinglright
Encoding: 8250 8250 139
Width: 355
Flags: W
HStem: 359 20G<41 50.5>
VStem: 34 291
LayerCount: 3
Fore
SplineSet
133 200 m 1
 87 255 34 349 34 368 c 0
 34 374 37 379 45 379 c 0
 56 379 57 377 124 329 c 0
 222 258 325 207 325 200 c 0
 325 193 222 142 124 71 c 0
 57 23 56 21 45 21 c 0
 37 21 34 26 34 32 c 0
 34 51 87 145 133 200 c 1
EndSplineSet
EndChar

StartChar: guillemotright
Encoding: 187 187 140
Width: 413
Flags: W
HStem: 359 20G<38.5 44.5 191.5 197.5>
LayerCount: 3
Fore
SplineSet
133 200 m 1
 87 255 34 349 34 368 c 0
 34 374 36 379 41 379 c 0
 48 379 49 377 92 329 c 0
 155 258 221 207 221 200 c 0
 221 193 155 142 92 71 c 0
 49 23 48 21 41 21 c 0
 36 21 34 26 34 32 c 0
 34 51 87 145 133 200 c 1
286 200 m 1
 240 255 187 349 187 368 c 0
 187 374 189 379 194 379 c 0
 201 379 202 377 245 329 c 0
 308 258 374 207 374 200 c 0
 374 193 308 142 245 71 c 0
 202 23 201 21 194 21 c 0
 189 21 187 26 187 32 c 0
 187 51 240 145 286 200 c 1
EndSplineSet
EndChar

StartChar: ordmasculine
Encoding: 186 186 141
Width: 501
VWidth: 0
Flags: W
HStem: 409 22<217.235 280.14> 645 22<222.989 283.127>
VStem: 100 90<465.623 604.36> 312 90<471.837 612.055>
LayerCount: 3
Fore
SplineSet
402 541 m 0
 402 466 339 409 247 409 c 0
 170 409 100 450 100 539 c 0
 100 606 162 667 257 667 c 0
 353 667 402 611 402 541 c 0
252 645 m 0
 216 645 190 604 190 538 c 0
 190 480 200 431 248 431 c 0
 297 431 312 484 312 538 c 0
 312 617 286 645 252 645 c 0
EndSplineSet
EndChar

StartChar: guillemotleft
Encoding: 171 171 142
Width: 421
Flags: W
HStem: 359 20G<210.5 216.5 363.5 369.5>
LayerCount: 3
Fore
SplineSet
275 200 m 1
 321 145 374 51 374 32 c 0
 374 26 372 21 367 21 c 0
 360 21 360 23 317 71 c 0
 254 142 187 193 187 200 c 0
 187 207 254 258 317 329 c 0
 360 377 360 379 367 379 c 0
 372 379 374 374 374 368 c 0
 374 349 321 255 275 200 c 1
122 200 m 1
 168 145 221 51 221 32 c 0
 221 26 219 21 214 21 c 0
 207 21 207 23 164 71 c 0
 101 142 34 193 34 200 c 0
 34 207 101 258 164 329 c 0
 207 377 207 379 214 379 c 0
 219 379 221 374 221 368 c 0
 221 349 168 255 122 200 c 1
EndSplineSet
EndChar

StartChar: logicalnot
Encoding: 172 172 143
Width: 545
VWidth: 0
Flags: W
HStem: 223 56<53.1875 417>
VStem: 417 66<32 223>
LayerCount: 3
Fore
SplineSet
56 223 m 1
 54 233 53 242 53 252 c 0
 53 262 54 272 56 279 c 1
 483 279 l 1
 483 32 l 1
 475 31 462 30 451 30 c 0
 440 30 427 31 417 32 c 1
 417 223 l 1
 56 223 l 1
EndSplineSet
EndChar

StartChar: backslash
Encoding: 92 92 144
Width: 323
VWidth: 488
Flags: W
HStem: 645 20G<27.5 45.0886>
DStem2: 38 665 -29 642 0.334068 -0.942549<-2.98692 923.438>
LayerCount: 3
Fore
SplineSet
346 -204 m 1
 335 -212 303 -224 279 -227 c 1
 -29 642 l 1
 -22 651 17 665 38 665 c 1
 346 -204 l 1
EndSplineSet
EndChar

StartChar: underscore
Encoding: 95 95 145
Width: 405
VWidth: 0
Flags: W
HStem: -85 64<22.006 381.828>
LayerCount: 3
Fore
SplineSet
37 -21 m 2
 371 -21 l 2
 383 -21 382 -31 382 -42 c 2
 382 -57 l 2
 382 -67 381 -85 371 -85 c 2
 34 -85 l 2
 24 -85 22 -79 22 -62 c 2
 22 -43 l 2
 22 -27 27 -21 37 -21 c 2
EndSplineSet
EndChar

StartChar: asciicircum
Encoding: 94 94 146
Width: 389
VWidth: 0
Flags: W
HStem: 644 20G<195 197>
VStem: 37 319
DStem2: 202 663 176 545 0.371391 -0.928477<99.9041 399.789>
LayerCount: 3
Fore
SplineSet
37 278 m 1
 190 663 l 1
 192 664 194 664 196 664 c 0
 198 664 200 664 202 663 c 1
 356 278 l 1
 344 276 332 274 319 274 c 0
 307 274 296 276 283 278 c 1
 176 545 l 1
 88 278 l 1
 78 276 72 274 61 274 c 0
 52 274 44 276 37 278 c 1
EndSplineSet
EndChar

StartChar: numbersign
Encoding: 35 35 147
Width: 426
VWidth: 0
Flags: W
HStem: 230 43<18.0357 101 172 228 298 404.927> 338 43<22.0183 131 202 258 328 408.923>
DStem2: 42 19 101 19 0.268799 0.963196<6.13488 219.094 279.596 331.183 391.685 590.552> 169 19 227 19 0.268799 0.963196<5.4252 219.094 279.327 331.183 391.416 590.495>
LayerCount: 3
Fore
SplineSet
42 19 m 1
 101 230 l 1
 22 230 l 1
 20 237 18 245 18 253 c 0
 18 259 19 266 22 273 c 1
 113 273 l 1
 131 338 l 1
 25 338 l 1
 23 345 22 351 22 358 c 0
 22 365 23 374 25 381 c 1
 143 381 l 1
 198 578 l 1
 208 581 217 582 227 582 c 0
 238 582 247 581 257 578 c 1
 202 381 l 1
 270 381 l 1
 325 578 l 1
 335 581 345 582 353 582 c 0
 363 582 372 580 383 578 c 1
 328 381 l 1
 405 381 l 1
 408 375 409 368 409 362 c 0
 409 354 407 346 405 338 c 1
 316 338 l 1
 298 273 l 1
 402 273 l 1
 404 267 405 261 405 255 c 0
 405 247 404 238 402 230 c 1
 286 230 l 1
 227 19 l 1
 217 17 209 15 199 15 c 0
 191 15 183 16 169 19 c 1
 228 230 l 1
 160 230 l 1
 101 19 l 1
 90 17 79 15 67 15 c 0
 59 15 50 16 42 19 c 1
172 273 m 1
 240 273 l 1
 258 338 l 1
 190 338 l 1
 172 273 l 1
EndSplineSet
EndChar

StartChar: asterisk
Encoding: 42 42 148
Width: 452
VWidth: 0
Flags: W
HStem: 426 67<183.344 206 250.001 274.756> 645 20G<213.5 243>
VStem: 165 118<270.32 363.75> 167 124<568.426 654.309> 206 39<368.659 425.981 498.066 541.537>
LayerCount: 3
Fore
SplineSet
40 376 m 0xc8
 40 430 182 441 182 458 c 0
 182 485 40 471 40 539 c 0
 40 571 71 580 79 580 c 0
 113 580 187 498 207 498 c 0
 211 498 211 501 211 506 c 0
 211 531 167 604 167 619 c 0
 167 648 198 665 229 665 c 0
 257 665 291 654 291 613 c 0xd0
 291 592 250 521 250 500 c 0
 250 495 251 493 255 493 c 0
 275 493 334 577 375 577 c 0
 397 577 413 563 413 544 c 0
 413 473 276 479 276 458 c 0
 276 434 404 437 404 372 c 0
 404 353 395 335 373 335 c 0
 329 335 263 426 250 426 c 0
 249 426 245 425 245 415 c 0xc8
 245 389 283 326 283 302 c 0
 283 277 255 260 225 260 c 0
 195 260 165 278 165 299 c 0xe0
 165 322 206 407 206 424 c 0
 206 426 206 428 204 428 c 0
 190 428 120 338 75 338 c 0
 50 338 40 362 40 376 c 0xc8
EndSplineSet
EndChar

StartChar: less
Encoding: 60 60 149
Width: 685
VWidth: 10
Flags: W
DStem2: 108 220 194 206 0.882721 0.469897<69.3355 513.646> 194 206 108 190 0.88351 -0.468413<0 442.635>
LayerCount: 3
Fore
SplineSet
108 220 m 1
 572 467 l 1
 576 456 576 449 576 438 c 0
 576 427 576 418 572 407 c 1
 194 206 l 1
 572 5 l 1
 574 -6 575 -15 575 -27 c 0
 575 -36 575 -45 572 -56 c 1
 108 190 l 1
 107 193 106 199 106 206 c 0
 106 211 107 217 108 220 c 1
EndSplineSet
EndChar

StartChar: equal
Encoding: 61 61 150
Width: 705
VWidth: 0
Flags: W
HStem: 109 55<132.188 571> 244 55<132.264 571>
LayerCount: 3
Fore
SplineSet
135 109 m 1
 133 118 132 126 132 135 c 0
 132 145 133 154 135 164 c 1
 571 164 l 1
 573 155 573 147 573 137 c 0
 573 127 573 119 571 109 c 1
 135 109 l 1
135 244 m 1
 133 253 132 259 132 268 c 0
 132 279 133 288 135 299 c 1
 571 299 l 1
 573 290 572 284 572 275 c 0
 572 264 573 255 571 244 c 1
 135 244 l 1
EndSplineSet
EndChar

StartChar: greater
Encoding: 62 62 151
Width: 685
VWidth: 0
Flags: W
DStem2: 111 467 111 403 0.8823 -0.470687<12.9366 449.3> 111 9 111 -57 0.8823 0.470687<-15.7592 419.176>
LayerCount: 3
Fore
SplineSet
574 220 m 1
 575 216 576 211 576 206 c 0
 576 199 575 194 574 190 c 1
 111 -57 l 1
 108 -46 107 -35 107 -25 c 0
 107 -12 109 -2 111 9 c 1
 481 206 l 1
 111 403 l 1
 107 414 106 425 106 436 c 0
 106 447 107 456 111 467 c 1
 574 220 l 1
EndSplineSet
EndChar

StartChar: plus
Encoding: 43 43 152
Width: 582
VWidth: 0
Flags: W
HStem: 191 56<51.1436 256 311 512>
VStem: 250 66<-28 195 243 466>
LayerCount: 3
Fore
SplineSet
54 191 m 1
 52 201 51 209 51 219 c 0
 51 229 52 237 54 247 c 1
 235 247 256 243 256 243 c 1
 256 243 250 254 250 466 c 1
 261 468 273 469 283 469 c 0
 296 469 305 468 316 466 c 1
 316 254 311 243 311 243 c 1
 311 243 332 247 512 247 c 1
 514 238 514 232 514 223 c 0
 514 212 513 202 512 191 c 1
 332 191 311 195 311 195 c 1
 311 195 316 171 316 -28 c 1
 309 -29 298 -30 287 -30 c 0
 273 -30 258 -29 250 -28 c 1
 250 171 256 195 256 195 c 1
 256 195 235 191 54 191 c 1
EndSplineSet
EndChar

StartChar: minus
Encoding: 8722 8722 153
Width: 561
VWidth: 0
Flags: W
HStem: 192 55<51.3594 478.953>
LayerCount: 3
Fore
SplineSet
56 192 m 1
 53 202 51 210 51 218 c 0
 51 228 53 237 56 247 c 1
 476 247 l 1
 479 239 479 229 479 221 c 0
 479 211 479 202 476 192 c 1
 56 192 l 1
EndSplineSet
EndChar

StartChar: plusminus
Encoding: 177 177 154
Width: 551
VWidth: 0
Flags: W
HStem: 14 58<53.4524 490.933> 265 57<55.1875 245 300 490.953>
VStem: 239 67<102 269 317 493>
LayerCount: 3
Fore
SplineSet
58 14 m 1
 55 24 53 34 53 44 c 0
 53 54 55 62 58 72 c 1
 488 72 l 1
 491 62 491 54 491 44 c 0
 491 34 491 24 488 14 c 1
 58 14 l 1
58 265 m 1
 56 275 55 283 55 293 c 0
 55 303 56 312 58 322 c 1
 216 322 245 317 245 317 c 1
 245 317 239 350 239 493 c 1
 249 495 259 496 270 496 c 0
 285 496 300 494 306 493 c 1
 306 357 300 317 300 317 c 1
 300 317 337 322 488 322 c 1
 491 312 491 303 491 293 c 0
 491 283 491 275 488 265 c 1
 329 265 300 269 300 269 c 1
 300 269 306 239 306 102 c 1
 298 101 288 100 277 100 c 0
 266 100 253 101 239 102 c 1
 239 238 245 269 245 269 c 1
 245 269 216 265 58 265 c 1
EndSplineSet
EndChar

StartChar: divide
Encoding: 247 247 155
Width: 572
VWidth: 0
Flags: W
HStem: 45 116<239.536 341.324> 186 55<51.3594 527.953> 280 116<239.536 341.324>
VStem: 222 136<61.875 143.125 297.875 379.125>
LayerCount: 3
Fore
SplineSet
56 186 m 1
 53 196 51 204 51 212 c 0
 51 222 53 231 56 241 c 1
 525 241 l 1
 528 233 528 223 528 215 c 0
 528 205 528 196 525 186 c 1
 56 186 l 1
222 102 m 0
 222 133 255 161 291 161 c 0
 327 161 358 133 358 102 c 0
 358 71 327 45 291 45 c 0
 255 45 222 71 222 102 c 0
222 339 m 0
 222 370 255 396 291 396 c 0
 327 396 358 370 358 339 c 0
 358 308 327 280 291 280 c 0
 255 280 222 308 222 339 c 0
EndSplineSet
EndChar

StartChar: multiply
Encoding: 215 215 156
Width: 485
VWidth: 0
Flags: W
HStem: 373 20G<84 113.379 381.483 412>
DStem2: 92 393 43 355 0.73179 -0.68153<-4.48686 208.675 273.804 490.599> 43 57 90 17 0.731055 0.682318<1.8491 218.634 283.698 494.851>
LayerCount: 3
Fore
SplineSet
43 57 m 1
 203 206 l 1
 43 355 l 1
 59 375 76 386 92 393 c 1
 247 248 l 1
 403 393 l 1
 421 384 437 362 445 348 c 1
 292 206 l 1
 448 60 l 1
 438 37 423 25 407 16 c 1
 247 164 l 1
 90 17 l 1
 65 26 51 41 43 57 c 1
EndSplineSet
EndChar

StartChar: cent
Encoding: 162 162 157
Width: 440
VWidth: 0
Flags: W
HStem: -15 70<200.565 301.054> -3 76<200 232.293> 376 30<189.476 237>
VStem: 24 111<94.5081 294.699>
DStem2: 73 -181 122 -194 0.281446 0.959577<-1.58438 200.293 285.721 579.682 622.477 901.566>
LayerCount: 3
Fore
SplineSet
378 102 m 1xb0
 337 6 267 -15 233 -15 c 0xb0
 218 -15 198 -11 178 -3 c 1
 122 -194 l 1
 105 -194 90 -191 73 -181 c 1
 130 10 l 1
 75 36 24 90 24 199 c 0
 24 318 109 406 243 406 c 0
 244 406 245 406 246 406 c 2
 325 676 l 1
 332 677 342 678 349 678 c 0
 359 678 367 676 376 672 c 1
 297 402 l 1
 355 392 389 356 389 326 c 0
 389 311 376 290 356 290 c 0
 317 290 310 338 285 362 c 1
 200 73 l 1x70
 219 60 241 55 259 55 c 0
 300 55 332 74 363 116 c 1
 371 112 375 108 378 102 c 1xb0
154 93 m 1
 236 371 l 1
 237 375 l 1
 235 375 231 376 229 376 c 0
 182 376 135 321 135 220 c 0
 135 158 143 118 154 93 c 1
EndSplineSet
EndChar

StartChar: sterling
Encoding: 163 163 158
Width: 472
VWidth: 0
Flags: W
HStem: -15 48<303.78 384.41> 101 31<152.32 182.95> 248 38<22.0255 125 220 331> 625 40<256.635 335.368>
VStem: 112 116<287.929 528.746> 345 112<535.35 617.827> 390 63<37.5996 108.59>
LayerCount: 3
Fore
SplineSet
15 25 m 0xfa
 15 79 83 100 108 120 c 1
 127 135 135 191 135 218 c 0
 135 220 132 233 131 248 c 1
 24 248 l 1
 23 254 22 259 22 265 c 0
 22 272 23 281 24 286 c 1
 125 286 l 1
 119 327 112 378 112 399 c 0
 112 579 208 665 329 665 c 0
 395 665 457 623 457 571 c 0
 457 542 432 523 404 523 c 0
 379 523 355 535 345 571 c 0xfc
 340 598 336 625 298 625 c 0
 269 625 227 600 227 518 c 0
 227 492 228 448 228 363 c 0
 228 337 224 308 220 286 c 1
 331 286 l 1
 332 281 333 276 333 270 c 0
 333 263 332 255 331 248 c 1
 213 248 l 1
 191 177 152 128 152 128 c 1
 152 128 157 132 165 132 c 0
 260 132 293 33 351 33 c 0
 374 33 390 55 390 76 c 0
 390 108 338 117 338 149 c 0
 338 166 354 185 380 185 c 0
 423 185 453 141 453 101 c 0
 453 40 400 -15 322 -15 c 0
 253 -15 235 27 200 69 c 0
 181 91 168 101 156 101 c 0
 119 101 119 -13 53 -13 c 0
 31 -13 15 5 15 25 c 0xfa
EndSplineSet
EndChar

StartChar: currency
Encoding: 164 164 159
Width: 518
Flags: W
HStem: -19 20G<39.5 60.5 441.5 459> 17 61<184.801 312.135> 323 56<185.964 311.967>
VStem: 66 71<127.649 272.587> 363 73<129.847 270.871>
DStem2: 29 28 92 0 0.713564 0.70059<-17.2334 103.917 449.673 575.09> 157 337 33 369 0.713564 -0.70059<-135.398 -10.1571 336.429 458.614>
LayerCount: 3
Fore
SplineSet
14 3 m 0
 14 13 22 21 29 28 c 2
 100 98 l 1
 78 127 66 162 66 200 c 0
 66 237 79 273 103 301 c 1
 33 369 l 2
 31 371 18 383 18 397 c 0
 18 411 34 422 50 422 c 0
 65 422 76 414 87 406 c 2
 157 337 l 1
 183 363 216 379 250 379 c 0
 287 379 319 362 344 337 c 1
 414 406 l 2
 417 408 430 422 449 422 c 0
 468 422 483 409 483 397 c 0
 483 386 474 377 467 369 c 2
 397 300 l 1
 420 271 436 237 436 199 c 0
 436 162 422 127 400 99 c 1
 472 28 l 2
 474 26 487 16 487 3 c 0
 487 -10 468 -20 450 -20 c 0
 433 -20 421 -10 409 0 c 2
 347 61 l 1
 320 34 286 17 249 17 c 0
 213 17 179 33 152 60 c 1
 92 0 l 2
 89 -2 71 -19 50 -19 c 0
 29 -19 14 -8 14 3 c 0
137 199 m 0
 137 131 188 78 249 78 c 0
 310 78 363 133 363 200 c 0
 363 266 311 323 249 323 c 0
 186 323 137 266 137 199 c 0
EndSplineSet
EndChar

StartChar: exclamdown
Encoding: 161 161 160
Width: 344
VWidth: 0
Flags: W
HStem: -18 21G<144 208.5> 526 115<131.624 234.376>
VStem: 103 143<-15.8906 123.059> 116 134<542.39 625.086>
LayerCount: 3
Fore
SplineSet
191 425 m 0xe0
 212 425 212 417 215 365 c 0
 241 4 246 13 246 2 c 0
 246 -14 233 -18 184 -18 c 2
 160 -18 l 2
 128 -18 103 -17 103 1 c 0
 103 15 127 119 162 365 c 0
 170 420 173 425 191 425 c 0xe0
250 584 m 0xd0
 250 553 219 526 183 526 c 0
 147 526 116 553 116 584 c 0
 116 615 147 641 183 641 c 0
 219 641 250 615 250 584 c 0xd0
EndSplineSet
EndChar

StartChar: questiondown
Encoding: 191 191 161
Width: 363
VWidth: 0
Flags: W
HStem: -19 21G<305.5 314> 4 97<155.477 304.216> 306 82<120.205 240.017> 532 108<216.682 315.318>
VStem: 66 41<148.5 291.016> 203 126<546.317 625.683> 241 46<398.345 491.123>
LayerCount: 3
Fore
SplineSet
305 101 m 2xfa
 319 101 326 79 326 25 c 0
 326 -7 318 -19 310 -19 c 0
 301 -19 293 -11 284 -5 c 0
 273 3 274 4 259 4 c 0
 199 4 135 9 98 87 c 0
 81 122 66 171 66 239 c 0
 66 334 88 381 132 388 c 0
 231 400 239 396 241 415 c 0
 249 479 256 492 267 492 c 0
 284 492 287 463 287 462 c 0
 288 393 298 354 298 325 c 0
 298 314 294 306 278 306 c 2
 183 306 l 2
 119 306 107 281 107 227 c 2
 107 220 l 2
 107 188 113 101 248 101 c 2
 305 101 l 2xfa
329 586 m 0xfc
 329 557 300 532 266 532 c 0
 232 532 203 557 203 586 c 0
 203 615 232 640 266 640 c 0
 300 640 329 615 329 586 c 0xfc
EndSplineSet
EndChar

StartChar: yen
Encoding: 165 165 162
Width: 718
VWidth: 0
Flags: W
HStem: 0 21G<209.5 487.5> 157 38<142.011 292 422 550.999> 280 38<134.011 225 452 566.997> 616 20G<13.5 298.5 442.5 687.5>
VStem: 292 130<21.1857 157 195 250.708>
DStem2: 286 497 94 544 0.501036 -0.865426<-104.696 124.348 168.257 225.242> 417 325 452 318 0.476763 0.879032<10.5335 208.761>
AnchorPoint: "r;x" 677 387 basechar 0
AnchorPoint: "r;hi" 718 610 basechar 0
AnchorPoint: "r;o" 635 202 basechar 0
AnchorPoint: "r;bl" 593 10 basechar 0
AnchorPoint: "r;hi2" 709 670 basechar 0
AnchorPoint: "l;x" 57 387 basechar 0
AnchorPoint: "l;hi" 0 610 basechar 0
AnchorPoint: "l;o" 76 202 basechar 0
AnchorPoint: "l;bl" 115 10 basechar 0
LayerCount: 3
Fore
SplineSet
292 157 m 1
 144 157 l 1
 143 163 142 169 142 175 c 0
 142 181 143 189 144 195 c 1
 292 195 l 1
 292 227 l 2
 292 235 271 251 259 259 c 2
 247 280 l 1
 136 280 l 1
 134 286 134 292 134 298 c 0
 134 305 135 313 136 318 c 1
 225 318 l 1
 94 544 l 2
 77 576 67 594 53 604 c 0
 35 618 12 610 12 626 c 0
 12 630 13 634 14 636 c 1
 298 636 l 1
 299 634 302 630 302 626 c 0
 302 609 274 617 252 606 c 0
 246 603 242 599 242 593 c 0
 242 583 262 545 286 497 c 2
 388 323 l 2
 395 311 398 303 401 303 c 0
 404 303 409 309 417 325 c 2
 481 445 l 2
 494 484 503 512 503 535 c 0
 503 558 498 572 489 582 c 0
 468 606 442 592 442 620 c 0
 442 626 442 633 443 636 c 1
 687 636 l 1
 688 634 691 630 691 626 c 0
 691 609 658 622 622 599 c 0
 593 581 574 543 548 495 c 2
 452 318 l 1
 565 318 l 1
 567 313 567 307 567 301 c 0
 567 294 567 286 565 280 c 1
 432 280 l 1
 427 265 422 251 422 245 c 2
 422 195 l 1
 548 195 l 1
 551 190 551 184 551 177 c 0
 551 170 551 162 548 157 c 1
 422 157 l 1
 422 73 l 2
 422 -18 488 35 488 10 c 0
 488 6 488 2 487 0 c 1
 210 0 l 1
 209 2 207 6 207 10 c 0
 207 36 292 -21 292 73 c 2
 292 157 l 1
EndSplineSet
EndChar

StartChar: brokenbar
Encoding: 166 166 163
Width: 164
VWidth: 0
Flags: W
HStem: -218 21G<72.5 82> 645 20G<72 81.5>
VStem: 45 64<-217.318 119.646 335 664.318>
LayerCount: 3
Fore
SplineSet
109 117 m 1
 109 -214 l 1
 96 -216 86 -218 78 -218 c 0
 67 -218 58 -216 45 -214 c 1
 45 117 l 1
 55 119 66 120 76 120 c 0
 87 120 98 119 109 117 c 1
45 335 m 1
 45 661 l 1
 58 663 68 665 76 665 c 0
 87 665 96 663 109 661 c 1
 109 335 l 1
 102 334 92 333 81 333 c 0
 67 333 52 334 45 335 c 1
EndSplineSet
EndChar

StartChar: section
Encoding: 167 167 164
Width: 486
VWidth: 0
Flags: W
HStem: -225 35<221.853 306.159> 65 25<284.173 357.858> 353 22<144.975 199.247> 628 37<186.143 253.236>
VStem: 57 63<241.404 333.985> 96 73<497.332 612.509> 100 116<-164.973 -54.6953> 254 127<540.575 617.272> 331 74<-169.003 -57.7247> 372 60<102.996 192.569>
LayerCount: 3
Fore
SplineSet
57 270 m 0xf880
 57 349 125 375 184 375 c 0
 191 375 197 374 201 374 c 1
 198 379 96 452 96 542 c 0
 96 630 170 665 237 665 c 0
 324 665 381 613 381 569 c 0
 381 528 350 513 315 513 c 0
 276 513 247 533 247 555 c 0
 247 584 254 590 254 606 c 0xf5
 254 618 240 628 228 628 c 0
 199 628 169 613 169 552 c 0
 169 443 432 358 432 175 c 0xf440
 432 81 361 65 315 65 c 0
 295 65 283 69 269 71 c 1
 307 46 405 -17 405 -102 c 0
 405 -181 335 -225 263 -225 c 0
 183 -225 100 -179 100 -103 c 0
 100 -71 123 -39 164 -39 c 0
 193 -39 216 -54 216 -76 c 0xf280
 216 -97 211 -123 211 -145 c 0
 211 -167 227 -190 269 -190 c 0
 298 -190 331 -158 331 -115 c 0
 331 -40 225 14 143 92 c 0
 76 156 57 222 57 270 c 0xf880
120 301 m 0xf840
 120 228 266 90 320 90 c 0
 350 90 372 106 372 133 c 0
 372 205 217 353 188 353 c 0
 145 353 120 330 120 301 c 0xf840
EndSplineSet
EndChar

StartChar: paragraph
Encoding: 182 182 165
Width: 579
VWidth: 0
Flags: W
HStem: -218 21G<324 334 452 462> 626 24G<333 354 452 461.5>
VStem: 297 57<-217.425 195> 425 57<-217.425 649.318>
LayerCount: 3
Fore
SplineSet
61 426 m 0
 61 701 312 644 354 646 c 1
 354 -214 l 1
 343 -216 339 -218 329 -218 c 0
 319 -218 308 -216 297 -214 c 1
 297 195 l 1
 127 199 61 306 61 426 c 0
482 -214 m 1
 471 -216 467 -218 457 -218 c 0
 447 -218 436 -216 425 -214 c 1
 425 646 l 1
 438 648 448 650 456 650 c 0
 467 650 469 648 482 646 c 1
 482 -214 l 1
EndSplineSet
EndChar

StartChar: registered
Encoding: 174 174 166
Width: 702
VWidth: 0
Flags: W
HStem: 180 38<262.155 439.845> 446 19<314 342.737> 586 25<314 380.589> 665 38<262.155 439.845>
VStem: 73 53<345.708 538.126> 241 73<330.03 446 465 584.951> 399 73<485.595 575.928> 576 53<345.708 538.126>
DStem2: 404 460 349 427 0.604105 -0.796905<0 153.48>
LayerCount: 3
Fore
SplineSet
73 442 m 0
 73 586 198 703 351 703 c 0
 504 703 629 586 629 442 c 0
 629 298 504 180 351 180 c 0
 198 180 73 298 73 442 c 0
126 442 m 0
 126 319 224 218 351 218 c 0
 478 218 576 319 576 442 c 0
 576 565 478 665 351 665 c 0
 224 665 126 565 126 442 c 0
523 321 m 0
 523 320 522 314 521 312 c 1
 448 312 l 2
 439 312 433 314 430 319 c 2
 349 427 l 2
 341 443 338 446 324 446 c 2
 314 446 l 1
 314 351 l 1
 315 314 358 342 358 321 c 0
 358 319 357 316 355 312 c 1
 208 312 l 1
 205 316 205 317 205 321 c 0
 205 342 241 314 241 351 c 2
 241 573 l 2
 241 613 205 583 205 602 c 0
 205 608 208 610 209 611 c 1
 326 611 l 2
 350 611 376 611 401 606 c 0
 435 598 472 577 472 532 c 0
 471 480 418 468 404 460 c 1
 405 459 407 456 411 451 c 0
 443 403 488 346 498 336 c 0
 509 325 523 336 523 321 c 0
318 586 m 2
 314 586 314 582 314 576 c 2
 314 465 l 1
 327 465 l 2
 360 465 399 476 399 533 c 0
 399 560 383 578 359 584 c 0
 354 585 345 586 332 586 c 2
 318 586 l 2
EndSplineSet
EndChar

StartChar: copyright
Encoding: 169 169 167
Width: 751
VWidth: 0
Flags: W
HStem: -26 49<271.436 480.448> 101 70<349.742 451.185> 405 21G<484 519> 499 30<357.13 434.264> 608 49<271.436 480.448>
VStem: 23 70<204.474 427.394> 183 111<235.287 415.615> 658 70<204.474 427.394>
LayerCount: 3
Fore
SplineSet
23 316 m 0
 23 504 183 657 376 657 c 0
 569 657 728 504 728 316 c 0
 728 128 569 -26 376 -26 c 0
 183 -26 23 128 23 316 c 0
93 316 m 0
 93 155 217 23 376 23 c 0
 535 23 658 155 658 316 c 0
 658 477 535 608 376 608 c 0
 217 608 93 477 93 316 c 0
541 219 m 1
 494 122 412 101 373 101 c 0
 312 101 183 133 183 317 c 0
 183 439 269 529 398 529 c 0
 485 529 541 478 541 442 c 0
 541 426 529 405 509 405 c 0
 459 405 458 499 403 499 c 0
 351 499 294 443 294 340 c 0
 294 201 368 171 415 171 c 0
 457 171 495 190 527 233 c 1
 535 229 538 225 541 219 c 1
EndSplineSet
EndChar

StartChar: at
Encoding: 64 64 168
Width: 799
VWidth: 0
Flags: W
HStem: -140 55<282.799 523.918> 15 55<276.5 391.916> 25 68<519.5 599.118> 251 31<415.461 456> 423 39<264.601 418.375>
VStem: 36 88<63.631 268.098> 209 120<77.1525 176.767> 456 116<99.7562 251 277.593 389.773> 706 57<78.7555 300.654>
AnchorPoint: "l;bl" 0 4 basechar 0
AnchorPoint: "l;o" 0 200 basechar 0
AnchorPoint: "l;x" 0 384 basechar 0
AnchorPoint: "r;bl" 799 4 basechar 0
AnchorPoint: "r;o" 799 200 basechar 0
AnchorPoint: "r;x" 799 384 basechar 0
LayerCount: 3
Fore
SplineSet
595 450 m 1xdf80
 669 422 763 341 763 175 c 0
 763 -84 505 -140 377 -140 c 0
 210 -140 36 -35 36 168 c 0
 36 343 202 462 365 462 c 0
 479 462 572 436 572 298 c 2
 572 182 l 2
 572 127 575 93 594 93 c 0
 616 93 615 115 628 115 c 0
 633 115 635 108 635 99 c 0
 635 56 571 25 536 25 c 0xbf80
 503 25 474 36 462 98 c 1
 437 58 378 15 306 15 c 0
 247 15 209 52 209 114 c 0
 209 188 274 235 456 282 c 1
 456 317 l 2
 456 409 396 423 349 423 c 0
 215 423 124 300 124 181 c 0
 124 -32 290 -85 402 -85 c 0
 534 -85 706 -27 706 197 c 0
 706 274 683 371 586 421 c 1
 580 434 586 448 595 450 c 1xdf80
329 135 m 0
 329 100 344 70 372 70 c 0xdf80
 382 70 456 88 456 147 c 2
 456 251 l 1
 400 233 329 210 329 135 c 0
EndSplineSet
EndChar

StartChar: percent
Encoding: 37 37 169
Width: 821
Flags: W
HStem: -101 32<547.894 619.31> 164 31<551.005 622.441> 193 32<182.541 253.31> 409 39<353.357 508.839> 463 32<185.693 257.743>
VStem: 66 88<263.369 427.905> 287 91<266.112 415.831> 432 88<-31.8099 126.701> 653 91<-28.2283 127.168>
LayerCount: 3
Fore
SplineSet
411 448 m 0xbf80
 557 448 637 567 660 567 c 0
 664 567 675 561 675 556 c 0
 675 549 669 540 666 535 c 0
 23 -160 201 -162 188 -162 c 0
 180 -162 144 -158 144 -137 c 0
 144 -123 154 -112 187 -66 c 2
 364 174 l 2
 501 360 559 425 559 433 c 0
 559 436 557 437 555 437 c 2
 555 437 490 409 423 409 c 0
 397 409 372 409 352 422 c 1
 369 401 378 376 378 345 c 0
 378 248 298 193 219 193 c 0
 141 193 66 246 66 348 c 0
 66 444 139 495 215 495 c 0
 240 495 261 487 284 476 c 0
 328 456 373 448 411 448 c 0xbf80
220 463 m 0
 168 463 154 388 154 335 c 0
 154 265 179 225 219 225 c 0
 257 225 287 268 287 352 c 0
 287 422 261 463 220 463 c 0
586 164 m 0xdf80
 534 164 520 90 520 38 c 0
 520 -30 545 -69 585 -69 c 0
 623 -69 653 -26 653 56 c 0
 653 124 627 164 586 164 c 0xdf80
744 50 m 0
 744 -46 664 -101 585 -101 c 0
 507 -101 432 -49 432 51 c 0
 432 145 509 195 588 195 c 0
 667 195 744 146 744 50 c 0
EndSplineSet
EndChar

StartChar: dollar
Encoding: 36 36 170
Width: 494
Flags: W
HStem: -15 43<154.766 222> 554 46<166.924 223 270 325.307>
VStem: 32 84<58.8144 134.208> 62 74<415.445 518.801> 222 48<-131.825 -15 32 264 378 554 601 657.942> 366 76<90.7595 220.601>
DStem2: 222 378 222 277 0.965755 -0.259457<-75.874 0 75.9343 156.874>
LayerCount: 3
Fore
SplineSet
270 601 m 1xdc
 305 601 405 577 406 507 c 0
 406 484 395 471 381 471 c 0
 344 471 355 523 302 549 c 0
 293 553 282 555 270 555 c 1
 270 365 l 1
 308 351 442 330 442 182 c 0
 442 27 300 -6 270 -13 c 1
 273 -96 l 2
 273 -128 263 -132 242 -132 c 0
 220 -132 219 -123 219 -114 c 0
 219 -86 222 -15 222 -15 c 1
 133 -15 32 30 32 102 c 0
 32 111 41 140 79 140 c 0
 90 140 109 136 116 128 c 0xec
 126 111 93 80 149 51 c 0
 181 22 214 29 222 28 c 1
 222 277 l 1
 174 294 62 320 62 439 c 0
 62 511 112 591 223 600 c 1
 223 613 220 626 220 639 c 0
 220 656 228 658 248 658 c 0
 270 658 273 653 273 646 c 0
 273 619 270 606 270 601 c 1xdc
136 466 m 0xdc
 136 397 222 378 222 378 c 1
 223 554 l 1
 177 554 136 514 136 466 c 0xdc
270 32 m 1
 303 32 366 65 366 156 c 0
 366 219 318 249 289 259 c 1
 270 264 l 1
 270 32 l 1
EndSplineSet
EndChar

StartChar: dollar.DONT_KEEP
Encoding: 65543 -1 171
Width: 496
VWidth: 0
Flags: W
HStem: -20 35<212.468 264> 564 37<214.612 263.671> 616 20G<182 202 276 296>
VStem: 60 69<401.462 512.319> 168 46<-115.954 -20 19 259 382 546 597 635.966> 264 45<-115.979 -15 27 212 335 558 601 635.985> 359 74<72.743 185.719>
LayerCount: 3
Fore
SplineSet
420 517 m 0
 420 494 400 489 393 489 c 0
 381 489 373 493 366 498 c 0
 346 513 342 544 309 558 c 1
 309 505 306 437 306 316 c 1
 315 312 323 309 331 304 c 0
 399 266 433 207 433 150 c 0
 433 85 391 19 308 -7 c 1
 308 -47 309 -68 309 -91 c 0
 309 -109 306 -116 286 -116 c 0
 266 -116 262 -109 262 -96 c 0
 262 -81 263 -58 264 -15 c 1
 249 -20 233 -20 222 -20 c 2
 212 -20 l 1
 212 -52 214 -71 214 -92 c 0
 214 -110 212 -116 192 -116 c 0
 172 -116 168 -109 168 -96 c 0
 168 -81 168 -58 169 -15 c 1
 111 -6 46 34 46 66 c 0
 46 84 67 92 77 92 c 0
 91 92 109 83 131 57 c 0
 152 32 162 26 171 19 c 1
 172 73 172 144 172 234 c 2
 172 279 l 1
 95 315 60 376 60 435 c 0
 60 498 100 559 169 586 c 1
 169 611 l 2
 169 631 172 636 192 636 c 0
 212 636 214 631 214 612 c 2
 214 597 l 1
 227 601 244 601 255 601 c 2
 264 601 l 1
 264 613 l 2
 264 631 266 636 286 636 c 0
 306 636 309 631 309 612 c 2
 309 595 l 1
 377 579 420 545 420 517 c 0
172 382 m 1
 172 456 169 507 169 546 c 1
 143 526 129 493 129 460 c 0
 129 429 143 401 172 382 c 1
212 -2 m 1
 222 8 231 15 239 15 c 0
 248 15 256 18 265 20 c 1
 266 71 267 119 267 232 c 1
 247 242 227 253 211 259 c 1
 211 227 l 2
 211 121 211 52 212 -2 c 1
211 363 m 1
 267 335 l 1
 267 448 264 512 264 560 c 1
 257 562 249 564 242 564 c 0
 232 564 223 565 214 567 c 1
 214 519 211 465 211 363 c 1
306 212 m 1
 306 131 308 72 308 27 c 1
 328 41 359 74 359 128 c 0
 359 158 346 188 306 212 c 1
EndSplineSet
EndChar

StartChar: longs
Encoding: 383 383 172
Width: 282
VWidth: 0
Flags: W
HStem: 0 21G<14.5 241.5> 616 49<201.349 281.208>
VStem: 70 108<15.6861 346>
AnchorPoint: "r;o" 282 198 basechar 0
AnchorPoint: "r;k;hi" 381 603 basechar 0
AnchorPoint: "r;x" 282 381 basechar 0
AnchorPoint: "r;bl" 259 10 basechar 0
AnchorPoint: "l;o" 0 198 basechar 0
AnchorPoint: "l;x" 0 381 basechar 0
AnchorPoint: "l;bl" 0 10 basechar 0
LayerCount: 3
Fore
SplineSet
15 0 m 1
 14 2 14 5 14 8 c 0
 14 30 70 -16 70 61 c 2
 70 346 l 1
 70 346 45 347 32 347 c 0
 25 347 19 348 19 358 c 0
 19 373 60 371 68 398 c 0
 89 465 75 519 145 607 c 0
 174 644 230 665 276 665 c 0
 327 665 368 647 368 610 c 0
 368 586 352 569 333 569 c 0
 287 569 279 616 241 616 c 0
 192 616 178 556 178 469 c 2
 178 61 l 2
 178 -17 242 31 242 8 c 0
 242 5 242 2 241 0 c 1
 15 0 l 1
EndSplineSet
EndChar

StartChar: germandbls
Encoding: 223 223 173
Width: 554
VWidth: 0
Flags: W
HStem: -9 29<309.153 398.57> 0 21G<14.5 222.5> 625 40<222.068 316.217>
VStem: 70 108<14.8798 347> 228 102<26.0182 101.793> 340 106<482.842 605.192> 438 98<90.0868 224.467>
AnchorPoint: "l;o" 0 198 basechar 0
AnchorPoint: "l;x" 0 381 basechar 0
AnchorPoint: "l;bl" 0 12 basechar 0
AnchorPoint: "r;bl" 554 12 basechar 0
AnchorPoint: "r;o" 554 198 basechar 0
AnchorPoint: "r;hi" 521 604 basechar 0
AnchorPoint: "r;x" 544 381 basechar 0
LayerCount: 3
Fore
SplineSet
347 20 m 0xba
 402 20 438 50 438 134 c 0xba
 438 240 364 319 244 365 c 0
 212 381 209 375 209 385 c 2
 209 392 l 2
 209 404 240 408 271 432 c 0
 303 455 340 492 340 536 c 0
 340 594 313 625 269 625 c 0
 242 625 219 611 204 590 c 0
 185 565 178 525 178 469 c 2
 178 61 l 2
 178 -16 224 30 224 8 c 0
 224 5 223 2 222 0 c 1
 15 0 l 1
 14 2 14 5 14 8 c 0
 14 30 70 -16 70 61 c 2
 70 347 l 1
 70 347 45 348 32 348 c 0
 25 348 19 349 19 359 c 0
 19 374 68 371 78 398 c 0
 104 465 86 519 170 607 c 0
 204 642 252 665 306 665 c 0
 404 665 446 604 446 550 c 0x7c
 446 419 250 396 250 396 c 1
 445 380 536 309 536 177 c 0
 536 80 462 -9 346 -9 c 0
 268 -9 228 29 228 64 c 0
 228 89 250 110 278 110 c 0
 312 110 330 96 330 66 c 0
 330 51 309 26 309 26 c 1
 312 25 323 20 347 20 c 0xba
EndSplineSet
EndChar

StartChar: uni0307
Encoding: 775 775 174
Width: 47
VWidth: 0
Flags: W
HStem: 547 116<-229.152 -136.041>
VStem: -242 119<559.933 650.177>
AnchorPoint: "top" -184 521 mark 0
LayerCount: 3
Fore
SplineSet
-178 663 m 0
 -147 663 -123 635 -123 608 c 0
 -123 552 -173 547 -185 547 c 0
 -217 547 -242 575 -242 602 c 0
 -242 656 -195 663 -178 663 c 0
EndSplineSet
EndChar

StartChar: dotlessi
Encoding: 305 305 175
Width: 247
VWidth: 0
Flags: W
HStem: 0 21G<14.5 232.5> 392 20G<112 171>
VStem: 70 108<23.6234 336.13>
AnchorPoint: "top" 126 544 basechar 0
AnchorPoint: "l;bl" 0 10 basechar 0
AnchorPoint: "l;x" 0 389 basechar 0
AnchorPoint: "l;o" 0 202 basechar 0
AnchorPoint: "r;bl" 247 10 basechar 0
AnchorPoint: "r;x" 238 389 basechar 0
AnchorPoint: "r;o" 247 202 basechar 0
LayerCount: 3
Fore
SplineSet
178 314 m 2
 178 73 l 2
 178 -1 234 30 234 8 c 0
 234 5 233 2 232 0 c 1
 15 0 l 1
 14 2 14 5 14 8 c 0
 14 30 70 -4 70 73 c 2
 70 279 l 2
 70 367 14 325 14 355 c 0
 14 383 55 355 169 412 c 1
 173 412 180 409 181 404 c 1
 180 397 178 369 178 314 c 2
EndSplineSet
EndChar

StartChar: uni0237
Encoding: 567 567 176
Width: 249
VWidth: 0
Flags: W
HStem: 392 20G<114 173>
VStem: 72 108<-71.7887 336.13>
AnchorPoint: "top" 107 544 basechar 0
AnchorPoint: "l;bl" 0 9 basechar 0
AnchorPoint: "l;x" 0 389 basechar 0
AnchorPoint: "l;o" 0 202 basechar 0
AnchorPoint: "l;lo" 0 -203 basechar 0
AnchorPoint: "r;bl" 249 9 basechar 0
AnchorPoint: "r;x" 249 389 basechar 0
AnchorPoint: "r;o" 249 202 basechar 0
AnchorPoint: "r;lo" 213 -203 basechar 0
LayerCount: 3
Fore
SplineSet
72 279 m 6
 72 367 16 325 16 355 c 4
 16 383 57 355 171 412 c 5
 175 412 182 409 183 404 c 5
 182 397 180 369 180 314 c 6
 180 45 l 2
 180 -126 65 -201 31 -225 c 1
 23 -220 17 -215 14 -205 c 1
 67 -144 72 -121 72 48 c 2
 72 279 l 6
EndSplineSet
EndChar

StartChar: uni0308
Encoding: 776 776 177
Width: 95
VWidth: 0
Flags: W
HStem: 549 112<-305.822 -201.26 -113.822 -9.26027>
VStem: -321 134<565.049 645.928> -129 134<565.049 645.928>
AnchorPoint: "top" -159 521 mark 0
LayerCount: 3
Fore
SplineSet
-65 661 m 0
 -18 661 5 632 5 604 c 0
 5 576 -17 549 -60 549 c 0
 -103 549 -129 578 -129 608 c 0
 -129 632 -111 661 -65 661 c 0
-257 661 m 0
 -210 661 -187 632 -187 604 c 0
 -187 576 -209 549 -252 549 c 0
 -295 549 -321 578 -321 608 c 0
 -321 632 -303 661 -257 661 c 0
EndSplineSet
EndChar

StartChar: eth
Encoding: 240 240 190
Width: 468
VWidth: 0
Flags: W
HStem: -15 35<203.982 289.053> 374 32<194.346 289.52> 639 20G<138 205>
VStem: 22 120<96.6475 297.668> 336 110<101.107 324.75>
DStem2: 112 519 125 483 0.944022 0.329881<-2.30911 120.814 179.399 287.933>
AnchorPoint: "l;bl" 29 13 basechar 0
AnchorPoint: "l;o" 0 200 basechar 0
AnchorPoint: "l;hi" 85 610 basechar 0
AnchorPoint: "l;x" 29 383 basechar 0
AnchorPoint: "r;bl" 439 13 basechar 0
AnchorPoint: "r;o" 468 200 basechar 0
AnchorPoint: "r;hi" 450 610 basechar 0
AnchorPoint: "r;x" 468 383 basechar 0
LayerCount: 3
Fore
SplineSet
247 20 m 0
 283 20 336 53 336 187 c 0
 336 334 298 374 238 374 c 0
 160 374 142 276 142 212 c 0
 142 89 196 20 247 20 c 0
446 206 m 0
 446 76 366 -15 229 -15 c 0
 88 -15 22 91 22 196 c 0
 22 295 79 406 222 406 c 0
 255 406 290 400 317 377 c 1
 308 415 275 479 245 525 c 1
 125 483 l 1
 117 493 113 506 112 519 c 1
 226 559 l 1
 193 605 161 638 138 651 c 0
 132 653 138 659 138 659 c 1
 190 659 l 1
 220 641 244 613 275 576 c 1
 381 613 l 1
 390 604 393 590 394 577 c 1
 294 542 l 1
 396 426 446 322 446 206 c 0
EndSplineSet
EndChar

StartChar: thorn
Encoding: 254 254 191
Width: 505
VWidth: 0
Flags: W
HStem: -211 21G<14.5 240.5> -15 35<211.22 305.954> 357 49<234.314 369.244> 645 20G<105.5 170>
VStem: 70 108<-186.76 15 49.0781 332.125 342 603.113> 364 118<102.544 294.78>
AnchorPoint: "r;o" 505 199 basechar 0
AnchorPoint: "r;x" 487 383 basechar 0
AnchorPoint: "r;bl" 487 13 basechar 0
AnchorPoint: "l;lo" 0 -200 basechar 0
AnchorPoint: "l;hi2" 9 671 basechar 0
AnchorPoint: "l;o" 9 199 basechar 0
AnchorPoint: "l;x" 18 383 basechar 0
AnchorPoint: "l;bl" 9 13 basechar 0
LayerCount: 3
Fore
SplineSet
256 357 m 0
 212 357 175 314 175 287 c 2
 175 113 l 2
 175 71 208 20 257 20 c 0
 330 20 364 105 364 189 c 0
 364 273 330 357 256 357 c 0
178 -148 m 2
 178 -170 184 -182 195 -187 c 0
 214 -196 242 -189 242 -203 c 0
 242 -206 241 -209 240 -211 c 1
 15 -211 l 1
 14 -209 14 -206 14 -203 c 0
 14 -181 70 -226 70 -149 c 2
 70 553 l 2
 70 638 14 585 14 610 c 0
 14 641 43 597 168 665 c 1
 172 665 178 663 179 659 c 0
 179 657 178 609 178 605 c 2
 178 342 l 1
 198 362 247 406 311 406 c 0
 427 406 482 304 482 201 c 0
 482 93 411 -15 274 -15 c 0
 246 -15 205 -4 178 15 c 1
 178 -148 l 2
EndSplineSet
AlternateSubs2: "'aalt' Access All Alternates lookup 0 subtable" thorn.ld
AlternateSubs2: "'aalt' Access All Alternates in Latin lookup 0 subtable" thorn.ld
Substitution2: "'ss01' Style Set 1 in Latin lookup 1 subtable" thorn.ld
EndChar

StartChar: acutecomb
Encoding: 769 769 192
Width: 61
VWidth: 0
Flags: W
HStem: 413 248<-206 -111>
VStem: -229 172
AnchorPoint: "top" -207 516 mark 0
LayerCount: 3
Fore
SplineSet
-111 661 m 0
 -73 661 -57 639 -57 623 c 0
 -57 589 -111 533 -145 485 c 0
 -181 433 -185 413 -206 413 c 0
 -214 413 -229 417 -229 429 c 0
 -229 445 -211 483 -203 503 c 0
 -172 582 -178 661 -111 661 c 0
EndSplineSet
EndChar

StartChar: thorn.ld
Encoding: 65544 -1 216
Width: 505
VWidth: 0
Flags: W
HStem: -270 21G<14.5 240.5> -15 35<211.22 305.954> 357 49<234.314 369.244> 645 20G<105.5 170>
VStem: 70 108<-245.76 15 49.0781 332.125 342 603.113> 364 118<102.544 294.78>
AnchorPoint: "l;bl" 9 13 basechar 0
AnchorPoint: "l;x" 18 383 basechar 0
AnchorPoint: "l;o" 9 199 basechar 0
AnchorPoint: "l;hi2" 9 671 basechar 0
AnchorPoint: "l;lo" 0 -200 basechar 0
AnchorPoint: "r;bl" 487 13 basechar 0
AnchorPoint: "r;x" 487 383 basechar 0
AnchorPoint: "r;o" 505 199 basechar 0
LayerCount: 3
Fore
SplineSet
256 357 m 0
 212 357 175 314 175 287 c 2
 175 113 l 2
 175 71 208 20 257 20 c 0
 330 20 364 105 364 189 c 0
 364 273 330 357 256 357 c 0
178 -207 m 2
 178 -229 184 -241 195 -246 c 0
 214 -255 242 -248 242 -262 c 0
 242 -265 241 -268 240 -270 c 1
 15 -270 l 1
 14 -268 14 -265 14 -262 c 0
 14 -240 70 -285 70 -208 c 2
 70 553 l 2
 70 638 14 585 14 610 c 0
 14 641 43 597 168 665 c 1
 172 665 178 663 179 659 c 0
 179 657 178 609 178 605 c 2
 178 342 l 1
 198 362 247 406 311 406 c 0
 427 406 482 304 482 201 c 0
 482 93 411 -15 274 -15 c 0
 246 -15 205 -4 178 15 c 1
 178 -207 l 2
EndSplineSet
EndChar

StartChar: oslash
Encoding: 248 248 219
Width: 487
VWidth: 0
Flags: W
HStem: -15 34<190.959 294.176> 372 34<205.251 304.606>
VStem: 22 124<86.6176 286.892> 342 122<99.7607 259.707>
DStem2: 78 -58 115 -77 0.512321 0.858794<-0.488065 93.2949 146.632 399.489 518.985 612.08>
AnchorPoint: "r;o" 487 200 basechar 0
AnchorPoint: "r;x" 458 383 basechar 0
AnchorPoint: "r;bl" 458 13 basechar 0
AnchorPoint: "l;o" 0 200 basechar 0
AnchorPoint: "l;x" 30 383 basechar 0
AnchorPoint: "l;bl" 30 13 basechar 0
LayerCount: 3
Fore
SplineSet
252 372 m 0
 191 372 146 304 146 194 c 0
 146 144 147 100 153 68 c 1
 317 344 l 1
 299 364 277 372 252 372 c 0
464 197 m 0
 464 77 377 -15 252 -15 c 0
 221 -15 191 -7 164 6 c 1
 115 -77 l 1
 100 -73 86 -68 78 -58 c 1
 126 22 l 1
 64 54 22 111 22 199 c 0
 22 307 111 406 249 406 c 0
 285 406 315 398 342 385 c 1
 390 465 l 1
 403 464 419 454 424 443 c 1
 380 368 l 1
 436 332 464 270 464 197 c 0
318 264 m 1
 185 41 l 1
 199 26 217 19 241 19 c 0
 319 19 342 90 342 163 c 0
 342 208 333 241 318 264 c 1
EndSplineSet
EndChar

StartChar: Thorn
Encoding: 222 222 220
Width: 595
VWidth: 0
Flags: W
HStem: 0 21G<29.5 312.5> 125 49<257.863 369.031> 475 31<238.785 365.078> 616 20G<28.5 311.5>
VStem: 105 130<22.8719 157 175.693 473.087 506 612.916> 433 126<237.513 410.501>
AnchorPoint: "l;bl" 0 10 basechar 0
AnchorPoint: "l;o" 0 203 basechar 0
AnchorPoint: "l;hi" 0 610 basechar 0
AnchorPoint: "l;x" 0 384 basechar 0
AnchorPoint: "r;o" 586 203 basechar 0
AnchorPoint: "r;x" 595 384 basechar 0
LayerCount: 3
Fore
SplineSet
433 324 m 0
 433 385 406 475 299 475 c 2
 293 475 l 2
 243 475 235 474 235 427 c 2
 235 179 l 1
 235 179 260 174 281 174 c 0
 372 174 433 223 433 324 c 0
235 75 m 2
 235 -16 313 36 313 10 c 0
 313 6 313 2 312 0 c 1
 30 0 l 1
 29 2 27 6 27 10 c 0
 27 37 105 -19 105 75 c 2
 105 561 l 2
 105 652 27 600 27 626 c 0
 27 630 28 634 29 636 c 1
 311 636 l 1
 312 634 313 630 313 626 c 0
 313 600 235 657 235 563 c 2
 235 506 l 1
 338 506 l 2
 375 506 438 499 487 466 c 0
 539 431 559 376 559 321 c 0
 559 273 543 225 518 193 c 0
 484 150 427 125 363 125 c 0
 295 125 235 157 235 157 c 1
 235 75 l 2
EndSplineSet
EndChar

StartChar: Eth
Encoding: 208 208 222
Width: 753
VWidth: 0
Flags: W
HStem: 0 37<238.735 410.824> 304 38<27.0117 105 235 380.988> 602 34<236.965 412.704>
VStem: 105 130<40.1006 304 342 598.28> 564 153<204.16 440.566>
AnchorPoint: "r;o" 753 200 basechar 0
AnchorPoint: "r;hi" 717 604 basechar 0
AnchorPoint: "r;x" 753 386 basechar 0
AnchorPoint: "r;bl" 717 12 basechar 0
AnchorPoint: "l;o" 18 200 basechar 0
AnchorPoint: "l;hi" 0 604 basechar 0
AnchorPoint: "l;x" 18 386 basechar 0
AnchorPoint: "l;bl" 0 12 basechar 0
LayerCount: 3
Fore
SplineSet
30 0 m 1
 29 2 27 6 27 10 c 0
 27 37 105 -20 105 74 c 2
 105 304 l 1
 30 304 l 1
 28 310 27 317 27 324 c 0
 27 330 28 336 30 342 c 1
 105 342 l 1
 105 562 l 2
 105 656 27 599 27 626 c 0
 27 630 29 634 30 636 c 1
 283 636 l 2
 403 636 469 629 543 600 c 0
 660 553 717 441 717 322 c 0
 717 182 636 44 444 9 c 0
 396 0 323 0 275 0 c 2
 30 0 l 1
235 342 m 1
 378 342 l 1
 380 337 381 329 381 322 c 0
 381 315 380 309 378 304 c 1
 235 304 l 1
 235 89 l 2
 235 38 244 37 298 37 c 0
 516 37 564 194 564 312 c 0
 564 457 496 529 466 554 c 0
 418 596 357 602 303 602 c 0
 236 602 235 598 235 559 c 2
 235 342 l 1
EndSplineSet
EndChar

StartChar: gravecomb
Encoding: 768 768 223
Width: 61
VWidth: 0
Flags: W
HStem: 413 248<-240 -145>
VStem: -294 172
AnchorPoint: "top" -207 516 mark 0
LayerCount: 3
Fore
SplineSet
-240 661 m 0
 -173 661 -178 582 -147 503 c 0
 -139 483 -122 445 -122 429 c 0
 -122 417 -137 413 -145 413 c 0
 -166 413 -170 433 -206 485 c 0
 -240 533 -294 589 -294 623 c 0
 -294 639 -278 661 -240 661 c 0
EndSplineSet
EndChar

StartChar: uni030B
Encoding: 779 779 233
Width: 0
VWidth: 0
Flags: W
HStem: 413 248<-274 -213 -148 -87>
VStem: -289 54<431.733 528.819> -273 95<556.972 611.625> -163 54<431.733 528.819> -147 95<556.972 611.625>
AnchorPoint: "top" -207 516 mark 0
LayerCount: 3
Fore
SplineSet
-87 661 m 0x88
 -63 661 -52 639 -52 623 c 0x88
 -52 589 -87 533 -109 485 c 0
 -132 433 -134 413 -148 413 c 0
 -153 413 -163 417 -163 429 c 0x90
 -163 445 -152 483 -147 503 c 0
 -127 582 -130 661 -87 661 c 0x88
-213 661 m 0
 -189 661 -178 639 -178 623 c 0xa0
 -178 589 -213 533 -235 485 c 0
 -258 433 -260 413 -274 413 c 0
 -279 413 -289 417 -289 429 c 0xc0
 -289 445 -278 483 -273 503 c 0xa0
 -253 582 -256 661 -213 661 c 0
EndSplineSet
EndChar

StartChar: uni0302
Encoding: 770 770 250
Width: 0
Flags: W
HStem: 496 160
VStem: -348 234<502 509>
AnchorPoint: "top" -230 540 mark 0
LayerCount: 3
Fore
SplineSet
-231 577 m 1
 -302 519 -327 496 -337 496 c 0
 -340 496 -348 502 -348 505 c 0
 -348 509 -301 562 -249 654 c 1
 -249 654 -236 656 -232 656 c 0
 -225 656 -213 654 -213 654 c 1
 -160 561 -114 510 -114 505 c 0
 -114 502 -122 496 -125 496 c 0
 -135 496 -160 519 -231 577 c 1
EndSplineSet
EndChar

StartChar: tildecomb
Encoding: 771 771 251
Width: 896
VWidth: 0
Flags: W
HStem: 537 72<-192.153 -134.319> 589 72<-277.713 -220.23>
VStem: -317 221
AnchorPoint: "top" -207 519 mark 0
LayerCount: 3
Fore
SplineSet
-166 537 m 0xa0
 -200 537 -230 589 -262 589 c 0
 -289 589 -302 538 -302 538 c 1
 -305 538 -314 540 -317 542 c 1
 -317 542 -291 661 -246 661 c 0x60
 -212 661 -183 609 -151 609 c 0
 -124 609 -110 660 -110 660 c 1
 -107 660 -99 658 -96 656 c 1
 -96 656 -121 537 -166 537 c 0xa0
EndSplineSet
EndChar

StartChar: uni030C
Encoding: 780 780 275
Width: 0
Flags: W
HStem: 496 160
VStem: -348 234<643 650>
AnchorPoint: "top" -230 540 mark 0
LayerCount: 3
Fore
SplineSet
-231 575 m 1
 -160 633 -135 656 -125 656 c 0
 -122 656 -114 650 -114 647 c 0
 -114 643 -161 590 -213 498 c 1
 -213 498 -226 496 -230 496 c 0
 -237 496 -249 498 -249 498 c 1
 -302 591 -348 642 -348 647 c 0
 -348 650 -340 656 -337 656 c 0
 -327 656 -302 633 -231 575 c 1
EndSplineSet
EndChar

StartChar: uni0304
Encoding: 772 772 295
Width: 858
VWidth: 0
Flags: W
HStem: 587 54<-311 17>
VStem: -311 328<587 641>
AnchorPoint: "top" -266 532 mark 0
LayerCount: 3
Fore
SplineSet
17 587 m 1
 -311 587 l 1
 -311 641 l 1
 17 641 l 1
 17 587 l 1
EndSplineSet
EndChar

StartChar: uni0306
Encoding: 774 774 308
Width: 24
Flags: W
HStem: 518 72<-252.215 -135.785> 641 20G<-295 -285 -102 -92>
VStem: -309 35<616.007 660.978> -114 35<616.007 660.994>
AnchorPoint: "top" -195 535 mark 0
LayerCount: 3
Fore
SplineSet
-194 590 m 0
 -121 590 -118 648 -114 659 c 1
 -114 659 -107 661 -97 661 c 0
 -87 661 -79 659 -79 659 c 1
 -79 658 l 2
 -79 643 -86 518 -194 518 c 0
 -302 518 -309 643 -309 658 c 2
 -309 659 l 1
 -309 659 -300 661 -290 661 c 0
 -280 661 -274 659 -274 659 c 1
 -270 648 -267 590 -194 590 c 0
EndSplineSet
EndChar

StartChar: uni030A
Encoding: 778 778 321
Width: 40
VWidth: 0
Flags: W
HStem: 503 44<-219.209 -151.649> 617 44<-220.477 -152.383>
VStem: -279 56<550.786 614.258> -149 56<549.592 612.945>
AnchorPoint: "top" -187 545 mark 0
LayerCount: 3
Fore
SplineSet
-188 661 m 0
 -123 661 -93 621 -93 581 c 0
 -93 541 -127 503 -184 503 c 0
 -241 503 -279 543 -279 586 c 0
 -279 620 -252 661 -188 661 c 0
-188 617 m 0
 -213 617 -223 598 -223 583 c 0
 -223 564 -208 547 -184 547 c 0
 -160 547 -149 564 -149 581 c 0
 -149 598 -162 617 -188 617 c 0
EndSplineSet
EndChar

StartChar: dcroat
Encoding: 273 273 338
Width: 507
VWidth: 0
Flags: W
HStem: -15 48<144.315 284.591> 377 29<201.876 294.988> 485 39<215.003 330 438 492> 645 20G<365.5 430>
VStem: 22 120<107.729 285.94> 330 108<54.1967 349.095 390 485 524 606.038>
AnchorPoint: "r;o" 507 202 basechar 0
AnchorPoint: "r;hi" 498 612 basechar 0
AnchorPoint: "r;x" 498 383 basechar 0
AnchorPoint: "r;bl" 507 13 basechar 0
AnchorPoint: "l;o" 0 202 basechar 0
AnchorPoint: "l;x" 18 383 basechar 0
AnchorPoint: "l;bl" 18 13 basechar 0
LayerCount: 3
Fore
SplineSet
332 130 m 2
 332 256 l 2
 332 338 304 377 245 377 c 0
 175 377 142 297 142 215 c 0
 142 125 182 33 260 33 c 0
 299 33 332 65 332 130 c 2
254 406 m 0
 284 406 308 396 330 390 c 1
 330 485 l 1
 218 485 l 1
 216 491 215 497 215 505 c 0
 215 511 216 518 218 524 c 1
 330 524 l 1
 330 556 l 2
 330 641 275 588 275 612 c 0
 275 642 303 597 428 665 c 1
 432 665 439 663 440 659 c 0
 440 657 438 612 438 608 c 2
 438 524 l 1
 490 524 l 1
 492 519 492 512 492 504 c 0
 492 496 492 490 490 485 c 1
 438 485 l 1
 438 90 l 2
 438 -10 492 58 492 26 c 0
 492 2 457 24 351 -15 c 1
 338 -15 l 1
 338 48 l 1
 305 18 268 -15 205 -15 c 0
 88 -15 22 85 22 188 c 0
 22 296 93 406 254 406 c 0
EndSplineSet
EndChar

StartChar: hbar
Encoding: 295 295 339
Width: 515
VWidth: 0
Flags: W
HStem: 0 21G<14.5 231.5 283.5 500.5> 346 60<239.085 376.39> 485 39<14.0029 70 178 291.997> 645 20G<105.5 170>
VStem: 70 108<16.3475 320.379 325 485 524 606.038> 338 108<16.7759 326.24>
AnchorPoint: "r;o" 506 196 basechar 0
AnchorPoint: "r;x" 506 383 basechar 0
AnchorPoint: "r;bl" 515 10 basechar 0
AnchorPoint: "l;o" 9 196 basechar 0
AnchorPoint: "l;x" 18 383 basechar 0
AnchorPoint: "l;bl" 0 10 basechar 0
AnchorPoint: "l;hi2" 9 671 basechar 0
LayerCount: 3
Fore
SplineSet
15 0 m 1
 14 2 14 5 14 8 c 0
 14 30 70 -15 70 62 c 2
 70 485 l 1
 17 485 l 1
 15 491 14 497 14 505 c 0
 14 511 15 518 17 524 c 1
 70 524 l 1
 70 556 l 2
 70 641 14 588 14 612 c 0
 14 642 43 597 168 665 c 1
 172 665 179 663 180 659 c 0
 180 657 178 612 178 608 c 2
 178 524 l 1
 289 524 l 1
 291 519 292 512 292 504 c 0
 292 496 291 490 289 485 c 1
 178 485 l 1
 178 325 l 1
 182 332 191 338 197 347 c 0
 218 375 258 406 316 406 c 0
 435 406 446 348 446 228 c 2
 446 62 l 2
 446 -12 502 30 502 8 c 0
 502 5 501 2 500 0 c 1
 284 0 l 1
 283 2 282 5 282 8 c 0
 282 30 338 -16 338 61 c 2
 338 216 l 2
 338 311 324 346 264 346 c 0
 213 346 178 306 178 281 c 2
 178 61 l 2
 178 -13 233 30 233 8 c 0
 233 5 232 2 231 0 c 1
 15 0 l 1
EndSplineSet
EndChar

StartChar: Hbar
Encoding: 294 294 340
Width: 806
VWidth: 0
Flags: W
HStem: 0 21G<29.5 321.5 485.5 777.5> 304 38<235 571> 451 38<27.0117 105 235 571 701 778.988> 616 20G<28.5 320.5 484.5 776.5>
VStem: 105 130<24.0575 304 342 451 489 614.088> 571 130<22.1451 304 342 451 489 614.278>
AnchorPoint: "r;o" 788 198 basechar 0
AnchorPoint: "r;hi" 806 610 basechar 0
AnchorPoint: "r;x" 788 385 basechar 0
AnchorPoint: "r;bl" 806 10 basechar 0
AnchorPoint: "l;o" 18 198 basechar 0
AnchorPoint: "l;hi" 0 610 basechar 0
AnchorPoint: "l;x" 18 385 basechar 0
AnchorPoint: "l;bl" 0 10 basechar 0
LayerCount: 3
Fore
SplineSet
484 626 m 0
 484 630 484 634 485 636 c 1
 776 636 l 1
 777 634 779 630 779 626 c 0
 779 600 701 656 701 562 c 2
 701 489 l 1
 776 489 l 1
 778 484 779 476 779 469 c 0
 779 462 778 456 776 451 c 1
 701 451 l 1
 701 74 l 2
 701 -17 779 36 779 10 c 0
 779 6 778 2 777 0 c 1
 486 0 l 1
 485 2 484 6 484 10 c 0
 484 37 571 -20 571 74 c 2
 571 304 l 1
 235 304 l 1
 235 74 l 2
 235 -17 322 36 322 10 c 0
 322 6 322 2 321 0 c 1
 30 0 l 1
 29 2 27 6 27 10 c 0
 27 37 105 -20 105 74 c 2
 105 451 l 1
 30 451 l 1
 28 457 27 464 27 471 c 0
 27 477 28 483 30 489 c 1
 105 489 l 1
 105 562 l 2
 105 653 27 601 27 626 c 0
 27 630 28 634 29 636 c 1
 320 636 l 1
 321 634 322 630 322 626 c 0
 322 600 235 656 235 562 c 2
 235 489 l 1
 571 489 l 1
 571 562 l 2
 571 656 484 601 484 626 c 0
571 451 m 1
 235 451 l 1
 235 342 l 1
 571 342 l 1
 571 451 l 1
EndSplineSet
EndChar

StartChar: tbar
Encoding: 359 359 341
Width: 311
VWidth: 0
Flags: W
HStem: -14 53<124.5 255.685> 191 38<22.0117 64 172 291> 340 53<172 290.941>
VStem: 64 108<55.7697 191 229 335>
AnchorPoint: "r;o" 293 195 basechar 0
AnchorPoint: "r;x" 311 383 basechar 0
AnchorPoint: "r;bl" 311 12 basechar 0
AnchorPoint: "l;o" 0 195 basechar 0
AnchorPoint: "l;x" 0 383 basechar 0
AnchorPoint: "l;bl" 0 12 basechar 0
LayerCount: 3
Fore
SplineSet
298 33 m 0
 268 11 219 -14 174 -14 c 0
 75 -14 64 49 64 190 c 2
 64 191 l 1
 25 191 l 1
 23 197 22 204 22 211 c 0
 22 217 23 223 25 229 c 1
 64 229 l 1
 64 335 l 1
 26 336 22 333 22 345 c 0
 22 352 24 350 71 393 c 2
 133 449 l 2
 143 458 150 466 162 466 c 0
 170 466 172 459 172 450 c 2
 172 393 l 1
 281 393 l 2
 291 393 291 388 291 364 c 0
 291 344 282 340 268 340 c 2
 172 340 l 1
 172 229 l 1
 289 229 l 1
 291 224 291 216 291 209 c 0
 291 202 291 196 289 191 c 1
 172 191 l 1
 172 186 l 2
 172 80 179 39 232 39 c 0
 254 39 274 46 291 52 c 1
 296 47 298 41 298 36 c 0
 298 35 298 34 298 33 c 0
EndSplineSet
EndChar

StartChar: Tbar
Encoding: 358 358 342
Width: 694
VWidth: 0
Flags: W
HStem: 0 21G<192.5 506.5> 308 38<148 284 414 550.988> 595 41<83.2479 279.287 418.454 618.98>
VStem: 284 130<21.7708 308 346 593.424>
AnchorPoint: "r;x" 622 383 basechar 0
AnchorPoint: "r;hi" 694 605 basechar 0
AnchorPoint: "r;o" 609 195 basechar 0
AnchorPoint: "r;bl" 595 10 basechar 0
AnchorPoint: "r;hi2" 694 670 basechar 0
AnchorPoint: "l;x" 72 383 basechar 0
AnchorPoint: "l;hi" 0 605 basechar 0
AnchorPoint: "l;o" 81 195 basechar 0
AnchorPoint: "l;bl" 99 10 basechar 0
LayerCount: 3
Fore
SplineSet
414 500 m 2
 414 346 l 1
 548 346 l 1
 550 341 551 333 551 326 c 0
 551 319 550 313 548 308 c 1
 414 308 l 1
 414 73 l 2
 414 -21 508 35 508 10 c 0
 508 6 507 2 506 0 c 1
 193 0 l 1
 192 2 191 6 191 10 c 0
 191 35 284 -21 284 73 c 2
 284 308 l 1
 150 308 l 1
 148 314 148 321 148 328 c 0
 148 334 148 340 150 346 c 1
 284 346 l 1
 284 498 l 2
 284 590 279 595 247 595 c 2
 158 595 l 2
 98 595 101 591 78 570 c 0
 39 533 26 517 23 517 c 0
 21 517 14 520 14 525 c 0
 14 528 47 624 53 649 c 0
 54 652 56 654 59 654 c 0
 65 654 85 636 99 636 c 2
 603 636 l 2
 611 636 637 650 641 650 c 0
 646 650 648 647 651 637 c 2
 661 593 l 2
 667 568 680 522 680 519 c 0
 680 516 675 513 671 513 c 0
 667 513 643 547 618 576 c 0
 605 591 596 595 577 595 c 2
 450 595 l 2
 415 595 414 578 414 500 c 2
EndSplineSet
EndChar

StartChar: lslash
Encoding: 322 322 343
Width: 278
VWidth: 0
Flags: W
HStem: 0 21G<15.5 263.5> 392 20G<212.273 264> 645 20G<124 201>
VStem: 100 108<19.8262 296 340 346 390 602.441>
DStem2: 16 301 16 257 0.906558 0.422082<-10.88 74.0405 211.624 263.823>
AnchorPoint: "l;hi2" 9 671 basechar 0
AnchorPoint: "r;o" 269 201 basechar 0
AnchorPoint: "r;hi" 278 611 basechar 0
AnchorPoint: "r;x" 269 388 basechar 0
AnchorPoint: "r;bl" 278 10 basechar 0
AnchorPoint: "l;o" 9 201 basechar 0
AnchorPoint: "l;x" 21 388 basechar 0
AnchorPoint: "l;bl" 0 10 basechar 0
LayerCount: 3
Fore
SplineSet
208 346 m 1
 208 64 l 2
 208 -10 264 31 264 8 c 0
 264 5 264 2 263 0 c 1
 16 0 l 1
 15 2 14 5 14 8 c 0
 14 30 100 -14 100 63 c 2
 100 296 l 1
 16 257 l 1
 16 257 14 267 14 279 c 0
 14 290 16 301 16 301 c 1
 100 340 l 1
 100 556 l 2
 100 641 15 587 15 611 c 0
 15 641 49 597 199 665 c 1
 203 665 210 663 211 659 c 0
 211 657 208 613 208 609 c 2
 208 390 l 1
 255 412 l 1
 255 412 264 405 264 394 c 0
 264 381 263 372 263 372 c 1
 208 346 l 1
EndSplineSet
EndChar

StartChar: Lslash
Encoding: 321 321 344
Width: 600
VWidth: 0
Flags: W
HStem: 0 41<235.04 486.375> 392 20G<320.348 415> 616 20G<28.5 311.5>
VStem: 105 130<41.0399 284 366 613.663> 547 17<156.572 178.125>
DStem2: 29 303 29 261 0.956583 0.291459<-8.17361 67.1626 215.418 395.533>
AnchorPoint: "l;bl" 0 12 basechar 0
AnchorPoint: "l;x" 18 388 basechar 0
AnchorPoint: "l;hi" 0 610 basechar 0
AnchorPoint: "l;o" 18 205 basechar 0
AnchorPoint: "r;bl" 582 12 basechar 0
AnchorPoint: "r;x" 546 388 basechar 0
AnchorPoint: "r;hi" 492 610 basechar 0
AnchorPoint: "r;o" 600 205 basechar 0
LayerCount: 3
Fore
SplineSet
29 0 m 1
 28 2 27 6 27 10 c 0
 27 36 105 -17 105 74 c 2
 105 284 l 1
 29 261 l 1
 29 261 27 269 27 281 c 0
 27 292 29 303 29 303 c 1
 105 326 l 1
 105 562 l 2
 105 653 27 600 27 626 c 0
 27 630 28 634 29 636 c 1
 311 636 l 1
 312 634 313 631 313 627 c 0
 313 602 235 659 235 565 c 2
 235 366 l 1
 386 412 l 1
 386 412 415 405 415 395 c 0
 415 383 413 378 413 378 c 1
 235 323 l 1
 235 63 l 2
 235 52 241 41 257 41 c 2
 443 41 l 2
 480 41 487 51 547 173 c 0
 551 183 564 179 564 167 c 0
 564 165 564 143 552 83 c 0
 540 26 539 0 523 0 c 2
 29 0 l 1
EndSplineSet
EndChar

StartChar: ldot
Encoding: 320 320 345
Width: 439
VWidth: 0
Flags: W
HStem: 0 21G<14.5 232.5> 271 113<288.212 391.74> 645 20G<105.5 170>
VStem: 70 108<16.877 603.113> 272 134<286.688 368.928>
AnchorPoint: "l;hi2" 9 671 basechar 0
AnchorPoint: "r;o" 439 193 basechar 0
AnchorPoint: "r;hi" 247 612 basechar 0
AnchorPoint: "r;x" 439 395 basechar 0
AnchorPoint: "r;bl" 247 10 basechar 0
AnchorPoint: "l;o" 9 193 basechar 0
AnchorPoint: "l;x" 18 395 basechar 0
AnchorPoint: "l;bl" 0 10 basechar 0
LayerCount: 3
Fore
SplineSet
70 62 m 2
 70 553 l 2
 70 638 14 585 14 610 c 0
 14 641 43 597 168 665 c 1
 172 665 179 663 180 659 c 0
 180 657 178 610 178 606 c 2
 178 62 l 2
 178 -12 234 30 234 8 c 0
 234 5 233 2 232 0 c 1
 15 0 l 1
 14 2 14 5 14 8 c 0
 14 30 70 -15 70 62 c 2
336 384 m 0
 383 384 406 355 406 327 c 0
 406 299 384 271 341 271 c 0
 298 271 272 301 272 331 c 0
 272 355 290 384 336 384 c 0
EndSplineSet
EndChar

StartChar: kgreenlandic
Encoding: 312 312 346
Width: 512
VWidth: 0
Flags: W
HStem: 0 21G<14.5 241.5 273.5 497.5> 160 27<178 220.494> 391 2G<156.5 170 289.5 472.5>
VStem: 70 108<15.739 159 187.001 363.572>
DStem2: 306 208 237 127 0.624695 -0.780869<-21.2526 137.329> 239 218 297 228 0.672673 0.73994<37.7733 156.852>
AnchorPoint: "r;o" 483 196 basechar 0
AnchorPoint: "r;x" 503 385 basechar 0
AnchorPoint: "r;bl" 512 10 basechar 0
AnchorPoint: "l;o" 9 196 basechar 0
AnchorPoint: "l;x" 0 385 basechar 0
AnchorPoint: "l;bl" 0 10 basechar 0
LayerCount: 3
Fore
SplineSet
168 411 m 1
 172 411 179 409 180 405 c 0
 180 403 178 356 178 352 c 2
 178 188 l 1
 178 188 181 187 187 187 c 0
 199 187 219 191 239 218 c 2
 313 299 l 2
 328 320 333 335 333 345 c 0
 333 355 329 360 326 363 c 0
 310 380 289 369 289 385 c 0
 289 388 289 391 290 393 c 1
 472 393 l 1
 473 391 474 388 474 385 c 0
 474 365 448 398 407 349 c 0
 398 341 388 329 375 314 c 2
 297 228 l 2
 290 223 299 215 306 208 c 2
 421 65 l 2
 434 47 439 40 446 33 c 0
 468 12 499 25 499 8 c 0
 499 5 498 2 497 0 c 1
 274 0 l 1
 273 2 272 5 272 8 c 0
 272 23 305 13 305 31 c 0
 305 38 300 47 287 65 c 2
 237 127 l 2
 226 141 215 160 192 160 c 0
 188 160 178 159 178 159 c 1
 178 58 l 2
 178 -16 243 29 243 8 c 0
 243 5 242 2 241 0 c 1
 15 0 l 1
 14 2 14 5 14 8 c 0
 14 30 70 -15 70 62 c 2
 70 313 l 2
 70 398 14 346 14 372 c 0
 14 386 21 388 37 388 c 0
 86 388 145 399 168 411 c 1
EndSplineSet
EndChar

StartChar: uni0302.cap
Encoding: 65545 -1 347
Width: 0
Flags: W
HStem: 496 135
VStem: -348 234<502 509>
AnchorPoint: "top" -230 540 mark 0
LayerCount: 3
Fore
SplineSet
-231 562 m 1
 -303 514 -327 496 -337 496 c 0
 -340 496 -348 502 -348 505 c 0
 -348 509 -314 537 -249 629 c 1
 -249 629 -237 631 -230 631 c 0
 -226 631 -213 629 -213 629 c 1
 -148 537 -114 509 -114 505 c 0
 -114 502 -122 496 -125 496 c 0
 -135 496 -160 513 -231 562 c 1
EndSplineSet
EndChar

StartChar: uni0237.ld
Encoding: 65546 -1 348
Width: 248
VWidth: 0
Flags: W
HStem: 392 20G<113 172>
VStem: 71 108<-118.821 336.13>
AnchorPoint: "r;lo" 212 -201 basechar 0
AnchorPoint: "r;o" 248 202 basechar 0
AnchorPoint: "r;x" 248 389 basechar 0
AnchorPoint: "r;bl" 248 10 basechar 0
AnchorPoint: "l;k;lo" -22 -201 basechar 0
AnchorPoint: "l;o" 0 202 basechar 0
AnchorPoint: "l;x" 0 389 basechar 0
AnchorPoint: "l;bl" 0 10 basechar 0
AnchorPoint: "top" 106 544 basechar 0
LayerCount: 3
Fore
SplineSet
71 279 m 2
 71 367 15 325 15 355 c 0
 15 383 56 355 170 412 c 1
 174 412 181 409 182 404 c 1
 181 397 179 369 179 314 c 2
 179 -14 l 2
 179 -184 36 -262 8 -283 c 1
 0 -278 -4 -271 -7 -261 c 1
 49 -201 71 -174 71 -11 c 2
 71 279 l 2
EndSplineSet
EndChar

StartChar: uni030C.cap
Encoding: 65550 -1 352
Width: 0
Flags: W
HStem: 496 135
VStem: -348 234<618 625>
AnchorPoint: "top" -230 540 mark 0
LayerCount: 3
Fore
SplineSet
-231 565 m 5
 -159 613 -135 631 -125 631 c 4
 -122 631 -114 625 -114 622 c 4
 -114 618 -148 590 -213 498 c 5
 -213 498 -225 496 -232 496 c 4
 -236 496 -249 498 -249 498 c 5
 -314 590 -348 618 -348 622 c 4
 -348 625 -340 631 -337 631 c 4
 -327 631 -302 614 -231 565 c 5
EndSplineSet
EndChar

StartChar: Iogonek
Encoding: 302 302 353
Width: 364
VWidth: 0
Flags: W
HStem: -225 48<178.914 270.568> 616 20G<28.5 334.5>
VStem: 63 90<-151.72 -68.1571> 129 130<28.0696 609.9>
AnchorPoint: "r;o" 346 203 basechar 0
AnchorPoint: "r;hi" 364 610 basechar 0
AnchorPoint: "r;x" 346 386 basechar 0
AnchorPoint: "r;bl" 364 14 basechar 0
AnchorPoint: "l;o" 18 203 basechar 0
AnchorPoint: "l;hi" 0 610 basechar 0
AnchorPoint: "l;x" 18 386 basechar 0
AnchorPoint: "l;bl" 0 14 basechar 0
AnchorPoint: "r;lo" 319 -199 basechar 0
AnchorPoint: "l;lo" 36 -199 basechar 0
LayerCount: 3
Fore
SplineSet
30 4 m 1xe0
 29 6 27 10 27 14 c 0
 27 41 129 -16 129 78 c 2
 129 561 l 2
 129 652 27 600 27 626 c 0
 27 630 28 634 29 636 c 1
 334 636 l 1
 335 634 337 630 337 626 c 0
 337 599 259 655 259 561 c 2
 259 78 l 2xd0
 259 -13 337 40 337 14 c 0
 337 10 336 6 335 4 c 1
 257 4 l 2
 192 4 153 -34 153 -94 c 0
 153 -145 190 -177 234 -177 c 0
 270 -177 298 -165 298 -165 c 1
 302 -168 304 -172 304 -181 c 1
 304 -181 257 -225 187 -225 c 0
 105 -225 63 -176 63 -130 c 0
 63 -62 131 -20 184 4 c 1
 30 4 l 1xe0
EndSplineSet
EndChar

StartChar: Ldot
Encoding: 319 319 362
Width: 648
VWidth: 0
Flags: W
HStem: 0 41<235.047 522.375> 274 113<429.665 532.74> 616 20G<28.5 311.5>
VStem: 105 130<41.9743 613.058> 413 134<290.685 371.928>
AnchorPoint: "r;o" 648 198 basechar 0
AnchorPoint: "r;hi" 536 610 basechar 0
AnchorPoint: "r;x" 594 397 basechar 0
AnchorPoint: "r;bl" 630 12 basechar 0
AnchorPoint: "l;o" 18 198 basechar 0
AnchorPoint: "l;hi" 0 610 basechar 0
AnchorPoint: "l;x" 18 397 basechar 0
AnchorPoint: "l;bl" 0 12 basechar 0
LayerCount: 3
Fore
SplineSet
29 0 m 1
 28 2 27 6 27 10 c 0
 27 36 105 -16 105 75 c 2
 105 561 l 2
 105 652 27 600 27 626 c 0
 27 630 28 634 29 636 c 1
 311 636 l 1
 312 634 313 630 313 626 c 0
 313 599 235 656 235 562 c 2
 235 63 l 2
 235 52 242 41 261 41 c 2
 473 41 l 2
 515 41 523 51 592 167 c 0
 596 177 612 173 612 161 c 0
 612 159 612 138 599 80 c 0
 586 25 584 0 567 0 c 2
 29 0 l 1
477 387 m 0
 524 387 547 358 547 330 c 0
 547 302 526 274 483 274 c 0
 440 274 413 304 413 334 c 0
 413 358 431 387 477 387 c 0
EndSplineSet
EndChar

StartChar: uni0308.cap
Encoding: 65551 -1 365
Width: 95
VWidth: 0
Flags: W
HStem: 527 112<-305.822 -201.26 -113.822 -9.26027>
VStem: -321 134<543.049 623.928> -129 134<543.049 623.928>
AnchorPoint: "top" -159 529 mark 0
LayerCount: 3
Fore
SplineSet
-65 639 m 0
 -18 639 5 610 5 582 c 0
 5 554 -17 527 -60 527 c 0
 -103 527 -129 556 -129 586 c 0
 -129 610 -111 639 -65 639 c 0
-257 639 m 0
 -210 639 -187 610 -187 582 c 0
 -187 554 -209 527 -252 527 c 0
 -295 527 -321 556 -321 586 c 0
 -321 610 -303 639 -257 639 c 0
EndSplineSet
EndChar

StartChar: uni0306.cap
Encoding: 65552 -1 366
Width: 24
Flags: W
HStem: 493 72<-253.215 -136.785> 616 20G<-296 -286 -103 -93>
VStem: -310 35<591.007 635.978> -115 35<591.007 635.994>
AnchorPoint: "top" -195 541 mark 0
LayerCount: 3
Fore
SplineSet
-195 565 m 0
 -122 565 -119 623 -115 634 c 1
 -115 634 -108 636 -98 636 c 0
 -88 636 -80 634 -80 634 c 1
 -80 633 l 2
 -80 618 -87 493 -195 493 c 0
 -303 493 -310 618 -310 633 c 2
 -310 634 l 1
 -310 634 -301 636 -291 636 c 0
 -281 636 -275 634 -275 634 c 1
 -271 623 -268 565 -195 565 c 0
EndSplineSet
EndChar

StartChar: gravecomb.cap
Encoding: 65553 -1 367
Width: 65
VWidth: 0
Flags: W
HStem: 455 181
VStem: -303 183
AnchorPoint: "top" -207 521 mark 0
LayerCount: 3
Fore
SplineSet
-303 599 m 0
 -303 617 -284 636 -257 636 c 0
 -214 636 -194 581 -159 528 c 0
 -137 494 -120 474 -120 468 c 0
 -120 458 -129 455 -133 455 c 0
 -150 455 -162 465 -207 502 c 0
 -229 520 -303 562 -303 599 c 0
EndSplineSet
EndChar

StartChar: acutecomb.cap
Encoding: 65554 -1 368
Width: 65
VWidth: 0
Flags: W
HStem: 455 181
VStem: -227 183
AnchorPoint: "top" -207 521 mark 0
LayerCount: 3
Fore
SplineSet
-44 599 m 4
 -44 562 -118 520 -140 502 c 4
 -185 465 -197 455 -214 455 c 4
 -218 455 -227 458 -227 468 c 4
 -227 474 -210 494 -188 528 c 4
 -153 581 -133 636 -90 636 c 4
 -63 636 -44 617 -44 599 c 4
EndSplineSet
EndChar

StartChar: tildecomb.cap
Encoding: 65555 -1 369
Width: 896
VWidth: 0
Flags: W
HStem: 513 72<-192.153 -134.319> 564 73<-277.713 -219.494>
VStem: -317 221
AnchorPoint: "top" -207 527 mark 0
LayerCount: 3
Fore
SplineSet
-166 513 m 0xa0
 -200 513 -230 564 -262 564 c 0
 -289 564 -302 514 -302 514 c 1
 -305 514 -314 516 -317 518 c 1
 -317 518 -291 637 -246 637 c 0x60
 -212 637 -183 585 -151 585 c 0
 -124 585 -110 636 -110 636 c 1
 -107 636 -99 634 -96 632 c 1
 -96 632 -121 513 -166 513 c 0xa0
EndSplineSet
EndChar

StartChar: uni030B.cap
Encoding: 65557 -1 371
Width: 0
VWidth: 0
Flags: W
HStem: 455 181
VStem: -267 92<548.321 583.27>
AnchorPoint: "top" -207 521 mark 0
LayerCount: 3
Fore
SplineSet
-48 599 m 0
 -48 562 -97 520 -111 502 c 0
 -140 465 -147 455 -158 455 c 0
 -161 455 -166 458 -166 468 c 0
 -166 474 -155 494 -141 528 c 0
 -118 581 -106 636 -78 636 c 0
 -61 636 -48 617 -48 599 c 0
-175 599 m 0
 -175 562 -223 520 -237 502 c 0
 -266 465 -273 455 -284 455 c 0
 -287 455 -292 458 -292 468 c 0
 -292 474 -281 494 -267 528 c 0
 -244 581 -232 636 -204 636 c 0
 -187 636 -175 617 -175 599 c 0
EndSplineSet
EndChar

StartChar: uni030A.cap
Encoding: 65559 -1 373
Width: 40
VWidth: 0
Flags: W
HStem: 469 45<-218.835 -151.93> 590 45<-220.194 -152.745>
VStem: -279 56<517.71 587.32> -149 56<516.484 586.041>
AnchorPoint: "top" -187 540 mark 0
LayerCount: 3
Fore
SplineSet
-188 635 m 0
 -123 635 -93 593 -93 551 c 0
 -93 509 -127 469 -184 469 c 0
 -241 469 -279 511 -279 556 c 0
 -279 592 -252 635 -188 635 c 0
-188 590 m 0
 -213 590 -223 570 -223 553 c 0
 -223 533 -208 514 -184 514 c 0
 -160 514 -149 532 -149 551 c 0
 -149 570 -162 590 -188 590 c 0
EndSplineSet
EndChar

StartChar: uni0307.cap
Encoding: 65560 -1 374
Width: 47
VWidth: 0
Flags: W
HStem: 527 112<-233.822 -129.26>
VStem: -249 134<543.049 623.928>
AnchorPoint: "top" -184 529 mark 0
LayerCount: 3
Fore
SplineSet
-185 639 m 0
 -138 639 -115 610 -115 582 c 0
 -115 554 -137 527 -180 527 c 0
 -223 527 -249 556 -249 586 c 0
 -249 610 -231 639 -185 639 c 0
EndSplineSet
EndChar

StartChar: uni0304.cap
Encoding: 65562 -1 376
Width: 858
VWidth: 0
Flags: W
HStem: 559 54<-311 17>
VStem: -311 328<559 613>
AnchorPoint: "top" -266 534 mark 0
LayerCount: 3
Fore
SplineSet
17 559 m 1
 -311 559 l 1
 -311 613 l 1
 17 613 l 1
 17 559 l 1
EndSplineSet
EndChar

StartChar: uni0326
Encoding: 806 806 378
Width: 20
VWidth: 0
Flags: W
HStem: -270 21G<-234 -228.5> -152 91<-242.698 -188.515>
VStem: -188 56<-207.882 -113>
AnchorPoint: "cedilla" -207 -83 mark 0
LayerCount: 3
Fore
SplineSet
-132 -137 m 0
 -132 -185 -156 -215 -181 -240 c 0
 -210 -268 -227 -270 -230 -270 c 0
 -238 -270 -241 -267 -243 -261 c 0
 -247 -253 -242 -250 -235 -244 c 0
 -207 -222 -188 -194 -188 -173 c 0
 -188 -159 -196 -152 -218 -152 c 0
 -243 -152 -252 -136 -252 -114 c 0
 -252 -88 -235 -61 -198 -61 c 0
 -164 -61 -132 -89 -132 -137 c 0
EndSplineSet
EndChar

StartChar: uni0327
Encoding: 807 807 386
Width: 20
VWidth: 0
Flags: W
HStem: -270 21G<-234 -228.5> -152 91<-242.698 -188.515>
VStem: -188 56<-207.882 -113>
AnchorPoint: "cedilla" -207 -83 mark 0
LayerCount: 3
Fore
SplineSet
-132 -137 m 4
 -132 -185 -156 -215 -181 -240 c 4
 -210 -268 -227 -270 -230 -270 c 4
 -238 -270 -241 -267 -243 -261 c 4
 -247 -253 -242 -250 -235 -244 c 4
 -207 -222 -188 -194 -188 -173 c 4
 -188 -159 -196 -152 -218 -152 c 4
 -243 -152 -252 -136 -252 -114 c 4
 -252 -88 -235 -61 -198 -61 c 4
 -164 -61 -132 -89 -132 -137 c 4
EndSplineSet
EndChar

StartChar: uni0312
Encoding: 786 786 394
Width: 20
VWidth: 0
Flags: W
HStem: 452 91<-205.485 -151.302> 643 20G<-165.5 -160>
VStem: -262 56<504.5 599.291>
AnchorPoint: "top" -187 552 mark 0
LayerCount: 3
Fore
SplineSet
-262 529 m 0
 -262 578 -237 608 -212 633 c 0
 -183 661 -167 663 -164 663 c 0
 -156 663 -153 660 -151 654 c 0
 -147 646 -152 643 -159 637 c 0
 -187 614 -206 587 -206 565 c 0
 -206 550 -198 543 -176 543 c 0
 -151 543 -142 527 -142 505 c 0
 -142 479 -159 452 -196 452 c 0
 -230 452 -262 480 -262 529 c 0
EndSplineSet
EndChar

StartChar: Oslash
Encoding: 216 216 398
Width: 767
VWidth: 0
Flags: W
HStem: -26 40<321.289 479.079> 620 38<308.547 452.277>
VStem: 36 153<207.062 440.581> 595 136<184.895 439.881>
DStem2: 148 -102 184 -120 0.465059 0.88528<-1.28833 150.296 211.588 750.938 814.001 946.12>
AnchorPoint: "r;o" 767 201 basechar 0
AnchorPoint: "r;hi" 717 608 basechar 0
AnchorPoint: "r;x" 767 385 basechar 0
AnchorPoint: "r;bl" 717 13 basechar 0
AnchorPoint: "l;o" 0 201 basechar 0
AnchorPoint: "l;hi" 50 608 basechar 0
AnchorPoint: "l;x" 0 385 basechar 0
AnchorPoint: "l;bl" 50 13 basechar 0
LayerCount: 3
Fore
SplineSet
380 620 m 0
 246 620 189 457 189 330 c 0
 189 245 207 148 247 85 c 1
 499 566 l 1
 464 602 423 620 380 620 c 0
533 544 m 1
 281 64 l 1
 312 33 352 14 401 14 c 0
 478 14 595 62 595 304 c 0
 595 412 570 491 533 544 c 1
256 16 m 1
 184 -120 l 1
 170 -116 158 -111 148 -102 c 1
 218 31 l 1
 112 86 36 185 36 328 c 0
 36 471 142 658 358 658 c 0
 417 658 475 644 525 615 c 1
 585 730 l 1
 606 730 620 730 630 729 c 1
 562 600 l 1
 662 548 731 456 731 317 c 0
 731 86 573 -26 410 -26 c 0
 356 -26 304 -12 256 16 c 1
EndSplineSet
EndChar

StartChar: uni0308.narrow
Encoding: 65564 -1 399
Width: 95
VWidth: 0
Flags: W
HStem: 549 112<-305.822 -201.26 -140.822 -36.2603>
VStem: -321 134<565.049 645.928> -156 134<565.049 645.928>
AnchorPoint: "top" -159 521 mark 0
LayerCount: 3
Fore
SplineSet
-92 661 m 0
 -45 661 -22 632 -22 604 c 0
 -22 576 -44 549 -87 549 c 0
 -130 549 -156 578 -156 608 c 0
 -156 632 -138 661 -92 661 c 0
-257 661 m 0
 -210 661 -187 632 -187 604 c 0
 -187 576 -209 549 -252 549 c 0
 -295 549 -321 578 -321 608 c 0
 -321 632 -303 661 -257 661 c 0
EndSplineSet
EndChar

StartChar: uni0315
Encoding: 789 789 400
Width: 35
VWidth: 0
Flags: W
HStem: 413 250<-177 -169>
VStem: -190 100<559.599 639.217>
AnchorPoint: "commaright" -207 516 mark 0
LayerCount: 3
Fore
SplineSet
-131 663 m 0
 -112 663 -90 656 -90 629 c 0
 -90 609 -102 578 -125 531 c 0
 -160 459 -169 413 -180 413 c 0
 -197 413 -200 421 -200 423 c 0
 -200 429 -195 475 -190 542 c 0
 -185 597 -177 663 -131 663 c 0
EndSplineSet
EndChar

StartChar: periodcentered
Encoding: 183 183 404
Width: 267
VWidth: 0
Flags: W
HStem: 270 112<82.1778 186.74>
VStem: 67 134<286.049 366.928>
LayerCount: 3
Fore
SplineSet
131 382 m 0
 178 382 201 353 201 325 c 0
 201 297 179 270 136 270 c 0
 93 270 67 299 67 329 c 0
 67 353 85 382 131 382 c 0
EndSplineSet
EndChar

StartChar: degree
Encoding: 176 176 405
Width: 361
VWidth: 0
Flags: W
HStem: 472 44<135.853 217.726> 622 43<134.328 214.847>
VStem: 66 59<526.092 613.544> 226 59<524.187 610.71>
LayerCount: 3
Fore
SplineSet
173 665 m 0
 250 665 285 614 285 566 c 0
 285 518 244 472 177 472 c 0
 110 472 66 521 66 573 c 0
 66 615 97 665 173 665 c 0
172 622 m 0
 138 622 125 591 125 569 c 0
 125 542 145 516 178 516 c 0
 211 516 226 542 226 567 c 0
 226 592 208 622 172 622 c 0
EndSplineSet
EndChar

StartChar: eng
Encoding: 331 331 406
Width: 515
VWidth: 0
Flags: W
HStem: 0 21G<14.5 231.5> 346 60<241.535 377.024>
VStem: 70 108<16.1488 320.379> 338 108<-71.2772 326.24>
AnchorPoint: "r;lo" 479 -203 basechar 0
AnchorPoint: "r;o" 506 196 basechar 0
AnchorPoint: "r;x" 506 387 basechar 0
AnchorPoint: "r;bl" 515 10 basechar 0
AnchorPoint: "l;o" 0 196 basechar 0
AnchorPoint: "l;x" 0 387 basechar 0
AnchorPoint: "l;bl" 0 10 basechar 0
LayerCount: 3
Fore
SplineSet
338 214 m 2
 338 310 327 346 264 346 c 0
 213 346 178 306 178 281 c 2
 178 61 l 2
 178 -13 233 30 233 8 c 0
 233 5 232 2 231 0 c 1
 15 0 l 1
 14 2 14 5 14 8 c 0
 14 30 70 -14 70 63 c 2
 70 301 l 2
 70 386 14 333 14 358 c 0
 14 389 43 344 168 416 c 1
 172 416 179 413 180 408 c 1
 179 401 172 370 169 316 c 1
 184 331 l 1
 209 360 247 406 316 406 c 0
 435 406 446 348 446 228 c 2
 446 44 l 2
 446 -126 331 -201 297 -225 c 1
 289 -220 283 -215 280 -205 c 1
 333 -146 338 -122 338 43 c 2
 338 214 l 2
EndSplineSet
AlternateSubs2: "'aalt' Access All Alternates lookup 0 subtable" eng.ld
AlternateSubs2: "'aalt' Access All Alternates in Latin lookup 0 subtable" eng.ld
Substitution2: "'ss01' Style Set 1 in Latin lookup 1 subtable" eng.ld
EndChar

StartChar: Eng
Encoding: 330 330 407
Width: 792
VWidth: 0
Flags: W
HStem: 0 21G<45.5 272.5> 616 20G<14.5 205 517.5 763.5>
VStem: 128 46<33.8872 321.816> 595 84<-74.6864 49.5568> 643 36<246.137 582.285>
DStem2: 242 607 89 575 0.669825 -0.742519<-58.6665 22.4709 32.9185 602.086>
AnchorPoint: "r;lo" 713 -203 basechar 0
AnchorPoint: "r;o" 774 200 basechar 0
AnchorPoint: "r;hi" 792 610 basechar 0
AnchorPoint: "r;x" 774 385 basechar 0
AnchorPoint: "r;bl" 774 10 basechar 0
AnchorPoint: "l;o" 18 200 basechar 0
AnchorPoint: "l;hi" 0 610 basechar 0
AnchorPoint: "l;x" 18 385 basechar 0
AnchorPoint: "l;bl" 0 10 basechar 0
LayerCount: 3
Fore
SplineSet
12 626 m 0xf0
 12 630 14 634 15 636 c 1
 195 636 l 2
 215 636 219 629 242 607 c 2
 598 211 l 2
 624 177 640 156 641 156 c 0
 643 156 643 200 643 446 c 0
 643 541 643 590 592 607 c 0
 559 618 516 609 516 626 c 0
 516 630 517 634 518 636 c 1
 763 636 l 1
 764 634 765 630 765 626 c 0
 765 609 734 621 708 605 c 0
 679 587 679 543 679 412 c 2
 679 99 l 2xe8
 679 26 679 -6 668 -46 c 0
 638 -153 559 -206 533 -225 c 1
 524 -219 517 -214 514 -202 c 1
 549 -166 595 -103 595 -17 c 2
 595 11 l 2
 595 46 476 146 476 146 c 26
 211 440 l 2
 191 480 179 505 178 505 c 0
 177 505 174 226 174 153 c 0
 174 124 176 100 176 85 c 0
 178 50 190 37 198 32 c 0
 221 16 274 30 274 10 c 0
 274 6 273 2 272 0 c 1
 46 0 l 1
 45 2 43 6 43 10 c 0
 43 30 87 13 110 37 c 0
 124 53 127 71 128 110 c 0
 136 235 141 342 141 425 c 2
 141 522 l 2
 141 533 141 539 108 554 c 2
 89 575 l 2
 52 619 12 625 12 626 c 0xf0
EndSplineSet
AlternateSubs2: "'aalt' Access All Alternates lookup 0 subtable" Eng.ld
AlternateSubs2: "'aalt' Access All Alternates in Latin lookup 0 subtable" Eng.ld
Substitution2: "'ss01' Style Set 1 in Latin lookup 1 subtable" Eng.ld
EndChar

StartChar: aogonek
Encoding: 261 261 408
Width: 478
VWidth: 0
Flags: W
HStem: -225 48<313.108 405.088> -15 48<117 245.491> 364 42<150.5 344.868>
VStem: 29 105<276.671 332.905> 37 119<42.6673 116.513> 203 90<-156.861 -83.9454> 300 108<59.7041 188 205.15 347.288>
AnchorPoint: "r;lo" 456 -199 basechar 0
AnchorPoint: "r;o" 469 200 basechar 0
AnchorPoint: "r;x" 456 383 basechar 0
AnchorPoint: "r;bl" 478 13 basechar 0
AnchorPoint: "l;o" 0 200 basechar 0
AnchorPoint: "l;x" 18 383 basechar 0
AnchorPoint: "l;bl" 0 13 basechar 0
LayerCount: 3
Fore
SplineSet
300 188 m 1xee
 290 185 265 179 237 168 c 0
 198 153 156 135 156 85 c 0
 156 56 177 33 207 33 c 0
 219 33 300 46 300 102 c 2
 300 188 l 1xee
321 -225 m 0
 234 -225 203 -180 203 -139 c 0
 203 -90 246 -62 282 -41 c 0
 318 -19 352 -4 352 -4 c 1
 352 -4 312 11 305 53 c 1
 279 18 224 -15 148 -15 c 0
 86 -15 37 14 37 70 c 0xee
 37 125 109 168 300 209 c 1
 300 280 l 2
 300 324 294 364 217 364 c 0
 165 364 134 345 134 329 c 0
 134 324 141 310 141 293 c 0
 141 263 117 249 89 249 c 0
 60 249 29 265 29 297 c 0xf6
 29 342 154 406 279 406 c 0
 407 406 408 360 408 235 c 2
 408 130 l 2
 408 80 409 49 426 49 c 0
 447 49 444 70 457 70 c 0
 462 70 464 64 464 57 c 0
 464 18 414 9 365 -14 c 0
 315 -37 293 -71 293 -104 c 0
 293 -155 332 -177 369 -177 c 0
 406 -177 433 -165 433 -165 c 1
 437 -168 439 -172 439 -181 c 1
 439 -181 392 -225 321 -225 c 0
EndSplineSet
EndChar

StartChar: Eng.ld
Encoding: 65565 -1 409
Width: 792
VWidth: 0
Flags: W
HStem: 0 21G<45.5 272.5> 616 20G<14.5 205 517.5 763.5>
VStem: 128 46<33.8872 321.816> 596 83<-118.445 47.8378> 643 36<246.137 582.478>
DStem2: 242 607 89 575 0.669825 -0.742519<-58.6665 22.4709 32.9185 602.755>
AnchorPoint: "l;bl" 0 10 basechar 0
AnchorPoint: "l;x" 18 385 basechar 0
AnchorPoint: "l;hi" 0 610 basechar 0
AnchorPoint: "l;o" 18 200 basechar 0
AnchorPoint: "r;bl" 774 10 basechar 0
AnchorPoint: "r;x" 774 385 basechar 0
AnchorPoint: "r;hi" 792 610 basechar 0
AnchorPoint: "r;o" 774 200 basechar 0
AnchorPoint: "r;lo" 713 -202 basechar 0
LayerCount: 3
Fore
SplineSet
679 -15 m 2xf0
 679 -182 538 -262 510 -283 c 1
 501 -278 496 -270 493 -259 c 1
 554 -200 596 -167 596 -5 c 2
 596 11 l 2xf0
 596 42 476 146 476 146 c 26
 211 440 l 2
 191 480 179 505 178 505 c 0
 177 505 174 226 174 153 c 0
 174 124 176 100 176 85 c 0
 178 50 190 37 198 32 c 0
 221 16 274 30 274 10 c 0
 274 6 273 2 272 0 c 1
 46 0 l 1
 45 2 43 6 43 10 c 0
 43 30 87 13 110 37 c 0
 124 53 127 71 128 110 c 0
 136 235 141 342 141 425 c 2
 141 522 l 2
 141 533 141 539 108 554 c 2
 89 575 l 2
 52 619 12 625 12 626 c 0
 12 630 14 634 15 636 c 1
 195 636 l 2
 215 636 219 629 242 607 c 2
 598 211 l 2
 624 177 641 156 642 156 c 0
 644 156 643 200 643 446 c 0
 643 541 643 590 592 607 c 0
 559 618 516 609 516 626 c 0
 516 630 517 634 518 636 c 1
 763 636 l 1
 764 634 765 630 765 626 c 0
 765 609 734 621 708 605 c 0
 679 587 679 544 679 413 c 2xe8
 679 -15 l 2xf0
EndSplineSet
EndChar

StartChar: eng.ld
Encoding: 65566 -1 410
Width: 515
VWidth: 0
Flags: W
HStem: 0 21G<14.5 231.5> 346 60<241.535 377.024>
VStem: 70 108<16.1488 320.379> 338 108<-118.821 326.24>
AnchorPoint: "l;bl" 0 10 basechar 0
AnchorPoint: "l;x" 0 387 basechar 0
AnchorPoint: "l;o" 0 196 basechar 0
AnchorPoint: "r;bl" 515 10 basechar 0
AnchorPoint: "r;x" 506 387 basechar 0
AnchorPoint: "r;o" 506 196 basechar 0
AnchorPoint: "r;lo" 479 -202 basechar 0
LayerCount: 3
Fore
SplineSet
338 -15 m 2
 338 214 l 2
 338 310 327 346 264 346 c 0
 213 346 178 306 178 281 c 2
 178 61 l 2
 178 -13 233 30 233 8 c 0
 233 5 232 2 231 0 c 1
 15 0 l 1
 14 2 14 5 14 8 c 0
 14 30 70 -14 70 63 c 2
 70 301 l 2
 70 386 14 333 14 358 c 0
 14 389 43 344 168 416 c 1
 172 416 179 413 180 408 c 1
 179 401 172 370 169 316 c 1
 184 331 l 1
 209 360 247 406 316 406 c 0
 435 406 446 348 446 228 c 2
 446 -14 l 2
 446 -184 303 -262 275 -283 c 1
 267 -278 262 -271 259 -261 c 1
 315 -203 338 -175 338 -15 c 2
EndSplineSet
EndChar

StartChar: Aogonek
Encoding: 260 260 411
Width: 732
VWidth: 0
Flags: W
HStem: -225 48<457.5 564.404> 0 21G<30.5 289.5> 236 44<273.094 425.999> 629 20G<381.5 397.5>
VStem: 395 90<-164.423 -67.1526>
DStem2: 145 78 203 112 0.360488 0.932764<-7.24587 193.452 239.346 478.994> 453 540 424 297 0.350218 -0.936668<0 230.199 274.656 481.57>
AnchorPoint: "r;lo" 610 -199 basechar 0
AnchorPoint: "r;o" 678 197 basechar 0
AnchorPoint: "r;hi" 624 612 basechar 0
AnchorPoint: "r;x" 651 388 basechar 0
AnchorPoint: "r;bl" 732 10 basechar 0
AnchorPoint: "l;o" 55 197 basechar 0
AnchorPoint: "l;hi" 167 612 basechar 0
AnchorPoint: "l;x" 97 388 basechar 0
AnchorPoint: "l;bl" 0 10 basechar 0
LayerCount: 3
Fore
SplineSet
359 515 m 2
 279 308 l 2
 276 299 272 288 273 285 c 0
 275 278 278 280 282 280 c 2
 414 280 l 2
 425 280 426 281 426 284 c 0
 426 287 426 291 424 297 c 2
 343 515 l 2
 348 535 350 539 351 539 c 0
 352 539 354 535 359 515 c 2
453 219 m 0
 448 235 446 236 435 236 c 2
 262 236 l 2
 251 236 249 235 245 222 c 2
 203 112 l 2
 192 83 188 66 188 53 c 0
 188 43 189 37 193 33 c 0
 209 14 291 33 291 10 c 0
 291 6 290 2 289 0 c 1
 31 0 l 1
 30 2 27 6 27 10 c 0
 27 29 78 10 113 37 c 0
 124 45 135 59 145 78 c 0
 228 275 319 529 357 624 c 0
 366 645 374 649 389 649 c 0
 406 649 414 642 415 640 c 2
 453 540 l 2
 624 78 598 138 627 73 c 0
 633 58 640 40 657 29 c 0
 672 20 712 27 712 10 c 0
 712 6 711 2 710 0 c 1
 605 0 l 2
 564 0 529 -3 502 -47 c 0
 492 -64 485 -83 485 -106 c 0
 485 -156 513 -177 540 -177 c 0
 567 -177 587 -165 587 -165 c 1
 591 -168 593 -172 593 -181 c 1
 593 -181 553 -225 494 -225 c 0
 421 -225 395 -180 395 -140 c 0
 395 -73 442 -32 478 -4 c 0
 497 11 509 24 509 46 c 0
 509 63 500 90 453 219 c 0
EndSplineSet
EndChar

StartChar: eogonek
Encoding: 281 281 412
Width: 480
VWidth: 0
Flags: W
HStem: -225 48<303.076 392.743> -15 70<197.243 321.73> 249 27<139 333.86> 376 30<197.127 295.823>
VStem: 22 110<120.783 247.736> 190 90<-154.744 -77.8817> 334 112<263.014 330.908>
AnchorPoint: "r;o" 480 201 basechar 0
AnchorPoint: "r;x" 462 383 basechar 0
AnchorPoint: "r;bl" 462 13 basechar 0
AnchorPoint: "l;o" 0 201 basechar 0
AnchorPoint: "l;x" 29 383 basechar 0
AnchorPoint: "l;bl" 29 13 basechar 0
AnchorPoint: "r;lo" 448 -199 basechar 0
LayerCount: 3
Fore
SplineSet
247 376 m 0
 215 376 154 356 139 276 c 1
 276 276 l 2
 332 276 334 279 334 294 c 0
 334 333 302 376 247 376 c 0
190 -138 m 0
 190 -59 297 -9 297 -9 c 1
 297 -9 271 -15 243 -15 c 0
 148 -15 22 28 22 200 c 0
 22 301 104 406 252 406 c 0
 416 406 446 295 446 278 c 0
 446 249 446 249 344 249 c 2
 137 249 l 1
 133 233 132 218 132 203 c 0
 132 119 180 55 289 55 c 0
 320 55 383 57 431 113 c 1
 439 111 449 106 452 101 c 1
 428 61 406 46 364 18 c 0
 350 9 317 -11 299 -36 c 0
 287 -52 280 -72 280 -97 c 0
 280 -148 315 -177 356 -177 c 0
 390 -177 416 -165 416 -165 c 1
 422 -168 426 -172 426 -181 c 1
 426 -181 379 -225 311 -225 c 0
 230 -225 190 -183 190 -138 c 0
EndSplineSet
EndChar

StartChar: Eogonek
Encoding: 280 280 413
Width: 613
VWidth: 0
Flags: W
HStem: -225 48<411.5 517.753> 0 32<235.314 460 469.427 493.971> 305 26<235 369.308> 604 32<235.725 452.984>
VStem: 105 326<204.616 445.378> 105 130<34.3329 304.712 331.031 603.593> 344 88<-159.823 -74.2916> 409 29<195.001 263.663 375.375 454.999> 554 18<128.168 138.762>
AnchorPoint: "r;o" 613 200 basechar 0
AnchorPoint: "r;hi" 595 605 basechar 0
AnchorPoint: "r;x" 595 386 basechar 0
AnchorPoint: "r;bl" 613 12 basechar 0
AnchorPoint: "l;o" 18 200 basechar 0
AnchorPoint: "l;hi" 0 605 basechar 0
AnchorPoint: "l;x" 18 386 basechar 0
AnchorPoint: "l;bl" 0 12 basechar 0
AnchorPoint: "r;lo" 565 -199 basechar 0
LayerCount: 3
Fore
SplineSet
431 321 m 0xf880
 431 239 438 217 438 204 c 0
 438 196 435 195 424 195 c 0
 413 195 410 196 409 204 c 0xf180
 403 239 400 305 325 305 c 2
 272 305 l 2
 254 305 235 305 235 294 c 2
 235 53 l 2
 235 43 237 32 268 32 c 2
 456 32 l 2
 493 32 497 46 554 141 c 0
 557 145 560 149 568 147 c 0
 576 145 577 145 577 139 c 0
 577 134 575 124 572 111 c 0
 558 41 553 0 541 0 c 2
 511 0 l 2
 466 0 432 -48 432 -97 c 0
 432 -147 459 -177 492 -177 c 4
 520 -177 540 -165 540 -165 c 5
 544 -168 546 -172 546 -181 c 5
 546 -181 506 -225 447 -225 c 4
 376 -225 344 -183 344 -135 c 0
 344 -88 389 -28 460 0 c 1
 30 0 l 1
 29 2 27 6 27 10 c 0
 27 37 105 -19 105 75 c 2
 105 561 l 2xf680
 105 655 27 599 27 626 c 0
 27 630 29 634 30 636 c 1
 400 636 l 2
 451 636 494 641 505 641 c 0
 522 641 514 629 526 561 c 0
 530 534 536 507 536 494 c 0
 536 487 532 486 529 485 c 0
 521 481 516 492 515 493 c 0
 500 514 457 604 431 604 c 2xf880
 254 604 l 2
 242 604 235 595 235 581 c 2
 235 340 l 2
 235 332 245 331 261 331 c 2
 325 331 l 2
 406 331 403 411 409 446 c 0
 410 454 413 455 424 455 c 0
 435 455 438 454 438 446 c 0xf580
 438 433 431 403 431 321 c 0xf880
EndSplineSet
EndChar

StartChar: Uogonek
Encoding: 370 370 414
Width: 764
VWidth: 0
Flags: W
HStem: -225 48<403 508.146> -24 67<332.424 422 433.643 513.762> 616 20G<28.5 320.5 517.5 734.5>
VStem: 105 130<171.619 613.058> 333 90<-158.489 -76.8326> 622 39<203.206 586.647>
AnchorPoint: "r;x" 746 388 basechar 0
AnchorPoint: "r;hi" 764 610 basechar 0
AnchorPoint: "r;o" 746 205 basechar 0
AnchorPoint: "r;bl" 692 12 basechar 0
AnchorPoint: "r;hi2" 755 670 basechar 0
AnchorPoint: "l;x" 18 388 basechar 0
AnchorPoint: "l;hi" 0 610 basechar 0
AnchorPoint: "l;o" 18 205 basechar 0
AnchorPoint: "l;bl" 54 12 basechar 0
AnchorPoint: "r;lo" 555 -199 basechar 0
LayerCount: 3
Fore
SplineSet
423 -97 m 0
 423 -145 451 -177 483 -177 c 0
 510 -177 530 -166 530 -166 c 1
 534 -169 536 -172 536 -181 c 1
 536 -181 497 -225 438 -225 c 0
 368 -225 333 -178 333 -133 c 0
 333 -85 377 -48 422 -24 c 1
 406 -24 l 2
 302 -24 236 5 198 35 c 0
 110 107 105 233 105 385 c 2
 105 561 l 2
 105 652 27 600 27 626 c 0
 27 630 28 634 29 636 c 1
 320 636 l 1
 321 634 322 630 322 626 c 0
 322 599 235 656 235 562 c 2
 235 362 l 2
 235 216 254 43 413 43 c 0
 531 43 622 98 622 329 c 2
 622 457 l 2
 622 521 618 561 604 585 c 0
 577 641 516 605 516 626 c 0
 516 630 517 634 518 636 c 1
 734 636 l 1
 735 634 737 630 737 626 c 0
 737 601 686 642 671 584 c 0
 665 564 661 528 661 468 c 2
 661 407 l 2
 661 262 660 237 648 181 c 0
 619 47 547 -7 454 -20 c 1
 434 -36 423 -63 423 -97 c 0
EndSplineSet
EndChar

StartChar: uogonek
Encoding: 371 371 415
Width: 547
VWidth: 0
Flags: W
HStem: -225 48<365.391 457.156> -15 56<210.847 311.323> 372 20G<137.5 171 435 471.5>
VStem: 68 108<79.4626 361.492> 248 90<-150.401 -65.243> 370 108<60.9295 361.48>
AnchorPoint: "r;o" 538 204 basechar 0
AnchorPoint: "r;x" 538 385 basechar 0
AnchorPoint: "r;bl" 547 12 basechar 0
AnchorPoint: "l;o" 9 204 basechar 0
AnchorPoint: "l;x" 0 385 basechar 0
AnchorPoint: "l;bl" 18 12 basechar 0
AnchorPoint: "r;lo" 508 -199 basechar 0
LayerCount: 3
Fore
SplineSet
478 332 m 2
 478 95 l 2
 478 -5 532 63 532 31 c 0
 532 11 509 21 441 7 c 0
 409 0 338 -9 338 -94 c 0
 338 -145 377 -177 421 -177 c 0
 458 -177 485 -165 485 -165 c 1
 489 -168 491 -172 491 -181 c 1
 491 -181 444 -225 374 -225 c 0
 291 -225 248 -177 248 -131 c 0
 248 -52 322 -11 378 8 c 1
 378 56 l 1
 378 56 329 16 316 9 c 0
 291 -5 262 -15 226 -15 c 0
 81 -15 68 85 68 176 c 2
 68 311 l 2
 68 396 14 343 14 369 c 0
 14 383 19 385 36 385 c 0
 117 387 106 381 169 392 c 1
 170 392 l 2
 172 392 177 391 179 386 c 0
 179 384 176 336 176 332 c 2
 176 199 l 2
 176 106 189 41 272 41 c 0
 319 41 370 64 370 89 c 2
 370 313 l 2
 370 398 301 344 301 369 c 0
 301 383 307 385 325 385 c 0
 412 387 401 381 469 392 c 1
 470 392 l 2
 473 392 477 391 480 386 c 0
 480 384 478 336 478 332 c 2
EndSplineSet
EndChar

StartChar: iogonek.dotless
Encoding: 65567 -1 416
Width: 274
VWidth: 0
Flags: W
HStem: -225 48<135.391 225.39>
VStem: 20 90<-151.613 -68.7654> 96 108<23.9319 348.729>
AnchorPoint: "r;o" 274 204 basechar 0
AnchorPoint: "r;x" 265 389 basechar 0
AnchorPoint: "r;bl" 274 15 basechar 0
AnchorPoint: "l;o" 0 204 basechar 0
AnchorPoint: "l;x" 0 389 basechar 0
AnchorPoint: "l;bl" 0 15 basechar 0
AnchorPoint: "r;lo" 274 -199 basechar 0
AnchorPoint: "top" 153 544 basechar 0
AnchorPoint: "l;lo" 0 -199 basechar 0
LayerCount: 3
Fore
SplineSet
204 355 m 2xa0
 204 67 l 2xa0
 204 -7 260 35 260 13 c 0
 260 10 260 7 259 5 c 1
 212 5 l 2
 151 5 110 -33 110 -93 c 0
 110 -144 147 -177 190 -177 c 0
 226 -177 251 -165 251 -165 c 1
 255 -168 258 -172 258 -181 c 1
 258 -181 212 -225 143 -225 c 0
 62 -225 20 -177 20 -130 c 0xc0
 20 -62 88 -19 141 5 c 1
 15 5 l 1
 14 7 14 10 14 13 c 0
 14 35 96 -10 96 67 c 2
 96 302 l 2
 96 387 14 334 14 359 c 0
 14 390 48 344 195 416 c 1
 199 416 206 414 207 410 c 0
 207 408 204 359 204 355 c 2xa0
EndSplineSet
EndChar

StartChar: ordfeminine
Encoding: 170 170 417
Width: 451
VWidth: 0
Flags: W
HStem: 409 29<150 225.957> 413 38<296 353.927> 641 26<175.707 292>
VStem: 96 81<574.124 628.183> 103 85<438.165 498.004> 255 77<451.212 534 542.123 636.862>
LayerCount: 3
Fore
SplineSet
96 598 m 0xb4
 96 630 178 667 252 667 c 0
 332 667 332 639 332 563 c 2
 332 499 l 2
 332 469 333 451 343 451 c 0
 356 451 355 463 362 463 c 0
 365 463 366 459 366 454 c 0
 366 430 327 413 306 413 c 0x74
 286 413 267 419 260 453 c 1
 244 430 212 409 168 409 c 0
 132 409 103 428 103 462 c 0xac
 103 495 145 521 255 547 c 1
 255 589 l 2
 255 615 253 641 214 641 c 0
 188 641 172 631 172 621 c 0
 172 618 177 609 177 598 c 0
 177 579 155 571 135 571 c 0
 114 571 96 581 96 598 c 0xb4
255 534 m 1
 250 532 239 529 226 522 c 0
 208 512 188 502 188 471 c 0
 188 453 198 438 212 438 c 0xac
 217 438 255 446 255 481 c 2
 255 534 l 1
EndSplineSet
EndChar

StartChar: Euro
Encoding: 8364 8364 418
Width: 669
VWidth: 0
Flags: W
HStem: -25 38<328.978 495.694> 234 38<-14 39 188 489> 369 37<-15.9999 44 191 546> 626 32<329.234 476.872>
VStem: 36 147<272 368.016> 46 142<170.621 234 307.938 369> 596 28<467.263 509.266>
AnchorPoint: "r;o" 669 195 basechar 0
AnchorPoint: "r;hi" 669 609 basechar 0
AnchorPoint: "r;x" 669 383 basechar 0
AnchorPoint: "r;bl" 669 12 basechar 0
AnchorPoint: "l;bl" 50 12 basechar 0
AnchorPoint: "l;x" 0 383 basechar 0
AnchorPoint: "l;hi" 50 609 basechar 0
AnchorPoint: "l;o" 0 195 basechar 0
LayerCount: 3
Fore
SplineSet
581 600 m 0xfa
 586 600 590 622 602 622 c 0
 613 622 613 617 614 602 c 0
 618 538 624 490 624 478 c 0
 624 469 624 468 611 466 c 0
 598 464 597 471 596 474 c 0
 580 540 506 626 406 626 c 0
 286 626 214 533 191 406 c 1
 559 406 l 1
 546 369 l 1
 188 369 l 1xf6
 185 351 183 332 183 312 c 0xfa
 183 298 185 284 186 272 c 1
 502 272 l 1
 489 234 l 1
 188 234 l 1
 212 83 315 13 414 13 c 0
 540 13 591 122 607 155 c 0
 611 162 612 164 616 164 c 0
 620 164 621 162 621 158 c 2
 613 52 l 2
 611 21 607 25 586 21 c 0
 573 19 558 16 550 12 c 0
 487 -15 434 -25 383 -25 c 0
 191 -25 75 95 46 234 c 1xf6
 -14 234 l 1
 -15 240 -16 245 -16 251 c 0
 -16 258 -15 265 -14 272 c 1
 39 272 l 1
 38 283 36 296 36 307 c 0
 36 327 38 348 44 369 c 1
 -14 369 l 1
 -16 375 -16 381 -16 387 c 0
 -16 393 -16 400 -14 406 c 1
 54 406 l 1
 90 538 202 658 387 658 c 0
 492 658 579 600 581 600 c 0xfa
EndSplineSet
EndChar
